<?xml version="1.0" encoding="UTF-8"?>
<!DOCTYPE svg PUBLIC "-//W3C//DTD SVG 1.1//EN" "http://www.w3.org/Graphics/SVG/1.1/DTD/svg11.dtd">
<svg xmlns="http://www.w3.org/2000/svg" version="1.1" width="159px" height="94px" style="shape-rendering:geometricPrecision; text-rendering:geometricPrecision; image-rendering:optimizeQuality; fill-rule:evenodd; clip-rule:evenodd" xmlns:xlink="http://www.w3.org/1999/xlink">
<g><path style="opacity:1" fill="#fdfdfd" d="M -0.5,-0.5 C 52.5,-0.5 105.5,-0.5 158.5,-0.5C 158.5,30.8333 158.5,62.1667 158.5,93.5C 105.5,93.5 52.5,93.5 -0.5,93.5C -0.5,62.1667 -0.5,30.8333 -0.5,-0.5 Z"/></g>
<g><path style="opacity:1" fill="#dedede" d="M 108.5,12.5 C 122.167,11.1667 135.833,11.1667 149.5,12.5C 148.508,12.3284 147.842,12.6618 147.5,13.5C 135.167,13.5 122.833,13.5 110.5,13.5C 110.158,12.6618 109.492,12.3284 108.5,12.5 Z"/></g>
<g><path style="opacity:1" fill="#fbfbfb" d="M 110.5,13.5 C 122.833,13.5 135.167,13.5 147.5,13.5C 147.5,33.5 147.5,53.5 147.5,73.5C 135.167,73.5 122.833,73.5 110.5,73.5C 110.288,53.2924 110.288,33.2924 110.5,13.5 Z"/></g>
<g><path style="opacity:1" fill="#c4c3c3" d="M 149.5,12.5 C 149.5,33.1667 149.5,53.8333 149.5,74.5C 135.656,74.829 121.99,74.4957 108.5,73.5C 109.167,73.5 109.833,73.5 110.5,73.5C 122.833,73.5 135.167,73.5 147.5,73.5C 147.5,53.5 147.5,33.5 147.5,13.5C 147.842,12.6618 148.508,12.3284 149.5,12.5 Z"/></g>
<g><path style="opacity:1" fill="#999898" d="M 120.5,20.5 C 121.5,20.5 122.5,20.5 123.5,20.5C 123.5,21.5 123.5,22.5 123.5,23.5C 122.5,23.5 121.5,23.5 120.5,23.5C 120.5,22.5 120.5,21.5 120.5,20.5 Z"/></g>
<g><path style="opacity:1" fill="#949494" d="M 40.5,23.5 C 39.8333,27.8333 39.1667,32.1667 38.5,36.5C 38.1734,31.7863 38.5067,27.1196 39.5,22.5C 40.1067,22.6236 40.44,22.9569 40.5,23.5 Z"/></g>
<g><path style="opacity:1" fill="#9f9f9f" d="M 71.5,36.5 C 70.6753,32.3528 70.1753,28.0195 70,23.5C 69.8247,28.0195 69.3247,32.3528 68.5,36.5C 68.5,31.8333 68.5,27.1667 68.5,22.5C 69.5,22.5 70.5,22.5 71.5,22.5C 71.5,27.1667 71.5,31.8333 71.5,36.5 Z"/></g>
<g><path style="opacity:1" fill="#dcdcdc" d="M 46.5,39.5 C 45.8333,18.1667 45.1667,18.1667 44.5,39.5C 43.5111,34.0247 43.1778,28.358 43.5,22.5C 44.8333,22.5 46.1667,22.5 47.5,22.5C 47.8222,28.358 47.4889,34.0247 46.5,39.5 Z"/></g>
<g><path style="opacity:1" fill="#7b7b7b" d="M 46.5,39.5 C 45.8333,39.5 45.1667,39.5 44.5,39.5C 45.1667,18.1667 45.8333,18.1667 46.5,39.5 Z"/></g>
<g><path style="opacity:1" fill="#f8f8f8" d="M 134.5,34.5 C 128.167,34.5 121.833,34.5 115.5,34.5C 115.5,33.1667 115.5,31.8333 115.5,30.5C 119.042,30.8128 122.375,30.4794 125.5,29.5C 129.361,29.4073 133.361,29.2406 137.5,29C 137.953,26.3067 139.453,24.4734 142,23.5C 142.667,26.8333 142.667,30.1667 142,33.5C 139.619,34.435 137.119,34.7683 134.5,34.5 Z"/></g>
<g><path style="opacity:1" fill="#b6b6b6" d="M 75.5,25.5 C 76.5,25.5 77.5,25.5 78.5,25.5C 78.5,26.5 78.5,27.5 78.5,28.5C 77.5,28.5 76.5,28.5 75.5,28.5C 75.5,27.5 75.5,26.5 75.5,25.5 Z"/></g>
<g><path style="opacity:1" fill="#adadad" d="M 27.5,24.5 C 28.5,24.5 29.5,24.5 30.5,24.5C 30.5,25.5 30.5,26.5 30.5,27.5C 29.5,27.5 28.5,27.5 27.5,27.5C 27.5,26.5 27.5,25.5 27.5,24.5 Z"/></g>
<g><path style="opacity:1" fill="#909090" d="M 62.5,27.5 C 64.256,28.5521 64.9227,30.2188 64.5,32.5C 63.448,32.6495 62.448,32.4828 61.5,32C 62.3802,30.6439 62.7135,29.1439 62.5,27.5 Z"/></g>
<g><path style="opacity:1" fill="#9c9c9c" d="M 15.5,29.5 C 17.4646,29.9483 17.7979,30.9483 16.5,32.5C 15.6143,31.675 15.281,30.675 15.5,29.5 Z"/></g>
<g><path style="opacity:1" fill="#cdcccc" d="M 116.5,28.5 C 119.287,29.4767 122.287,29.81 125.5,29.5C 122.375,30.4794 119.042,30.8128 115.5,30.5C 115.5,31.8333 115.5,33.1667 115.5,34.5C 121.833,34.5 128.167,34.5 134.5,34.5C 133.89,35.391 133.557,36.391 133.5,37.5C 126.922,36.5399 120.255,36.2066 113.5,36.5C 113.337,34.1432 113.503,31.8098 114,29.5C 114.671,28.7476 115.504,28.4142 116.5,28.5 Z"/></g>
<g><path style="opacity:1" fill="#777777" d="M 32.5,32.5 C 31.8333,32.5 31.5,32.8333 31.5,33.5C 28.6008,32.5056 27.9341,33.5056 29.5,36.5C 28.609,37.1098 27.609,37.4431 26.5,37.5C 26.5,35.8333 26.5,34.1667 26.5,32.5C 26.484,30.5159 27.484,29.5159 29.5,29.5C 31.1753,29.8684 32.1753,30.8684 32.5,32.5 Z"/></g>
<g><path style="opacity:1" fill="#cfcfcf" d="M 31.5,33.5 C 31.7148,35.1788 31.0481,36.1788 29.5,36.5C 27.9341,33.5056 28.6008,32.5056 31.5,33.5 Z"/></g>
<g><path style="opacity:1" fill="#bcbcbc" d="M 26.5,32.5 C 26.5,34.1667 26.5,35.8333 26.5,37.5C 24.901,37.7678 23.5676,37.4345 22.5,36.5C 23.5,36.5 24.5,36.5 25.5,36.5C 25.2322,34.901 25.5655,33.5676 26.5,32.5 Z"/></g>
<g><path style="opacity:1" fill="#656565" d="M 71.5,36.5 C 72.8333,37.8333 74.1667,37.8333 75.5,36.5C 76.3019,35.0484 76.8019,33.3817 77,31.5C 77.1981,33.3817 77.6981,35.0484 78.5,36.5C 79.9187,37.4511 81.5853,37.7845 83.5,37.5C 84.1667,28.1667 84.8333,28.1667 85.5,37.5C 84.7109,37.7828 84.0442,38.2828 83.5,39C 80.6308,39.009 77.9641,39.1757 75.5,39.5C 69.9188,39.181 64.2521,39.0143 58.5,39C 55.8005,37.4233 55.1339,35.2567 56.5,32.5C 57.2436,33.9905 57.9103,35.4905 58.5,37C 62.0267,37.8075 65.3601,37.6408 68.5,36.5C 69.3247,32.3528 69.8247,28.0195 70,23.5C 70.1753,28.0195 70.6753,32.3528 71.5,36.5 Z"/></g>
<g><path style="opacity:1" fill="#a9a9a9" d="M 78.5,36.5 C 77.6981,35.0484 77.1981,33.3817 77,31.5C 76.8019,33.3817 76.3019,35.0484 75.5,36.5C 75.5,34.5 75.5,32.5 75.5,30.5C 76.5,30.5 77.5,30.5 78.5,30.5C 78.5,32.5 78.5,34.5 78.5,36.5 Z"/></g>
<g><path style="opacity:1" fill="#b7b6b6" d="M 141.5,39.5 C 134.167,39.5 126.833,39.5 119.5,39.5C 124.167,38.8333 128.833,38.1667 133.5,37.5C 133.557,36.391 133.89,35.391 134.5,34.5C 137.119,34.7683 139.619,34.435 142,33.5C 142.667,30.1667 142.667,26.8333 142,23.5C 139.453,24.4734 137.953,26.3067 137.5,29C 133.361,29.2406 129.361,29.4073 125.5,29.5C 122.287,29.81 119.287,29.4767 116.5,28.5C 121.041,29.2308 125.041,28.2308 128.5,25.5C 129.386,26.325 129.719,27.325 129.5,28.5C 131.833,28.5 134.167,28.5 136.5,28.5C 137.127,23.8811 139.794,21.8811 144.5,22.5C 144.666,26.5138 144.499,30.5138 144,34.5C 142.155,35.0495 140.655,36.0495 139.5,37.5C 140.243,38.1818 140.909,38.8485 141.5,39.5 Z"/></g>
<g><path style="opacity:1" fill="#d7d7d7" d="M 85.5,37.5 C 85.5,39.5 85.5,41.5 85.5,43.5C 84.5,43.5 83.5,43.5 82.5,43.5C 82.5,42.5 82.5,41.5 82.5,40.5C 80.0971,40.552 77.7638,40.2186 75.5,39.5C 77.9641,39.1757 80.6308,39.009 83.5,39C 84.0442,38.2828 84.7109,37.7828 85.5,37.5 Z"/></g>
<g><path style="opacity:1" fill="#6e6e6e" d="M 40.5,23.5 C 40.6658,28.1785 40.4992,32.8452 40,37.5C 39.5,38 39,38.5 38.5,39C 32.8431,39.4994 27.1764,39.6661 21.5,39.5C 21.7035,41.3904 21.0368,42.8904 19.5,44C 12.7253,46.0598 9.7253,43.5598 10.5,36.5C 11.5,36.5 12.5,36.5 13.5,36.5C 13.5,38.5 13.5,40.5 13.5,42.5C 15.5273,42.6621 17.5273,42.4955 19.5,42C 20.1197,39.5272 20.7864,37.0272 21.5,34.5C 22.2975,34.9569 22.6309,35.6236 22.5,36.5C 23.5676,37.4345 24.901,37.7678 26.5,37.5C 27.609,37.4431 28.609,37.1098 29.5,36.5C 31.0481,36.1788 31.7148,35.1788 31.5,33.5C 31.5,32.8333 31.8333,32.5 32.5,32.5C 32.5,34.1667 32.5,35.8333 32.5,37.5C 34.7354,37.7947 36.7354,37.4614 38.5,36.5C 39.1667,32.1667 39.8333,27.8333 40.5,23.5 Z"/></g>
<g><path style="opacity:1" fill="#b3b3b3" d="M 32.5,32.5 C 33.4345,33.5676 33.7678,34.901 33.5,36.5C 35.1667,36.5 36.8333,36.5 38.5,36.5C 36.7354,37.4614 34.7354,37.7947 32.5,37.5C 32.5,35.8333 32.5,34.1667 32.5,32.5 Z"/></g>
<g><path style="opacity:1" fill="#aeaeae" d="M 108.5,12.5 C 109.492,12.3284 110.158,12.6618 110.5,13.5C 110.288,33.2924 110.288,53.2924 110.5,73.5C 109.833,73.5 109.167,73.5 108.5,73.5C 108.253,52.9326 108.253,32.5993 108.5,12.5 Z"/></g>
<g><path style="opacity:1" fill="#939393" d="M 24.5,49.5 C 24.185,53.3714 24.5184,57.0381 25.5,60.5C 25.44,61.0431 25.1067,61.3764 24.5,61.5C 23.1905,57.3507 23.1905,53.3507 24.5,49.5 Z"/></g>
<g><path style="opacity:1" fill="#808080" d="M 33.5,48.5 C 36.2469,48.1866 38.9135,48.52 41.5,49.5C 40.675,50.3857 39.675,50.719 38.5,50.5C 37.8333,65.1667 37.1667,65.1667 36.5,50.5C 34.8212,50.7148 33.8212,50.0481 33.5,48.5 Z"/></g>
<g><path style="opacity:1" fill="#969696" d="M 56.5,56.5 C 56.1667,56.5 55.8333,56.5 55.5,56.5C 54.1667,56.5 52.8333,56.5 51.5,56.5C 51.5,57.5 51.5,58.5 51.5,59.5C 52.5,59.5 53.5,59.5 54.5,59.5C 53.4324,60.4345 52.099,60.7678 50.5,60.5C 50.5,58.8333 50.5,57.1667 50.5,55.5C 55.8333,55.1667 55.8333,54.8333 50.5,54.5C 50.2322,52.901 50.5655,51.5676 51.5,50.5C 51.44,49.9569 51.1067,49.6236 50.5,49.5C 49.5091,53.4454 49.1758,57.4454 49.5,61.5C 48.5151,57.3656 48.1818,53.0323 48.5,48.5C 50.8568,48.3367 53.1902,48.5034 55.5,49C 56.049,51.5378 56.3823,54.0378 56.5,56.5 Z"/></g>
<g><path style="opacity:1" fill="#969696" d="M 74.5,49.5 C 72.5772,53.0293 71.9106,57.0293 72.5,61.5C 71.5151,57.3656 71.1818,53.0323 71.5,48.5C 72.791,48.2627 73.791,48.596 74.5,49.5 Z"/></g>
<g><path style="opacity:1" fill="#f4f4f4" d="M 51.5,50.5 C 52.5,50.5 53.5,50.5 54.5,50.5C 54.5,51.5 54.5,52.5 54.5,53.5C 53.5,53.5 52.5,53.5 51.5,53.5C 51.5,52.5 51.5,51.5 51.5,50.5 Z"/></g>
<g><path style="opacity:1" fill="#767676" d="M 25.5,60.5 C 24.5184,57.0381 24.185,53.3714 24.5,49.5C 31.4947,47.3355 33.1613,49.5021 29.5,56C 32.0586,57.3234 32.7253,59.1567 31.5,61.5C 30.376,60.086 29.376,58.586 28.5,57C 27.552,56.5172 26.552,56.3505 25.5,56.5C 25.5,57.8333 25.5,59.1667 25.5,60.5 Z"/></g>
<g><path style="opacity:1" fill="#ebebeb" d="M 25.5,50.5 C 26.8333,50.5 28.1667,50.5 29.5,50.5C 29.5,51.8333 29.5,53.1667 29.5,54.5C 28.1667,54.5 26.8333,54.5 25.5,54.5C 25.5,53.1667 25.5,51.8333 25.5,50.5 Z"/></g>
<g><path style="opacity:1" fill="#969595" d="M 119.5,39.5 C 126.833,39.5 134.167,39.5 141.5,39.5C 142.458,39.9528 143.292,40.6195 144,41.5C 144.499,45.8206 144.666,50.1539 144.5,54.5C 143.5,54.5 142.5,54.5 141.5,54.5C 140.761,54.631 140.094,54.4643 139.5,54C 140.737,53.7679 141.737,53.2679 142.5,52.5C 142.793,48.5633 142.46,44.73 141.5,41C 134.167,40.3333 126.833,40.3333 119.5,41C 116.305,43.1941 115.305,46.0274 116.5,49.5C 117.287,48.7579 117.953,47.9246 118.5,47C 124.491,46.5005 130.491,46.3338 136.5,46.5C 136.737,47.791 136.404,48.791 135.5,49.5C 133.429,48.1914 130.929,47.5248 128,47.5C 125.5,47.6667 123,47.8333 120.5,48C 117.876,49.9688 117.876,51.8022 120.5,53.5C 120.5,54.1667 120.167,54.5 119.5,54.5C 118.624,54.3691 117.957,54.7025 117.5,55.5C 118.283,57.2882 119.616,58.2882 121.5,58.5C 126.985,59.3272 132.652,59.8272 138.5,60C 132.085,60.7902 125.752,60.6235 119.5,59.5C 115.433,56.6392 113.433,52.6392 113.5,47.5C 114.067,43.6753 116.067,41.0086 119.5,39.5 Z"/></g>
<g><path style="opacity:1" fill="#f7f7f7" d="M 135.5,49.5 C 135.859,51.371 136.859,52.871 138.5,54C 132.418,54.7876 126.418,54.621 120.5,53.5C 117.876,51.8022 117.876,49.9688 120.5,48C 123,47.8333 125.5,47.6667 128,47.5C 130.929,47.5248 133.429,48.1914 135.5,49.5 Z"/></g>
<g><path style="opacity:1" fill="#f7f7f7" d="M 142.5,52.5 C 138.799,52.1322 136.799,50.1322 136.5,46.5C 130.491,46.3338 124.491,46.5005 118.5,47C 117.953,47.9246 117.287,48.7579 116.5,49.5C 115.305,46.0274 116.305,43.1941 119.5,41C 126.833,40.3333 134.167,40.3333 141.5,41C 142.46,44.73 142.793,48.5633 142.5,52.5 Z"/></g>
<g><path style="opacity:1" fill="#878787" d="M 14.5,48.5 C 15.8221,48.33 16.9887,48.6634 18,49.5C 19.4488,52.7318 20.6155,56.0651 21.5,59.5C 21.1667,60.1667 20.8333,60.8333 20.5,61.5C 19.6143,60.675 19.281,59.675 19.5,58.5C 17.1667,58.5 14.8333,58.5 12.5,58.5C 12.719,59.675 12.3857,60.675 11.5,61.5C 11.1667,61 10.8333,60.5 10.5,60C 11.9868,56.1988 13.3201,52.3655 14.5,48.5 Z"/></g>
<g><path style="opacity:1" fill="#dcdcdc" d="M 15.5,52.5 C 17.1042,53.287 17.7709,54.6203 17.5,56.5C 16.5,56.5 15.5,56.5 14.5,56.5C 14.4326,55.0413 14.7659,53.7079 15.5,52.5 Z"/></g>
<g><path style="opacity:1" fill="#666666" d="M 51.5,50.5 C 50.5655,51.5676 50.2322,52.901 50.5,54.5C 55.8333,54.8333 55.8333,55.1667 50.5,55.5C 50.5,57.1667 50.5,58.8333 50.5,60.5C 52.099,60.7678 53.4324,60.4345 54.5,59.5C 55.404,58.791 55.7373,57.791 55.5,56.5C 55.8333,56.5 56.1667,56.5 56.5,56.5C 56.8333,56.5 57.1667,56.5 57.5,56.5C 56.8413,60.9939 54.1746,62.6605 49.5,61.5C 49.1758,57.4454 49.5091,53.4454 50.5,49.5C 51.1067,49.6236 51.44,49.9569 51.5,50.5 Z"/></g>
<g><path style="opacity:1" fill="#787878" d="M 75.5,54.5 C 75.6309,53.6236 75.2975,52.9569 74.5,52.5C 73.5159,55.4281 73.1826,58.4281 73.5,61.5C 73.1667,61.5 72.8333,61.5 72.5,61.5C 71.9106,57.0293 72.5772,53.0293 74.5,49.5C 76.5576,51.9266 78.3909,54.5932 80,57.5C 80.1786,54.4465 80.6786,51.4465 81.5,48.5C 82.8333,52.8333 82.8333,57.1667 81.5,61.5C 79.2655,59.3619 77.2655,57.0286 75.5,54.5 Z"/></g>
<g><path style="opacity:1" fill="#cccccc" d="M 75.5,54.5 C 74.8333,56.8333 74.1667,59.1667 73.5,61.5C 73.1826,58.4281 73.5159,55.4281 74.5,52.5C 75.2975,52.9569 75.6309,53.6236 75.5,54.5 Z"/></g>
<g><path style="opacity:1" fill="#7c7c7c" d="M 85.5,48.5 C 87.1171,49.5893 87.9504,51.256 88,53.5C 94.4115,48.1223 94.9115,48.6223 89.5,55C 94.9528,62.6019 94.4528,63.1019 88,56.5C 87.7978,58.2556 87.2978,59.9223 86.5,61.5C 85.5078,57.2172 85.1744,52.8839 85.5,48.5 Z"/></g>
<g><path style="opacity:1" fill="#efefef" d="M 55.5,56.5 C 55.7373,57.791 55.404,58.791 54.5,59.5C 53.5,59.5 52.5,59.5 51.5,59.5C 51.5,58.5 51.5,57.5 51.5,56.5C 52.8333,56.5 54.1667,56.5 55.5,56.5 Z"/></g>
<g><path style="opacity:1" fill="#858585" d="M 60.5,61.5 C 59.6236,61.6309 58.9569,61.2975 58.5,60.5C 59.1272,59.5832 59.4606,58.5832 59.5,57.5C 60.3254,54.2079 61.8254,51.2079 64,48.5C 64.772,48.6448 65.4387,48.9781 66,49.5C 66.7015,52.3272 67.7015,54.9938 69,57.5C 69.7805,58.9437 69.6139,60.277 68.5,61.5C 67.6143,60.675 67.281,59.675 67.5,58.5C 65.4727,58.3379 63.4727,58.5045 61.5,59C 60.7476,59.6708 60.4142,60.5041 60.5,61.5 Z"/></g>
<g><path style="opacity:1" fill="#dddddd" d="M 63.5,52.5 C 65.1042,53.287 65.7709,54.6203 65.5,56.5C 64.325,56.719 63.325,56.3857 62.5,55.5C 63.1272,54.5832 63.4606,53.5832 63.5,52.5 Z"/></g>
<g><path style="opacity:1" fill="#dbdbdb" d="M 57.5,56.5 C 58.1667,56.8333 58.8333,57.1667 59.5,57.5C 59.4606,58.5832 59.1272,59.5832 58.5,60.5C 58.9569,61.2975 59.6236,61.6309 60.5,61.5C 57.0128,62.4024 53.3461,62.4024 49.5,61.5C 54.1746,62.6605 56.8413,60.9939 57.5,56.5 Z"/></g>
<g><path style="opacity:1" fill="#c2c2c2" d="M 136.5,46.5 C 136.799,50.1322 138.799,52.1322 142.5,52.5C 141.737,53.2679 140.737,53.7679 139.5,54C 140.094,54.4643 140.761,54.631 141.5,54.5C 144.197,58.693 145.197,63.3597 144.5,68.5C 134.167,68.5 123.833,68.5 113.5,68.5C 113.5,65.8333 113.5,63.1667 113.5,60.5C 115.735,60.7947 117.735,60.4614 119.5,59.5C 125.752,60.6235 132.085,60.7902 138.5,60C 132.652,59.8272 126.985,59.3272 121.5,58.5C 127.509,58.3338 133.509,58.5005 139.5,59C 140.337,60.0113 140.67,61.1779 140.5,62.5C 132.167,62.5 123.833,62.5 115.5,62.5C 115.5,63.8333 115.5,65.1667 115.5,66.5C 124.5,66.5 133.5,66.5 142.5,66.5C 142.929,62.7432 142.263,59.2432 140.5,56C 133.321,55.8285 126.321,55.3285 119.5,54.5C 120.167,54.5 120.5,54.1667 120.5,53.5C 126.418,54.621 132.418,54.7876 138.5,54C 136.859,52.871 135.859,51.371 135.5,49.5C 136.404,48.791 136.737,47.791 136.5,46.5 Z"/></g>
<g><path style="opacity:1" fill="#f9f9f9" d="M 119.5,54.5 C 126.321,55.3285 133.321,55.8285 140.5,56C 142.263,59.2432 142.929,62.7432 142.5,66.5C 133.5,66.5 124.5,66.5 115.5,66.5C 115.5,65.1667 115.5,63.8333 115.5,62.5C 123.833,62.5 132.167,62.5 140.5,62.5C 140.67,61.1779 140.337,60.0113 139.5,59C 133.509,58.5005 127.509,58.3338 121.5,58.5C 119.616,58.2882 118.283,57.2882 117.5,55.5C 117.957,54.7025 118.624,54.3691 119.5,54.5 Z"/></g>
</svg>
