<svg version="1.1" id="Layer_1" xmlns="http://www.w3.org/2000/svg" xmlns:xlink="http://www.w3.org/1999/xlink" x="0px" y="0px"
	 width="100%" viewBox="0 0 808 367" enable-background="new 0 0 808 367" xml:space="preserve">
<path fill="#FFFFFF" opacity="1.000000" stroke="none" 
	d="
M621.000000,368.000000 
	C414.000000,368.000000 207.500000,368.000000 1.000000,368.000000 
	C1.000000,245.666672 1.000000,123.333336 1.000000,1.000000 
	C270.333344,1.000000 539.666687,1.000000 809.000000,1.000000 
	C809.000000,123.333336 809.000000,245.666672 809.000000,368.000000 
	C746.500000,368.000000 684.000000,368.000000 621.000000,368.000000 
M148.174805,231.882187 
	C146.753494,232.001205 145.332199,232.120224 142.989273,232.156738 
	C108.122078,232.156738 73.254883,232.156738 38.413105,232.156738 
	C36.805004,294.643036 93.110001,342.032684 144.177933,338.232697 
	C144.177933,335.486328 144.177933,332.685059 144.631638,329.268921 
	C145.389862,314.553528 149.763092,300.720856 156.715927,287.992340 
	C172.059998,259.902039 195.794815,242.468292 226.976608,235.170258 
	C228.773438,234.749741 230.477951,233.934784 233.130966,233.226791 
	C237.790527,233.095413 242.449936,232.856781 247.109695,232.849762 
	C281.753693,232.797623 316.397766,232.798828 351.041779,232.751724 
	C353.020355,232.749023 354.998535,232.469559 357.810822,232.599442 
	C391.151001,231.639999 418.608154,218.511337 439.647430,192.557953 
	C455.084198,173.515671 461.955353,151.301147 463.756744,126.979614 
	C493.480682,126.673241 523.204651,126.366875 552.977600,126.662262 
	C552.990479,127.064552 553.003357,127.466850 552.191528,127.957657 
	C547.667786,128.982086 543.050781,129.706512 538.635071,131.078674 
	C504.870911,141.570663 481.619568,163.302475 468.961304,196.394058 
	C464.572998,207.866043 463.301025,219.863586 462.099274,232.536758 
	C462.106110,232.742950 462.112946,232.949127 462.057098,233.998749 
	C461.760345,238.354034 461.463562,242.709335 461.016357,247.852142 
	C456.849365,272.641602 445.857056,293.716614 427.007965,310.555756 
	C410.930237,324.919067 392.098480,333.383148 370.037354,336.860535 
	C365.977966,337.071228 361.918579,337.281952 357.859192,337.492645 
	C357.909973,338.044434 357.960785,338.596252 358.011566,339.148041 
	C362.453125,338.931732 366.894653,338.715424 372.224823,338.552155 
	C402.332672,338.544952 432.440491,338.537750 463.438629,338.777740 
	C470.651947,338.003693 478.024078,337.927887 485.049988,336.329956 
	C510.143768,330.622894 531.039673,317.913757 546.991516,297.482178 
	C557.503296,284.018311 563.969604,268.760040 567.874207,252.212708 
	C568.247986,253.897476 568.940369,255.581024 568.946838,257.267212 
	C569.022949,277.091797 568.986694,296.916779 569.014771,316.741608 
	C569.016968,318.318329 569.277710,319.894653 569.418274,321.471161 
	C570.695862,320.758636 570.863159,320.146454 570.988342,319.525757 
	C575.163086,298.821777 584.349426,280.671722 599.064697,265.497742 
	C612.415405,251.730774 628.274170,242.160446 647.103271,237.712540 
	C648.601379,237.358643 649.726807,235.427200 651.935547,234.005402 
	C659.648743,233.923080 667.362000,233.840759 675.991272,233.903564 
	C711.224304,233.903564 746.457397,233.903564 781.654175,233.903564 
	C783.898621,178.330429 735.020813,125.271362 673.843384,127.563278 
	C674.127502,131.951019 674.411438,136.335373 673.894714,140.842316 
	C673.200562,144.334961 672.635864,147.859207 671.791382,151.315109 
	C666.286438,173.842682 654.652710,192.715088 637.013611,207.653900 
	C620.363159,221.755386 601.189209,230.383560 578.273071,232.022141 
	C575.107788,232.012833 571.942566,232.003525 568.772766,231.168137 
	C568.567688,228.859848 568.188599,226.551941 568.183655,224.243210 
	C568.113586,191.787659 568.094543,159.331970 568.076965,125.960617 
	C569.084656,69.208931 521.022156,19.604460 461.250366,20.760889 
	C403.567566,20.854380 356.206543,68.971283 356.575958,127.640594 
	C356.544861,157.350967 356.513763,187.061356 356.049408,216.682678 
	C355.762878,216.759644 355.471436,216.791306 355.095612,215.971603 
	C354.973053,214.982773 354.915649,213.980774 354.718567,213.007019 
	C344.467285,162.356033 302.833801,127.708305 251.053375,125.979065 
	C250.221802,119.059608 250.093170,111.967674 248.444504,105.248711 
	C237.793076,61.839985 210.661987,34.503437 167.247070,23.758217 
	C160.284348,22.034939 152.898666,22.020538 144.887970,21.124355 
	C144.887970,24.181200 144.901047,26.118526 144.885849,28.055630 
	C144.781479,41.360374 144.671204,54.665073 143.756348,67.988510 
	C140.972641,68.322830 138.184860,68.626419 135.405869,68.996178 
	C104.986168,73.043678 83.312752,103.175728 90.654297,134.095261 
	C95.080475,152.736420 106.572823,166.041214 124.667213,172.638321 
	C142.312927,179.071854 159.284531,176.870987 174.693710,165.812805 
	C187.810242,156.399902 194.859329,143.297852 197.933167,127.202904 
	C215.365463,127.153915 232.797745,127.104935 250.210312,127.984062 
	C250.050781,133.475479 250.523361,139.072784 249.624176,144.440277 
	C245.340439,170.011444 232.473236,190.744217 212.699387,207.206100 
	C197.080872,220.208618 178.753067,227.381393 158.112671,230.904572 
	C155.084442,231.253433 152.056198,231.602310 148.174805,231.882187 
M357.458801,26.141966 
	C358.779663,21.954746 357.679016,19.967110 352.856628,19.990725 
	C326.533112,20.119631 300.208405,20.099985 273.884644,19.997564 
	C270.209656,19.983267 268.928741,21.249872 268.944031,24.944874 
	C269.053619,51.435207 269.078247,77.926651 268.919434,104.416489 
	C268.896088,108.304108 270.234467,109.203239 273.843079,109.079918 
	C288.119598,108.592049 301.397430,104.654617 313.453278,97.190056 
	C339.533051,81.042351 354.986176,58.089706 357.458801,26.141966 
M597.131836,108.350258 
	C597.832764,109.060226 598.496460,109.812073 599.240234,110.473900 
	C612.237549,122.038696 629.817993,122.682152 643.583923,112.109596 
	C655.898621,102.651604 659.794128,84.415710 652.539368,70.186363 
	C645.152893,55.698578 628.612610,48.473808 612.836243,53.094707 
	C589.654663,59.884613 580.233582,88.279915 597.131836,108.350258 
M315.616852,308.856628 
	C317.007751,310.034943 318.315704,311.331818 319.802948,312.372406 
	C329.638458,319.254242 342.699188,318.547546 351.629333,310.710846 
	C360.701965,302.749084 363.076843,289.601196 357.371094,278.923309 
	C351.778809,268.457764 339.704132,263.043701 328.165283,266.146088 
	C308.468781,271.441742 302.986877,294.423859 315.616852,308.856628 
M291.770935,295.945801 
	C291.829895,294.786194 291.989502,293.621552 291.932037,292.467743 
	C291.438507,282.558502 286.642456,275.273926 277.556793,271.593719 
	C268.704590,268.008057 260.273926,269.486633 253.137405,276.266876 
	C245.833420,283.206299 244.212952,291.661774 247.315536,300.902222 
	C250.548859,310.531982 260.315002,316.490997 270.789764,315.876495 
	C280.960388,315.279816 288.850677,308.013977 291.770935,295.945801 
M63.452103,170.228592 
	C62.966228,172.281433 62.265465,174.310852 62.038811,176.391922 
	C61.553173,180.850952 63.338543,184.024994 67.649773,185.800156 
	C71.839691,187.525391 75.682442,186.630707 78.572845,183.685715 
	C81.556450,180.645737 82.848396,176.688171 80.960899,172.310272 
	C78.152275,165.795914 70.781509,164.610611 63.452103,170.228592 
M86.032753,186.733154 
	C81.773895,187.747604 79.299194,190.452850 79.559486,194.814575 
	C79.784752,198.589218 81.911362,201.303696 85.924034,201.960922 
	C90.431648,202.699219 94.275246,199.917389 94.925552,195.537125 
	C95.640366,190.722397 92.676430,187.488739 86.032753,186.733154 
z"/>
<path fill="#8F3EDB" opacity="1.000000" stroke="none" 
	d="
M251.163605,126.814919 
	C302.833801,127.708305 344.467285,162.356033 354.718567,213.007019 
	C354.915649,213.980774 354.973053,214.982773 355.070801,216.824188 
	C355.622101,222.104477 356.198273,226.532196 356.846924,231.182739 
	C357.055267,231.702682 357.074432,232.007126 356.976898,232.318878 
	C354.998535,232.469559 353.020355,232.749023 351.041779,232.751724 
	C316.397766,232.798828 281.753693,232.797623 247.109695,232.849762 
	C242.449936,232.856781 237.790527,233.095413 232.206741,233.120544 
	C207.184052,232.967789 183.085571,232.921310 158.974426,232.561676 
	C158.945999,231.829971 158.930267,231.411407 158.914536,230.992828 
	C178.753067,227.381393 197.080872,220.208618 212.699387,207.206100 
	C232.473236,190.744217 245.340439,170.011444 249.624176,144.440277 
	C250.523361,139.072784 250.050781,133.475479 250.465302,127.507408 
	C250.720291,127.030754 251.163605,126.814919 251.163605,126.814919 
z"/>
<path fill="#68D3DF" opacity="1.000000" stroke="none" 
	d="
M674.695374,140.719742 
	C674.411438,136.335373 674.127502,131.951019 673.843384,127.563278 
	C735.020813,125.271362 783.898621,178.330429 781.654175,233.903564 
	C746.457397,233.903564 711.224304,233.903564 675.536255,233.383255 
	C675.106018,203.121674 675.135132,173.380417 675.135986,143.639145 
	C675.136047,142.666016 674.848755,141.692871 674.695374,140.719742 
z"/>
<path fill="#68D3DF" opacity="1.000000" stroke="none" 
	d="
M144.177933,329.883789 
	C144.177933,332.685059 144.177933,335.486328 144.177933,338.232697 
	C93.110001,342.032684 36.805004,294.643036 38.413105,232.156738 
	C73.254883,232.156738 108.122078,232.156738 143.481415,232.641663 
	C144.041687,265.378998 144.109802,297.631409 144.177933,329.883789 
z"/>
<path fill="#D6D6D7" opacity="1.000000" stroke="none" 
	d="
M567.105774,252.030106 
	C563.969604,268.760040 557.503296,284.018311 546.991516,297.482178 
	C531.039673,317.913757 510.143768,330.622894 485.049988,336.329956 
	C478.024078,337.927887 470.651947,338.003693 463.087891,338.232056 
	C462.743256,307.502472 462.749359,277.318542 462.854828,246.668091 
	C462.676025,241.852829 462.397888,237.504074 462.119751,233.155304 
	C462.112946,232.949127 462.106110,232.742950 462.589050,232.266693 
	C498.311646,231.995834 533.544495,231.995026 568.777283,231.994217 
	C571.942566,232.003525 575.107788,232.012833 578.651550,232.324036 
	C578.708801,233.008881 578.387634,233.391846 577.818970,234.114227 
	C576.461304,234.631393 575.316284,235.077332 574.246948,234.938919 
	C570.284790,234.426147 568.800964,235.826172 568.804688,240.001114 
	C568.808289,244.010269 567.716309,248.020401 567.105774,252.030106 
z"/>
<path fill="#434053" opacity="1.000000" stroke="none" 
	d="
M357.393860,232.459167 
	C357.074432,232.007126 357.055267,231.702682 356.904114,230.721573 
	C356.753479,225.615616 356.618073,221.193680 356.482666,216.771729 
	C356.513763,187.061356 356.544861,157.350967 357.181702,127.282227 
	C392.560059,126.895401 427.332642,126.866936 462.269653,126.938538 
	C462.434052,127.038605 462.818970,127.032845 462.818970,127.032845 
	C461.955353,151.301147 455.084198,173.515671 439.647430,192.557953 
	C418.608154,218.511337 391.151001,231.639999 357.393860,232.459167 
z"/>
<path fill="#BDD5DC" opacity="1.000000" stroke="none" 
	d="
M463.287842,127.006226 
	C462.818970,127.032845 462.434052,127.038605 462.289703,126.484665 
	C462.163239,90.920181 462.181122,55.909645 462.199036,20.899107 
	C521.022156,19.604460 569.084656,69.208931 567.642761,126.448547 
	C565.789246,126.921989 564.369934,126.907501 562.657715,126.623634 
	C559.219421,126.256332 556.074036,126.158417 552.928589,126.060501 
	C523.204651,126.366875 493.480682,126.673241 463.287842,127.006226 
z"/>
<path fill="#6265AC" opacity="1.000000" stroke="none" 
	d="
M461.724701,20.829998 
	C462.181122,55.909645 462.163239,90.920181 462.125305,126.384598 
	C427.332642,126.866936 392.560059,126.895401 357.307861,126.886711 
	C356.206543,68.971283 403.567566,20.854380 461.724701,20.829998 
z"/>
<path fill="#9395BC" opacity="1.000000" stroke="none" 
	d="
M251.108490,126.396988 
	C251.163605,126.814919 250.720291,127.030754 250.475159,127.043350 
	C232.797745,127.104935 215.365463,127.153915 197.027222,127.189987 
	C191.783340,127.245285 187.445374,127.313515 182.640366,127.265457 
	C171.508759,127.117462 160.840073,126.903381 150.181763,127.145813 
	C146.049057,127.239807 144.779755,126.043190 144.828629,121.848366 
	C144.983795,108.530266 144.705444,95.207108 144.691666,81.438957 
	C144.713379,76.651268 144.638092,72.310524 144.562820,67.969788 
	C144.671204,54.665073 144.781479,41.360374 144.885849,28.055630 
	C144.901047,26.118526 144.887970,24.181200 144.887970,21.124355 
	C152.898666,22.020538 160.284348,22.034939 167.247070,23.758217 
	C210.661987,34.503437 237.793076,61.839985 248.444504,105.248711 
	C250.093170,111.967674 250.221802,119.059608 251.108490,126.396988 
z"/>
<path fill="#C997FA" opacity="1.000000" stroke="none" 
	d="
M562.950623,126.893021 
	C564.369934,126.907501 565.789246,126.921989 567.635803,126.906403 
	C568.094543,159.331970 568.113586,191.787659 568.183655,224.243210 
	C568.188599,226.551941 568.567688,228.859848 568.775024,231.581177 
	C533.544495,231.995026 498.311646,231.995834 462.630096,231.959991 
	C463.301025,219.863586 464.572998,207.866043 468.961304,196.394058 
	C481.619568,163.302475 504.870911,141.570663 538.635071,131.078674 
	C543.050781,129.706512 547.667786,128.982086 553.027222,127.952240 
	C556.892151,127.595551 559.921387,127.244286 562.950623,126.893021 
z"/>
<path fill="#BCF3F7" opacity="1.000000" stroke="none" 
	d="
M357.328522,26.561094 
	C354.986176,58.089706 339.533051,81.042351 313.453278,97.190056 
	C301.397430,104.654617 288.119598,108.592049 273.843079,109.079918 
	C270.234467,109.203239 268.896088,108.304108 268.919434,104.416489 
	C269.078247,77.926651 269.053619,51.435207 268.944031,24.944874 
	C268.928741,21.249872 270.209656,19.983267 273.884644,19.997564 
	C300.208405,20.099985 326.533112,20.119631 352.856628,19.990725 
	C357.679016,19.967110 358.779663,21.954746 357.328522,26.561094 
z"/>
<path fill="#E2B143" opacity="1.000000" stroke="none" 
	d="
M596.903992,108.074043 
	C580.233582,88.279915 589.654663,59.884613 612.836243,53.094707 
	C628.612610,48.473808 645.152893,55.698578 652.539368,70.186363 
	C659.794128,84.415710 655.898621,102.651604 643.583923,112.109596 
	C629.817993,122.682152 612.237549,122.038696 599.240234,110.473900 
	C598.496460,109.812073 597.832764,109.060226 596.903992,108.074043 
z"/>
<path fill="#FAFAFA" opacity="1.000000" stroke="none" 
	d="
M183.107422,127.381737 
	C187.445374,127.313515 191.783340,127.245285 196.574646,127.305527 
	C194.859329,143.297852 187.810242,156.399902 174.693710,165.812805 
	C159.284531,176.870987 142.312927,179.071854 124.667213,172.638321 
	C106.572823,166.041214 95.080475,152.736420 90.654297,134.095261 
	C83.312752,103.175728 104.986168,73.043678 135.405869,68.996178 
	C138.184860,68.626419 140.972641,68.322830 144.159576,67.979149 
	C144.638092,72.310524 144.713379,76.651268 144.275482,81.469376 
	C126.022659,81.705193 113.776237,90.381905 106.159210,105.821877 
	C99.203789,119.920761 103.094360,140.313644 114.620056,151.017502 
	C124.931686,160.593872 137.041946,164.475540 151.202484,162.018951 
	C167.134735,159.255005 181.984253,143.427078 183.107422,127.381737 
z"/>
<path fill="#6366AD" opacity="1.000000" stroke="none" 
	d="
M462.755493,247.134598 
	C462.749359,277.318542 462.743256,307.502472 462.642761,338.108459 
	C432.440491,338.537750 402.332672,338.544952 371.710114,338.270599 
	C371.113892,337.644379 371.032379,337.299713 370.950867,336.955048 
	C392.098480,333.383148 410.930237,324.919067 427.007965,310.555756 
	C445.857056,293.716614 456.849365,272.641602 461.357391,247.458664 
	C462.050781,247.088318 462.403137,247.111465 462.755493,247.134598 
z"/>
<path fill="#464356" opacity="1.000000" stroke="none" 
	d="
M578.066406,233.774811 
	C578.387634,233.391846 578.708801,233.008881 579.121094,232.392242 
	C601.189209,230.383560 620.363159,221.755386 637.013611,207.653900 
	C654.652710,192.715088 666.286438,173.842682 671.791382,151.315109 
	C672.635864,147.859207 673.200562,144.334961 674.295044,140.781036 
	C674.848755,141.692871 675.136047,142.666016 675.135986,143.639145 
	C675.135132,173.380417 675.106018,203.121674 675.078247,233.310699 
	C667.362000,233.840759 659.648743,233.923080 651.024658,233.988892 
	C626.098022,233.906525 602.082214,233.840668 578.066406,233.774811 
z"/>
<path fill="#C999FA" opacity="1.000000" stroke="none" 
	d="
M144.404785,329.576355 
	C144.109802,297.631409 144.041687,265.378998 143.942230,232.682922 
	C145.332199,232.120224 146.753494,232.001205 148.879944,232.211594 
	C152.719086,232.652267 155.853088,232.763535 158.987106,232.874817 
	C183.085571,232.921310 207.184052,232.967789 231.753967,233.158844 
	C230.477951,233.934784 228.773438,234.749741 226.976608,235.170258 
	C195.794815,242.468292 172.059998,259.902039 156.715927,287.992340 
	C149.763092,300.720856 145.389862,314.553528 144.404785,329.576355 
z"/>
<path fill="#E9FBFD" opacity="1.000000" stroke="none" 
	d="
M577.818970,234.114227 
	C602.082214,233.840668 626.098022,233.906525 650.569641,234.100632 
	C649.726807,235.427200 648.601379,237.358643 647.103271,237.712540 
	C628.274170,242.160446 612.415405,251.730774 599.064697,265.497742 
	C584.349426,280.671722 575.163086,298.821777 570.988342,319.525757 
	C570.863159,320.146454 570.695862,320.758636 569.418274,321.471161 
	C569.277710,319.894653 569.016968,318.318329 569.014771,316.741608 
	C568.986694,296.916779 569.022949,277.091797 568.946838,257.267212 
	C568.940369,255.581024 568.247986,253.897476 567.489990,252.121399 
	C567.716309,248.020401 568.808289,244.010269 568.804688,240.001114 
	C568.800964,235.826172 570.284790,234.426147 574.246948,234.938919 
	C575.316284,235.077332 576.461304,234.631393 577.818970,234.114227 
z"/>
<path fill="#6466AD" opacity="1.000000" stroke="none" 
	d="
M315.376221,308.592590 
	C302.986877,294.423859 308.468781,271.441742 328.165283,266.146088 
	C339.704132,263.043701 351.778809,268.457764 357.371094,278.923309 
	C363.076843,289.601196 360.701965,302.749084 351.629333,310.710846 
	C342.699188,318.547546 329.638458,319.254242 319.802948,312.372406 
	C318.315704,311.331818 317.007751,310.034943 315.376221,308.592590 
z"/>
<path fill="#6AD4E0" opacity="1.000000" stroke="none" 
	d="
M291.659576,296.353333 
	C288.850677,308.013977 280.960388,315.279816 270.789764,315.876495 
	C260.315002,316.490997 250.548859,310.531982 247.315536,300.902222 
	C244.212952,291.661774 245.833420,283.206299 253.137405,276.266876 
	C260.273926,269.486633 268.704590,268.008057 277.556793,271.593719 
	C286.642456,275.273926 291.438507,282.558502 291.932037,292.467743 
	C291.989502,293.621552 291.829895,294.786194 291.659576,296.353333 
z"/>
<path fill="#EAFBFD" opacity="1.000000" stroke="none" 
	d="
M63.699806,169.920715 
	C70.781509,164.610611 78.152275,165.795914 80.960899,172.310272 
	C82.848396,176.688171 81.556450,180.645737 78.572845,183.685715 
	C75.682442,186.630707 71.839691,187.525391 67.649773,185.800156 
	C63.338543,184.024994 61.553173,180.850952 62.038811,176.391922 
	C62.265465,174.310852 62.966228,172.281433 63.699806,169.920715 
z"/>
<path fill="#686BB0" opacity="1.000000" stroke="none" 
	d="
M86.390038,186.673920 
	C92.676430,187.488739 95.640366,190.722397 94.925552,195.537125 
	C94.275246,199.917389 90.431648,202.699219 85.924034,201.960922 
	C81.911362,201.303696 79.784752,198.589218 79.559486,194.814575 
	C79.299194,190.452850 81.773895,187.747604 86.390038,186.673920 
z"/>
<path fill="#B5B6D9" opacity="1.000000" stroke="none" 
	d="
M370.494110,336.907776 
	C371.032379,337.299713 371.113892,337.644379 371.265808,338.244080 
	C366.894653,338.715424 362.453125,338.931732 358.011566,339.148041 
	C357.960785,338.596252 357.909973,338.044434 357.859192,337.492645 
	C361.918579,337.281952 365.977966,337.071228 370.494110,336.907776 
z"/>
<path fill="#8F91C2" opacity="1.000000" stroke="none" 
	d="
M462.854828,246.668091 
	C462.403137,247.111465 462.050781,247.088318 461.432617,247.064911 
	C461.463562,242.709335 461.760345,238.354034 462.088440,233.577026 
	C462.397888,237.504074 462.676025,241.852829 462.854828,246.668091 
z"/>
<path fill="#AD91CA" opacity="1.000000" stroke="none" 
	d="
M356.266052,216.727203 
	C356.618073,221.193680 356.753479,225.615616 356.831635,230.498749 
	C356.198273,226.532196 355.622101,222.104477 355.110535,217.227203 
	C355.471436,216.791306 355.762878,216.759644 356.266052,216.727203 
z"/>
<path fill="#D6D6D7" opacity="1.000000" stroke="none" 
	d="
M562.657715,126.623642 
	C559.921387,127.244286 556.892151,127.595551 553.439575,127.907974 
	C553.003357,127.466850 552.990479,127.064552 552.953125,126.361382 
	C556.074036,126.158417 559.219421,126.256332 562.657715,126.623642 
z"/>
<path fill="#AD91CA" opacity="1.000000" stroke="none" 
	d="
M158.974426,232.561676 
	C155.853088,232.763535 152.719086,232.652267 149.306519,232.246094 
	C152.056198,231.602310 155.084442,231.253433 158.513611,230.948700 
	C158.930267,231.411407 158.945999,231.829971 158.974426,232.561676 
z"/>
<path fill="#E4E4E5" opacity="1.000000" stroke="none" 
	d="
M182.640366,127.265457 
	C181.984253,143.427078 167.134735,159.255005 151.202484,162.018951 
	C137.041946,164.475540 124.931686,160.593872 114.620056,151.017502 
	C103.094360,140.313644 99.203789,119.920761 106.159210,105.821877 
	C113.776237,90.381905 126.022659,81.705193 144.178482,81.916336 
	C144.705444,95.207108 144.983795,108.530266 144.828629,121.848366 
	C144.779755,126.043190 146.049057,127.239807 150.181763,127.145813 
	C160.840073,126.903381 171.508759,127.117462 182.640366,127.265457 
z"/>
</svg>