<?xml version="1.0" encoding="UTF-8"?>
<!DOCTYPE svg PUBLIC "-//W3C//DTD SVG 1.1//EN" "http://www.w3.org/Graphics/SVG/1.1/DTD/svg11.dtd">
<svg xmlns="http://www.w3.org/2000/svg" version="1.1" width="808px" height="367px" style="shape-rendering:geometricPrecision; text-rendering:geometricPrecision; image-rendering:optimizeQuality; fill-rule:evenodd; clip-rule:evenodd" xmlns:xlink="http://www.w3.org/1999/xlink">
<g><path style="opacity:1" fill="#fefefe" d="M -0.5,-0.5 C 268.833,-0.5 538.167,-0.5 807.5,-0.5C 807.5,121.833 807.5,244.167 807.5,366.5C 538.167,366.5 268.833,366.5 -0.5,366.5C -0.5,244.167 -0.5,121.833 -0.5,-0.5 Z"/></g>
<g><path style="opacity:1" fill="#c9cbe3" d="M 460.5,19.5 C 455.463,19.4126 450.463,19.746 445.5,20.5C 448.186,19.0092 451.186,18.3425 454.5,18.5C 456.696,18.5046 458.696,18.838 460.5,19.5 Z"/></g>
<g><path style="opacity:1" fill="#bbf3f7" d="M 267.5,18.5 C 297.167,18.5 326.833,18.5 356.5,18.5C 353.316,64.4028 329.649,93.5695 285.5,106C 279.555,107.162 273.555,107.662 267.5,107.5C 267.5,77.8333 267.5,48.1667 267.5,18.5 Z"/></g>
<g><path style="opacity:1" fill="#6164ac" d="M 460.5,19.5 C 460.5,54.8333 460.5,90.1667 460.5,125.5C 425.5,125.5 390.5,125.5 355.5,125.5C 355.5,123.167 355.5,120.833 355.5,118.5C 358.548,80.2941 376.548,51.4608 409.5,32C 420.936,26.2429 432.936,22.4096 445.5,20.5C 450.463,19.746 455.463,19.4126 460.5,19.5 Z"/></g>
<g><path style="opacity:1" fill="#bcd4db" d="M 460.5,19.5 C 515.632,22.458 550.466,50.458 565,103.5C 565.892,110.476 566.392,117.476 566.5,124.5C 562.833,124.5 559.167,124.5 555.5,124.5C 524.167,124.5 492.833,124.5 461.5,124.5C 461.81,127.713 461.477,130.713 460.5,133.5C 460.5,130.833 460.5,128.167 460.5,125.5C 460.5,90.1667 460.5,54.8333 460.5,19.5 Z"/></g>
<g><path style="opacity:1" fill="#a1a2c4" d="M 144.5,20.5 C 144.5,55.1667 144.5,89.8333 144.5,124.5C 179.167,124.5 213.833,124.5 248.5,124.5C 248.5,121.833 248.5,119.167 248.5,116.5C 249.473,118.948 249.806,121.615 249.5,124.5C 252.385,124.194 255.052,124.527 257.5,125.5C 257.167,125.5 256.833,125.5 256.5,125.5C 254.167,125.5 251.833,125.5 249.5,125.5C 249.167,125.5 248.833,125.5 248.5,125.5C 213.5,125.5 178.5,125.5 143.5,125.5C 143.168,90.3294 143.502,55.3294 144.5,20.5 Z"/></g>
<g><path style="opacity:1" fill="#9294bc" d="M 144.5,20.5 C 148.5,20.5 152.5,20.5 156.5,20.5C 203.885,28.7139 234.052,56.0473 247,102.5C 247.829,107.137 248.329,111.804 248.5,116.5C 248.5,119.167 248.5,121.833 248.5,124.5C 213.833,124.5 179.167,124.5 144.5,124.5C 144.5,89.8333 144.5,55.1667 144.5,20.5 Z"/></g>
<g><path style="opacity:1" fill="#e2b043" d="M 628.5,116.5 C 621.798,116.664 615.131,116.331 608.5,115.5C 598.285,111.466 591.452,104.133 588,93.5C 584.289,75.4262 590.455,61.9262 606.5,53C 624.34,46.9929 638.84,51.4929 650,66.5C 657.901,83.3956 655.067,98.229 641.5,111C 637.61,113.947 633.277,115.78 628.5,116.5 Z"/></g>
<g><path style="opacity:1" fill="#e5e5e5" d="M 142.5,80.5 C 142.5,95.8333 142.5,111.167 142.5,126.5C 155.5,126.5 168.5,126.5 181.5,126.5C 177.957,144.204 167.624,155.704 150.5,161C 138.989,163.11 128.322,161.11 118.5,155C 116,151.167 112.833,148 109,145.5C 95.1189,120.848 99.6189,100.514 122.5,84.5C 128.973,82.1179 135.64,80.7845 142.5,80.5 Z"/></g>
<g><path style="opacity:1" fill="#ebc678" d="M 608.5,115.5 C 615.131,116.331 621.798,116.664 628.5,116.5C 625.983,117.973 623.15,118.64 620,118.5C 615.745,118.646 611.912,117.646 608.5,115.5 Z"/></g>
<g><path style="opacity:1" fill="#d0d1de" d="M 156.5,20.5 C 152.5,20.5 148.5,20.5 144.5,20.5C 143.502,55.3294 143.168,90.3294 143.5,125.5C 178.5,125.5 213.5,125.5 248.5,125.5C 248.5,125.833 248.5,126.167 248.5,126.5C 226.167,126.5 203.833,126.5 181.5,126.5C 168.5,126.5 155.5,126.5 142.5,126.5C 142.5,111.167 142.5,95.8333 142.5,80.5C 142.5,60.1667 142.5,39.8333 142.5,19.5C 147.363,19.1805 152.03,19.5139 156.5,20.5 Z"/></g>
<g><path style="opacity:1" fill="#cda9ef" d="M 256.5,125.5 C 256.833,125.5 257.167,125.5 257.5,125.5C 263.503,125.333 269.17,126.333 274.5,128.5C 268.31,127.857 262.31,126.857 256.5,125.5 Z"/></g>
<g><path style="opacity:1" fill="#a6a3b1" d="M 355.5,118.5 C 355.5,120.833 355.5,123.167 355.5,125.5C 355.5,159.167 355.5,192.833 355.5,226.5C 355.167,226.5 354.833,226.5 354.5,226.5C 354.448,222.802 354.114,219.135 353.5,215.5C 354.167,183.167 354.833,150.833 355.5,118.5 Z"/></g>
<g><path style="opacity:1" fill="#423f52" d="M 355.5,125.5 C 390.5,125.5 425.5,125.5 460.5,125.5C 460.5,128.167 460.5,130.833 460.5,133.5C 453.624,183.535 425.957,215.368 377.5,229C 375.19,229.497 372.857,229.663 370.5,229.5C 365.473,229.503 360.473,229.836 355.5,230.5C 355.5,229.167 355.5,227.833 355.5,226.5C 355.5,192.833 355.5,159.167 355.5,125.5 Z"/></g>
<g><path style="opacity:1" fill="#c997f9" d="M 566.5,230.5 C 531.5,230.5 496.5,230.5 461.5,230.5C 461.5,227.5 461.5,224.5 461.5,221.5C 467.513,175.316 492.513,144.483 536.5,129C 541.254,127.111 546.254,126.278 551.5,126.5C 556.473,125.836 561.473,125.503 566.5,125.5C 566.5,160.5 566.5,195.5 566.5,230.5 Z"/></g>
<g><path style="opacity:1" fill="#e1c8fa" d="M 555.5,124.5 C 559.167,124.5 562.833,124.5 566.5,124.5C 567.498,159.663 567.832,194.996 567.5,230.5C 567.167,230.5 566.833,230.5 566.5,230.5C 566.5,195.5 566.5,160.5 566.5,125.5C 561.473,125.503 556.473,125.836 551.5,126.5C 552.833,125.833 554.167,125.167 555.5,124.5 Z"/></g>
<g><path style="opacity:1" fill="#8e3ddb" d="M 249.5,125.5 C 251.833,125.5 254.167,125.5 256.5,125.5C 262.31,126.857 268.31,127.857 274.5,128.5C 275.568,129.434 276.901,129.768 278.5,129.5C 281.939,131.204 285.605,132.538 289.5,133.5C 325.415,149.419 346.749,176.753 353.5,215.5C 354.114,219.135 354.448,222.802 354.5,226.5C 354.5,227.833 354.5,229.167 354.5,230.5C 314.833,230.5 275.167,230.5 235.5,230.5C 209.831,230.667 184.165,230.5 158.5,230C 159.737,229.768 160.737,229.268 161.5,228.5C 205.534,218.796 234.201,192.462 247.5,149.5C 248.302,148.048 248.802,146.382 249,144.5C 249.5,138.175 249.666,131.842 249.5,125.5 Z"/></g>
<g><path style="opacity:1" fill="#68d3df" d="M 674.5,125.5 C 720.432,128.199 753.265,150.199 773,191.5C 777.958,204.697 780.458,218.364 780.5,232.5C 745.167,232.5 709.833,232.5 674.5,232.5C 674.5,196.833 674.5,161.167 674.5,125.5 Z"/></g>
<g><path style="opacity:1" fill="#d2b0f0" d="M 278.5,129.5 C 282.708,129.677 286.374,131.01 289.5,133.5C 285.605,132.538 281.939,131.204 278.5,129.5 Z"/></g>
<g><path style="opacity:1" fill="#77a6b2" d="M 674.5,125.5 C 674.5,161.167 674.5,196.833 674.5,232.5C 674.167,232.5 673.833,232.5 673.5,232.5C 673.5,232.167 673.5,231.833 673.5,231.5C 673.832,198.662 673.498,165.996 672.5,133.5C 671.964,130.302 672.631,127.635 674.5,125.5 Z"/></g>
<g><path style="opacity:1" fill="#aa6de4" d="M 248.5,125.5 C 248.833,125.5 249.167,125.5 249.5,125.5C 249.666,131.842 249.5,138.175 249,144.5C 248.802,146.382 248.302,148.048 247.5,149.5C 248.143,141.85 248.477,134.183 248.5,126.5C 248.5,126.167 248.5,125.833 248.5,125.5 Z"/></g>
<g><path style="opacity:1" fill="#444154" d="M 672.5,133.5 C 673.498,165.996 673.832,198.662 673.5,231.5C 643.165,231.667 612.832,231.5 582.5,231C 584.058,230.79 585.391,230.29 586.5,229.5C 631.225,219.276 659.391,191.943 671,147.5C 671.435,142.816 671.935,138.149 672.5,133.5 Z"/></g>
<g><path style="opacity:1" fill="#eafbfd" d="M 66.5,164.5 C 76.2654,164.099 80.7654,168.765 80,178.5C 74.0778,187.434 67.7444,187.767 61,179.5C 58.9583,172.873 60.7916,167.873 66.5,164.5 Z"/></g>
<g><path style="opacity:1" fill="#676aaf" d="M 83.5,185.5 C 90.6757,185.173 93.8423,188.506 93,195.5C 88.7481,201.653 84.0814,201.986 79,196.5C 78.3333,193.833 78.3333,191.167 79,188.5C 80.4087,187.219 81.9087,186.219 83.5,185.5 Z"/></g>
<g><path style="opacity:1" fill="#a764e7" d="M 161.5,228.5 C 160.737,229.268 159.737,229.768 158.5,230C 184.165,230.5 209.831,230.667 235.5,230.5C 235.5,230.833 235.5,231.167 235.5,231.5C 234.167,231.5 232.833,231.5 231.5,231.5C 203.328,231.831 175.328,231.498 147.5,230.5C 150.059,230.802 152.393,230.468 154.5,229.5C 156.764,228.781 159.097,228.448 161.5,228.5 Z"/></g>
<g><path style="opacity:1" fill="#b582e6" d="M 354.5,226.5 C 354.833,226.5 355.167,226.5 355.5,226.5C 355.5,227.833 355.5,229.167 355.5,230.5C 355.5,230.833 355.5,231.167 355.5,231.5C 315.5,231.5 275.5,231.5 235.5,231.5C 235.5,231.167 235.5,230.833 235.5,230.5C 275.167,230.5 314.833,230.5 354.5,230.5C 354.5,229.167 354.5,227.833 354.5,226.5 Z"/></g>
<g><path style="opacity:1" fill="#9997a2" d="M 370.5,229.5 C 365.75,231.031 360.75,231.698 355.5,231.5C 355.5,231.167 355.5,230.833 355.5,230.5C 360.473,229.836 365.473,229.503 370.5,229.5 Z"/></g>
<g><path style="opacity:1" fill="#d3bde8" d="M 461.5,221.5 C 461.5,224.5 461.5,227.5 461.5,230.5C 496.5,230.5 531.5,230.5 566.5,230.5C 531.671,231.498 496.671,231.832 461.5,231.5C 461.167,231.5 460.833,231.5 460.5,231.5C 460.187,227.958 460.521,224.625 461.5,221.5 Z"/></g>
<g><path style="opacity:1" fill="#67d3df" d="M 36.5,231.5 C 71.5,231.5 106.5,231.5 141.5,231.5C 141.5,266.5 141.5,301.5 141.5,336.5C 134.485,336.422 127.485,336.089 120.5,335.5C 76.2586,324.07 48.7586,296.07 38,251.5C 36.8626,244.88 36.3626,238.214 36.5,231.5 Z"/></g>
<g><path style="opacity:1" fill="#88dbe5" d="M 36.5,231.5 C 71.6627,230.502 106.996,230.168 142.5,230.5C 142.5,261.5 142.5,292.5 142.5,323.5C 142.5,328.167 142.5,332.833 142.5,337.5C 134.921,337.906 127.588,337.239 120.5,335.5C 127.485,336.089 134.485,336.422 141.5,336.5C 141.5,301.5 141.5,266.5 141.5,231.5C 106.5,231.5 71.5,231.5 36.5,231.5 Z"/></g>
<g><path style="opacity:1" fill="#bea6f5" d="M 154.5,229.5 C 152.393,230.468 150.059,230.802 147.5,230.5C 146.417,230.539 145.417,230.873 144.5,231.5C 143.171,259.997 143.171,288.33 144.5,316.5C 143.935,318.952 143.268,321.285 142.5,323.5C 142.5,292.5 142.5,261.5 142.5,230.5C 146.298,229.517 150.298,229.183 154.5,229.5 Z"/></g>
<g><path style="opacity:1" fill="#c997fa" d="M 147.5,230.5 C 175.328,231.498 203.328,231.831 231.5,231.5C 192.197,239.602 164.697,262.269 149,299.5C 146.779,304.993 145.279,310.66 144.5,316.5C 143.171,288.33 143.171,259.997 144.5,231.5C 145.417,230.873 146.417,230.539 147.5,230.5 Z"/></g>
<g><path style="opacity:1" fill="#d5d6d6" d="M 566.5,230.5 C 566.833,230.5 567.167,230.5 567.5,230.5C 571.5,230.5 575.5,230.5 579.5,230.5C 577.031,231.317 574.365,231.817 571.5,232C 605.498,232.5 639.498,232.667 673.5,232.5C 673.833,232.5 674.167,232.5 674.5,232.5C 669.36,233.488 664.026,233.821 658.5,233.5C 627.815,232.841 597.482,233.508 567.5,235.5C 562.418,288.078 534.418,321.244 483.5,335C 476.214,336.186 468.881,336.686 461.5,336.5C 461.5,301.5 461.5,266.5 461.5,231.5C 496.671,231.832 531.671,231.498 566.5,230.5 Z"/></g>
<g><path style="opacity:1" fill="#757986" d="M 586.5,229.5 C 585.391,230.29 584.058,230.79 582.5,231C 612.832,231.5 643.165,231.667 673.5,231.5C 673.5,231.833 673.5,232.167 673.5,232.5C 639.498,232.667 605.498,232.5 571.5,232C 574.365,231.817 577.031,231.317 579.5,230.5C 581.764,229.781 584.097,229.448 586.5,229.5 Z"/></g>
<g><path style="opacity:1" fill="#e9fbfd" d="M 658.5,233.5 C 607.525,243.31 577.359,273.977 568,325.5C 567.5,295.502 567.333,265.502 567.5,235.5C 597.482,233.508 627.815,232.841 658.5,233.5 Z"/></g>
<g><path style="opacity:1" fill="#8d8fc1" d="M 460.5,231.5 C 460.833,231.5 461.167,231.5 461.5,231.5C 461.5,266.5 461.5,301.5 461.5,336.5C 461.167,336.5 460.833,336.5 460.5,336.5C 460.831,305.995 460.498,275.662 459.5,245.5C 460.229,240.87 460.563,236.203 460.5,231.5 Z"/></g>
<g><path style="opacity:1" fill="#6366ad" d="M 459.5,245.5 C 460.498,275.662 460.831,305.995 460.5,336.5C 429.832,336.667 399.165,336.5 368.5,336C 372.133,335.851 375.466,335.018 378.5,333.5C 417.481,322.847 443.481,298.514 456.5,260.5C 458.956,256.262 459.956,251.596 459.5,246.5C 459.5,246.167 459.5,245.833 459.5,245.5 Z"/></g>
<g><path style="opacity:1" fill="#9192c5" d="M 459.5,246.5 C 459.956,251.596 458.956,256.262 456.5,260.5C 457.509,255.717 458.509,251.05 459.5,246.5 Z"/></g>
<g><path style="opacity:1" fill="#6265ac" d="M 344.5,312.5 C 337.618,314.767 330.618,315.1 323.5,313.5C 310.478,307.347 305.311,297.014 308,282.5C 316.585,263.967 330.085,259.467 348.5,269C 358.804,277.957 361.304,288.79 356,301.5C 353.615,306.719 349.782,310.386 344.5,312.5 Z"/></g>
<g><path style="opacity:1" fill="#6bd4df" d="M 259.5,268.5 C 280.215,266.724 290.382,276.057 290,296.5C 284.994,310.421 275.161,316.255 260.5,314C 245.615,306.406 241.281,294.906 247.5,279.5C 250.921,275.074 254.921,271.407 259.5,268.5 Z"/></g>
<g><path style="opacity:1" fill="#999ac9" d="M 344.5,312.5 C 343.653,313.966 342.32,314.8 340.5,315C 335.5,315.667 330.5,315.667 325.5,315C 324.584,314.722 323.918,314.222 323.5,313.5C 330.618,315.1 337.618,314.767 344.5,312.5 Z"/></g>
<g><path style="opacity:1" fill="#b7b8d9" d="M 378.5,333.5 C 375.466,335.018 372.133,335.851 368.5,336C 399.165,336.5 429.832,336.667 460.5,336.5C 460.833,336.5 461.167,336.5 461.5,336.5C 426.331,337.83 390.998,337.83 355.5,336.5C 363.181,335.555 370.848,334.555 378.5,333.5 Z"/></g>
</svg>
