<?xml version="1.0" encoding="UTF-8"?>
<!DOCTYPE svg PUBLIC "-//W3C//DTD SVG 1.1//EN" "http://www.w3.org/Graphics/SVG/1.1/DTD/svg11.dtd">
<svg xmlns="http://www.w3.org/2000/svg" version="1.1" width="106px" height="106px" style="shape-rendering:geometricPrecision; text-rendering:geometricPrecision; image-rendering:optimizeQuality; fill-rule:evenodd; clip-rule:evenodd" xmlns:xlink="http://www.w3.org/1999/xlink">
<g><path style="opacity:1" fill="#bbf1f6" d="M -0.5,-0.5 C 34.8333,-0.5 70.1667,-0.5 105.5,-0.5C 105.5,34.8333 105.5,70.1667 105.5,105.5C 70.1667,105.5 34.8333,105.5 -0.5,105.5C -0.5,70.1667 -0.5,34.8333 -0.5,-0.5 Z"/></g>
<g><path style="opacity:1" fill="#8f42f3" d="M 53.5,11.5 C 56.488,11.1547 57.8213,12.488 57.5,15.5C 57.8213,18.512 56.488,19.8453 53.5,19.5C 53.5,16.8333 53.5,14.1667 53.5,11.5 Z"/></g>
<g><path style="opacity:1" fill="#8c39f3" d="M 34.5,16.5 C 35.8221,16.33 36.9887,16.6634 38,17.5C 39.6747,19.5912 40.1747,21.7579 39.5,24C 36.3029,22.838 34.6362,20.338 34.5,16.5 Z"/></g>
<g><path style="opacity:1" fill="#8d3cf3" d="M 73.5,16.5 C 74.5,16.5 75.5,16.5 76.5,16.5C 75.8601,19.7741 74.1934,22.4408 71.5,24.5C 70.3465,21.4469 71.0132,18.7803 73.5,16.5 Z"/></g>
<g><path style="opacity:1" fill="#fdbdbd" d="M 65.5,79.5 C 65.1667,79.5 64.8333,79.5 64.5,79.5C 62.5953,72.7808 61.9287,65.7808 62.5,58.5C 64.2535,55.3483 65.0869,52.015 65,48.5C 61.9735,43.8224 58.6401,39.4891 55,35.5C 53.779,36.2718 52.779,37.2718 52,38.5C 49.5621,42.3773 47.3955,46.3773 45.5,50.5C 48.2802,59.9192 49.2802,69.5859 48.5,79.5C 47.209,79.2627 46.209,79.596 45.5,80.5C 44.08,78.1137 43.08,75.447 42.5,72.5C 31.0986,63.8974 27.9319,52.8974 33,39.5C 44.892,24.0533 58.5586,22.3866 74,34.5C 80.9746,44.8577 81.308,55.5243 75,66.5C 72.9327,69.07 70.4327,71.07 67.5,72.5C 66.8319,74.9688 66.1653,77.3021 65.5,79.5 Z"/></g>
<g><path style="opacity:1" fill="#8c3af3" d="M 20.5,30.5 C 23.0163,30.7553 25.3496,31.5886 27.5,33C 28.8213,34.5445 28.4879,35.7112 26.5,36.5C 23.4098,35.4106 21.4098,33.4106 20.5,30.5 Z"/></g>
<g><path style="opacity:1" fill="#8c3af3" d="M 86.5,30.5 C 87.8333,30.5 89.1667,30.5 90.5,30.5C 90.719,31.675 90.3857,32.675 89.5,33.5C 87.5866,34.373 85.7533,35.373 84,36.5C 83.3076,35.9747 82.8076,35.3081 82.5,34.5C 83.5487,32.7844 84.882,31.4511 86.5,30.5 Z"/></g>
<g><path style="opacity:1" fill="#8a28f1" d="M 62.5,58.5 C 61.5088,65.3134 61.1755,72.3134 61.5,79.5C 62.5,79.5 63.5,79.5 64.5,79.5C 64.8333,79.5 65.1667,79.5 65.5,79.5C 67.6657,93.1658 61.9991,98.3325 48.5,95C 47.6667,94.1667 46.8333,93.3333 46,92.5C 45.5012,88.5138 45.3345,84.5138 45.5,80.5C 46.209,79.596 47.209,79.2627 48.5,79.5C 49.2802,69.5859 48.2802,59.9192 45.5,50.5C 47.3955,46.3773 49.5621,42.3773 52,38.5C 52.779,37.2718 53.779,36.2718 55,35.5C 58.6401,39.4891 61.9735,43.8224 65,48.5C 65.0869,52.015 64.2535,55.3483 62.5,58.5 Z"/></g>
<g><path style="opacity:1" fill="#b8e4f6" d="M 52.5,43.5 C 53.7157,45.8474 53.7157,48.3474 52.5,51C 53.3333,53.5 54.8333,54 57,52.5C 56.7207,42.7436 58.2207,42.2436 61.5,51C 60.3306,57.0182 56.8306,58.8516 51,56.5C 50.296,54.7216 49.796,52.8882 49.5,51C 50.1086,48.2915 51.1086,45.7915 52.5,43.5 Z"/></g>
<g><path style="opacity:1" fill="#8726f3" d="M 15.5,49.5 C 18.1667,49.5 20.8333,49.5 23.5,49.5C 23.5,50.5 23.5,51.5 23.5,52.5C 20.8333,52.5 18.1667,52.5 15.5,52.5C 15.5,51.5 15.5,50.5 15.5,49.5 Z"/></g>
<g><path style="opacity:1" fill="#882cf3" d="M 87.5,49.5 C 90.3965,49.1253 93.0632,49.6253 95.5,51C 92.6513,52.7273 89.6513,52.894 86.5,51.5C 86.8627,50.8165 87.1961,50.1499 87.5,49.5 Z"/></g>
<g><path style="opacity:1" fill="#a28df5" d="M 58.5,61.5 C 56.5,61.5 54.5,61.5 52.5,61.5C 52.5,64.8333 52.5,68.1667 52.5,71.5C 51.5184,68.0381 51.185,64.3714 51.5,60.5C 54.0593,60.1984 56.3926,60.5318 58.5,61.5 Z"/></g>
<g><path style="opacity:1" fill="#b9eef6" d="M 58.5,61.5 C 58.5,64.8333 58.5,68.1667 58.5,71.5C 56.5,71.5 54.5,71.5 52.5,71.5C 52.5,68.1667 52.5,64.8333 52.5,61.5C 54.5,61.5 56.5,61.5 58.5,61.5 Z"/></g>
<g><path style="opacity:1" fill="#8a33f3" d="M 82.5,66.5 C 85.8333,66.4999 88.4999,67.8332 90.5,70.5C 88.0407,71.643 85.7073,71.3096 83.5,69.5C 82.6143,68.675 82.281,67.675 82.5,66.5 Z"/></g>
<g><path style="opacity:1" fill="#8b36f3" d="M 24.5,66.5 C 29.4721,67.193 29.4721,68.693 24.5,71C 23.2068,71.49 21.8734,71.6567 20.5,71.5C 20.281,70.325 20.6143,69.325 21.5,68.5C 22.7387,68.0576 23.7387,67.3909 24.5,66.5 Z"/></g>
<g><path style="opacity:1" fill="#d988cd" d="M 62.5,58.5 C 61.9287,65.7808 62.5953,72.7808 64.5,79.5C 63.5,79.5 62.5,79.5 61.5,79.5C 61.1755,72.3134 61.5088,65.3134 62.5,58.5 Z"/></g>
<g><path style="opacity:1" fill="#b7e1f6" d="M 52.5,75.5 C 54.5,75.5 56.5,75.5 58.5,75.5C 58.5,76.8333 58.5,78.1667 58.5,79.5C 56.5,79.5 54.5,79.5 52.5,79.5C 52.5,78.1667 52.5,76.8333 52.5,75.5 Z"/></g>
<g><path style="opacity:1" fill="#b8e9f7" d="M 48.5,82.5 C 52.8333,82.5 57.1667,82.5 61.5,82.5C 61.5,83.5 61.5,84.5 61.5,85.5C 57.1667,85.5 52.8333,85.5 48.5,85.5C 48.5,84.5 48.5,83.5 48.5,82.5 Z"/></g>
<g><path style="opacity:1" fill="#b8e4f6" d="M 48.5,90.5 C 52.6829,89.1889 57.0162,89.1889 61.5,90.5C 61.2907,91.086 60.9574,91.586 60.5,92C 56.1985,93.006 52.1985,92.506 48.5,90.5 Z"/></g>
</svg>
