<?xml version="1.0" encoding="UTF-8"?>
<!DOCTYPE svg PUBLIC "-//W3C//DTD SVG 1.1//EN" "http://www.w3.org/Graphics/SVG/1.1/DTD/svg11.dtd">
<svg xmlns="http://www.w3.org/2000/svg" version="1.1" width="103px" height="106px" style="shape-rendering:geometricPrecision; text-rendering:geometricPrecision; image-rendering:optimizeQuality; fill-rule:evenodd; clip-rule:evenodd" xmlns:xlink="http://www.w3.org/1999/xlink">
<g><path style="opacity:1" fill="#baf1f6" d="M -0.5,-0.5 C 33.8333,-0.5 68.1667,-0.5 102.5,-0.5C 102.5,34.8333 102.5,70.1667 102.5,105.5C 68.1667,105.5 33.8333,105.5 -0.5,105.5C -0.5,70.1667 -0.5,34.8333 -0.5,-0.5 Z"/></g>
<g><path style="opacity:1" fill="#8a31f3" d="M 77.5,85.5 C 72.259,89.6182 66.5923,92.9515 60.5,95.5C 36.8784,100.104 19.7117,91.7711 9,70.5C 2.25673,49.7311 7.4234,32.5644 24.5,19C 46.7707,7.37732 66.2707,10.8773 83,29.5C 94.5369,49.5383 92.7036,68.205 77.5,85.5 Z"/></g>
<g><path style="opacity:1" fill="#baeef6" d="M 42.5,15.5 C 73.2026,16.364 87.7026,32.0307 86,62.5C 78.7985,85.8655 62.9651,95.6989 38.5,92C 14.8581,83.0063 6.02473,66.173 12,41.5C 17.7771,27.5474 27.9438,18.8807 42.5,15.5 Z"/></g>
<g><path style="opacity:1" fill="#892ef3" d="M 45.5,20.5 C 53.3296,19.4949 56.4963,22.8283 55,30.5C 51.1709,36.7026 46.8376,37.0359 42,31.5C 40.518,26.774 41.6847,23.1074 45.5,20.5 Z"/></g>
<g><path style="opacity:1" fill="#b7e0f6" d="M 45.5,24.5 C 51.1581,23.6794 52.8248,25.846 50.5,31C 45.2791,31.6099 43.6124,29.4432 45.5,24.5 Z"/></g>
<g><path style="opacity:1" fill="#8a32f3" d="M 22.5,33.5 C 29.657,33.155 32.8237,36.4884 32,43.5C 27.3333,50.1667 22.6667,50.1667 18,43.5C 17.4379,39.2315 18.9379,35.8982 22.5,33.5 Z"/></g>
<g><path style="opacity:1" fill="#8828f3" d="M 69.5,33.5 C 76.6853,33.8482 79.5186,37.5149 78,44.5C 71.452,50.6609 66.952,49.4943 64.5,41C 64.7815,37.5559 66.4482,35.0559 69.5,33.5 Z"/></g>
<g><path style="opacity:1" fill="#b8e5f6" d="M 23.5,37.5 C 28.3276,37.3852 29.6609,39.5519 27.5,44C 21.7377,44.4178 20.4044,42.2511 23.5,37.5 Z"/></g>
<g><path style="opacity:1" fill="#b8e5f7" d="M 69.5,37.5 C 75.0159,37.4734 76.3492,39.64 73.5,44C 68.5705,44.427 67.2372,42.2604 69.5,37.5 Z"/></g>
<g><path style="opacity:1" fill="#fabdbf" d="M 43.5,41.5 C 56.1982,40.3915 62.0316,46.0582 61,58.5C 56.0657,66.9235 49.2323,69.0902 40.5,65C 33.3133,56.1387 34.3133,48.3054 43.5,41.5 Z"/></g>
<g><path style="opacity:1" fill="#9025ed" d="M 44.5,48.5 C 52.1601,46.9957 55.3268,49.9957 54,57.5C 49.6476,61.6646 45.6476,61.3313 42,56.5C 41.3875,53.3893 42.2209,50.7226 44.5,48.5 Z"/></g>
<g><path style="opacity:1" fill="#f0a8c3" d="M 46.5,51.5 C 49.9103,51.3838 51.2436,53.0504 50.5,56.5C 48.8333,56.5 47.1667,56.5 45.5,56.5C 45.366,54.7085 45.6993,53.0418 46.5,51.5 Z"/></g>
<g><path style="opacity:1" fill="#8a30f3" d="M 22.5,60.5 C 29.706,60.2021 32.8727,63.5355 32,70.5C 26.953,77.2489 22.2863,76.9156 18,69.5C 17.3772,65.4123 18.8772,62.4123 22.5,60.5 Z"/></g>
<g><path style="opacity:1" fill="#8930f3" d="M 68.5,60.5 C 76.775,59.7064 79.9417,63.373 78,71.5C 73.6667,76.8333 69.3333,76.8333 65,71.5C 63.6631,66.8721 64.8298,63.2054 68.5,60.5 Z"/></g>
<g><path style="opacity:1" fill="#b8e6f6" d="M 22.5,64.5 C 27.8946,63.5548 29.5613,65.5548 27.5,70.5C 22.3205,71.6467 20.6539,69.6467 22.5,64.5 Z"/></g>
<g><path style="opacity:1" fill="#b8e6f6" d="M 69.5,64.5 C 73.509,64.0136 75.3423,65.6803 75,69.5C 69.0341,72.7051 67.2008,71.0385 69.5,64.5 Z"/></g>
<g><path style="opacity:1" fill="#882cf3" d="M 45.5,73.5 C 53.2008,73.3622 56.3674,77.0289 55,84.5C 50.4894,89.7566 46.156,89.7566 42,84.5C 40.6624,79.9597 41.8291,76.293 45.5,73.5 Z"/></g>
<g><path style="opacity:1" fill="#b8e4f6" d="M 46.5,77.5 C 51.3276,77.3852 52.6609,79.5519 50.5,84C 44.7377,84.4178 43.4044,82.2511 46.5,77.5 Z"/></g>
<g><path style="opacity:1" fill="#f8c1c1" d="M 77.5,85.5 C 84.3134,86.4912 91.3134,86.8245 98.5,86.5C 98.5,89.5 98.5,92.5 98.5,95.5C 85.8333,95.5 73.1667,95.5 60.5,95.5C 66.5923,92.9515 72.259,89.6182 77.5,85.5 Z"/></g>
</svg>
