<?xml version="1.0" encoding="UTF-8"?>
<!DOCTYPE svg PUBLIC "-//W3C//DTD SVG 1.1//EN" "http://www.w3.org/Graphics/SVG/1.1/DTD/svg11.dtd">
<svg xmlns="http://www.w3.org/2000/svg" version="1.1" width="82px" height="100px" style="shape-rendering:geometricPrecision; text-rendering:geometricPrecision; image-rendering:optimizeQuality; fill-rule:evenodd; clip-rule:evenodd" xmlns:xlink="http://www.w3.org/1999/xlink">
<g><path style="opacity:1" fill="#baeff6" d="M -0.5,-0.5 C 26.8333,-0.5 54.1667,-0.5 81.5,-0.5C 81.5,32.8333 81.5,66.1667 81.5,99.5C 54.1667,99.5 26.8333,99.5 -0.5,99.5C -0.5,66.1667 -0.5,32.8333 -0.5,-0.5 Z"/></g>
<g><path style="opacity:1" fill="#8c3af3" d="M 15.5,6.5 C 35.1695,6.33338 54.8362,6.50005 74.5,7C 75,7.5 75.5,8 76,8.5C 76.6667,33.1667 76.6667,57.8333 76,82.5C 73.6194,83.435 71.1194,83.7683 68.5,83.5C 68.5,86.1667 68.5,88.8333 68.5,91.5C 47.8333,91.5 27.1667,91.5 6.5,91.5C 6.5,65.8333 6.5,40.1667 6.5,14.5C 9.16667,14.5 11.8333,14.5 14.5,14.5C 14.2786,11.7212 14.612,9.05449 15.5,6.5 Z"/></g>
<g><path style="opacity:1" fill="#bbeff6" d="M 18.5,11.5 C 36.1667,11.5 53.8333,11.5 71.5,11.5C 71.5,34.1667 71.5,56.8333 71.5,79.5C 53.8333,79.5 36.1667,79.5 18.5,79.5C 18.5,56.8333 18.5,34.1667 18.5,11.5 Z"/></g>
<g><path style="opacity:1" fill="#b4d9f6" d="M 18.5,11.5 C 36.3256,10.5032 54.3256,10.1699 72.5,10.5C 72.8308,33.6727 72.4975,56.6727 71.5,79.5C 71.5,56.8333 71.5,34.1667 71.5,11.5C 53.8333,11.5 36.1667,11.5 18.5,11.5 Z"/></g>
<g><path style="opacity:1" fill="#febebc" d="M 24.5,16.5 C 38.5,16.5 52.5,16.5 66.5,16.5C 66.5,30.5 66.5,44.5 66.5,58.5C 66.5,44.5 66.5,30.5 66.5,16.5C 52.5,16.5 38.5,16.5 24.5,16.5 Z"/></g>
<g><path style="opacity:1" fill="#b9eaf6" d="M 9.5,18.5 C 11.1667,18.5 12.8333,18.5 14.5,18.5C 14.3334,39.8359 14.5,61.1693 15,82.5C 31.4226,83.4916 47.9226,83.8249 64.5,83.5C 64.5,85.1667 64.5,86.8333 64.5,88.5C 46.1667,88.5 27.8333,88.5 9.5,88.5C 9.5,65.1667 9.5,41.8333 9.5,18.5 Z"/></g>
<g><path style="opacity:1" fill="#d8dcdd" d="M 24.5,16.5 C 24.5,30.5 24.5,44.5 24.5,58.5C 38.5,58.5 52.5,58.5 66.5,58.5C 52.3431,59.4959 38.0097,59.8293 23.5,59.5C 23.1707,44.9903 23.5041,30.6569 24.5,16.5 Z"/></g>
<g><path style="opacity:1" fill="#8c3cf3" d="M 23.5,64.5 C 30.8409,64.3337 38.1742,64.5003 45.5,65C 46.3366,66.0113 46.67,67.1779 46.5,68.5C 38.8261,68.6664 31.1594,68.4997 23.5,68C 22.3157,66.8545 22.3157,65.6879 23.5,64.5 Z"/></g>
<g><path style="opacity:1" fill="#8a33f3" d="M 60.5,64.5 C 66.3296,64.1605 68.8296,66.8272 68,72.5C 64.4922,76.436 61.1589,76.436 58,72.5C 57.0182,69.2253 57.8515,66.5586 60.5,64.5 Z"/></g>
<g><path style="opacity:1" fill="#b4d5f6" d="M 61.5,68.5 C 62.5,68.5 63.5,68.5 64.5,68.5C 64.5,69.8333 64.5,71.1667 64.5,72.5C 63.5,72.5 62.5,72.5 61.5,72.5C 61.5,71.1667 61.5,69.8333 61.5,68.5 Z"/></g>
<g><path style="opacity:1" fill="#851bf3" d="M 22.5,72.5 C 30.5,72.5 38.5,72.5 46.5,72.5C 46.5,73.5 46.5,74.5 46.5,75.5C 38.5,75.5 30.5,75.5 22.5,75.5C 22.5,74.5 22.5,73.5 22.5,72.5 Z"/></g>
</svg>
