<?xml version="1.0" encoding="UTF-8"?>
<!DOCTYPE svg PUBLIC "-//W3C//DTD SVG 1.1//EN" "http://www.w3.org/Graphics/SVG/1.1/DTD/svg11.dtd">
<svg xmlns="http://www.w3.org/2000/svg" version="1.1" width="115px" height="39px" style="shape-rendering:geometricPrecision; text-rendering:geometricPrecision; image-rendering:optimizeQuality; fill-rule:evenodd; clip-rule:evenodd" xmlns:xlink="http://www.w3.org/1999/xlink">
<g><path style="opacity:1" fill="#fefefe" d="M -0.5,-0.5 C 37.8333,-0.5 76.1667,-0.5 114.5,-0.5C 114.5,12.5 114.5,25.5 114.5,38.5C 76.1667,38.5 37.8333,38.5 -0.5,38.5C -0.5,25.5 -0.5,12.5 -0.5,-0.5 Z"/></g>
<g><path style="opacity:1" fill="#8799a5" d="M 103.5,8.5 C 108.421,8.13493 108.755,9.13493 104.5,11.5C 103.614,10.675 103.281,9.67504 103.5,8.5 Z"/></g>
<g><path style="opacity:1" fill="#758a99" d="M 14.5,15.5 C 15.675,15.281 16.675,15.6143 17.5,16.5C 15.9483,17.7979 14.9483,17.4646 14.5,15.5 Z"/></g>
<g><path style="opacity:1" fill="#667d8c" d="M 94.5,13.5 C 96.337,13.6395 96.6704,14.3061 95.5,15.5C 93.5878,17.1561 91.5878,17.4895 89.5,16.5C 91.1446,15.3037 92.8113,14.3037 94.5,13.5 Z"/></g>
<g><path style="opacity:1" fill="#728896" d="M 25.5,19.5 C 28.5641,19.1437 31.2307,19.9771 33.5,22C 31.4731,22.4978 29.4731,22.3311 27.5,21.5C 26.2867,21.2528 25.62,20.5862 25.5,19.5 Z"/></g>
<g><path style="opacity:1" fill="#6c8292" d="M 76.5,19.5 C 78.1992,19.3398 79.8659,19.5065 81.5,20C 79.3213,21.1419 76.9879,21.9752 74.5,22.5C 74.1667,22.1667 73.8333,21.8333 73.5,21.5C 74.6016,20.8243 75.6016,20.1577 76.5,19.5 Z"/></g>
<g><path style="opacity:1" fill="#a5b0b8" d="M 42.5,22.5 C 44.8333,22.5 47.1667,22.5 49.5,22.5C 49.5,23.5 49.5,24.5 49.5,25.5C 48.209,25.7373 47.209,25.404 46.5,24.5C 47.2389,24.631 47.9056,24.4643 48.5,24C 46.2922,23.8091 44.2922,23.3091 42.5,22.5 Z"/></g>
<g><path style="opacity:1" fill="#667c8b" d="M 57.5,22.5 C 60.2469,22.1866 62.9135,22.52 65.5,23.5C 64.1667,23.8333 62.8333,24.1667 61.5,24.5C 59.6672,24.4146 58.3339,23.7479 57.5,22.5 Z"/></g>
<g><path style="opacity:1" fill="#5b7587" d="M 42.5,22.5 C 44.2922,23.3091 46.2922,23.8091 48.5,24C 47.9056,24.4643 47.2389,24.631 46.5,24.5C 44.712,24.7852 43.0453,24.4519 41.5,23.5C 41.6236,22.8933 41.9569,22.56 42.5,22.5 Z"/></g>
</svg>
