<?xml version="1.0" encoding="UTF-8"?>
<!DOCTYPE svg PUBLIC "-//W3C//DTD SVG 1.1//EN" "http://www.w3.org/Graphics/SVG/1.1/DTD/svg11.dtd">
<svg xmlns="http://www.w3.org/2000/svg" version="1.1" width="109px" height="34px" style="shape-rendering:geometricPrecision; text-rendering:geometricPrecision; image-rendering:optimizeQuality; fill-rule:evenodd; clip-rule:evenodd" xmlns:xlink="http://www.w3.org/1999/xlink">
<g><path style="opacity:1" fill="#fdfefe" d="M -0.5,-0.5 C 35.8333,-0.5 72.1667,-0.5 108.5,-0.5C 108.5,10.8333 108.5,22.1667 108.5,33.5C 72.1667,33.5 35.8333,33.5 -0.5,33.5C -0.5,22.1667 -0.5,10.8333 -0.5,-0.5 Z"/></g>
<g><path style="opacity:1" fill="#7d909c" d="M 36.5,5.5 C 38.924,5.19244 41.2573,5.52577 43.5,6.5C 42.3333,6.83333 41.1667,7.16667 40,7.5C 38.3189,7.39174 37.1522,6.72507 36.5,5.5 Z"/></g>
<g><path style="opacity:1" fill="#aeb9c0" d="M 57.5,6.5 C 55.5853,6.21552 53.9187,6.54885 52.5,7.5C 51.9569,7.44001 51.6236,7.10667 51.5,6.5C 53.6365,5.20719 55.6365,5.20719 57.5,6.5 Z"/></g>
<g><path style="opacity:1" fill="#82919d" d="M 52.5,7.5 C 53.9187,6.54885 55.5853,6.21552 57.5,6.5C 58.675,6.28099 59.675,6.61432 60.5,7.5C 59.8333,7.83333 59.1667,8.16667 58.5,8.5C 56.5466,7.84442 54.5466,7.51109 52.5,7.5 Z"/></g>
<g><path style="opacity:1" fill="#7b8f9c" d="M 21.5,8.5 C 29.3782,8.90087 29.3782,9.90087 21.5,11.5C 20.4376,10.5754 20.4376,9.57537 21.5,8.5 Z"/></g>
<g><path style="opacity:1" fill="#738a98" d="M 68.5,9.5 C 70.8562,8.32042 73.1895,8.65376 75.5,10.5C 73.1152,11.2792 70.7819,10.9458 68.5,9.5 Z"/></g>
<g><path style="opacity:1" fill="#778c9a" d="M 10.5,12.5 C 13.0118,13.2162 13.0118,14.2162 10.5,15.5C 9.43764,14.5754 9.43764,13.5754 10.5,12.5 Z"/></g>
<g><path style="opacity:1" fill="#7f919f" d="M 83.5,12.5 C 86.09,13.1283 88.4234,14.295 90.5,16C 87.0063,16.9204 84.673,15.7537 83.5,12.5 Z"/></g>
<g><path style="opacity:1" fill="#788c9a" d="M 98.5,19.5 C 99.9953,19.4148 100.995,20.0815 101.5,21.5C 99.6043,22.6394 98.6043,21.9728 98.5,19.5 Z"/></g>
</svg>
