<?xml version="1.0" encoding="UTF-8"?>
<!DOCTYPE svg PUBLIC "-//W3C//DTD SVG 1.1//EN" "http://www.w3.org/Graphics/SVG/1.1/DTD/svg11.dtd">
<svg xmlns="http://www.w3.org/2000/svg" version="1.1" width="721px" height="270px" style="shape-rendering:geometricPrecision; text-rendering:geometricPrecision; image-rendering:optimizeQuality; fill-rule:evenodd; clip-rule:evenodd" xmlns:xlink="http://www.w3.org/1999/xlink">
<g><path style="opacity:1" fill="#f8f8fa" d="M -0.5,-0.5 C 239.833,-0.5 480.167,-0.5 720.5,-0.5C 720.5,89.5 720.5,179.5 720.5,269.5C 480.167,269.5 239.833,269.5 -0.5,269.5C -0.5,179.5 -0.5,89.5 -0.5,-0.5 Z"/></g>
<g><path style="opacity:1" fill="#a9a8b1" d="M 192.5,26.5 C 191.778,26.0825 191.278,25.4158 191,24.5C 190.536,25.0944 190.369,25.7611 190.5,26.5C 189.539,24.7354 189.205,22.7354 189.5,20.5C 190.5,20.5 191.5,20.5 192.5,20.5C 192.5,22.5 192.5,24.5 192.5,26.5 Z"/></g>
<g><path style="opacity:1" fill="#575666" d="M 190.5,26.5 C 190.369,25.7611 190.536,25.0944 191,24.5C 191.278,25.4158 191.778,26.0825 192.5,26.5C 193.039,28.5049 193.705,30.5049 194.5,32.5C 195.167,29.5 195.833,26.5 196.5,23.5C 197.657,26.7844 197.824,30.1177 197,33.5C 195.211,35.229 193.044,35.8957 190.5,35.5C 191.678,32.4773 191.678,29.4773 190.5,26.5 Z"/></g>
<g><path style="opacity:1" fill="#474658" d="M 199.5,23.5 C 200.787,24.8714 201.453,26.7047 201.5,29C 201.167,30.8333 200.833,32.6667 200.5,34.5C 199.511,30.8927 199.177,27.226 199.5,23.5 Z"/></g>
<g><path style="opacity:1" fill="#a2a2ac" d="M 214.5,32.5 C 213.698,31.0484 213.198,29.3817 213,27.5C 212.329,28.2524 211.496,28.5858 210.5,28.5C 210.611,27.8826 210.944,27.3826 211.5,27C 210.027,26.2904 209.36,25.1238 209.5,23.5C 211.167,23.5 212.833,23.5 214.5,23.5C 214.5,26.5 214.5,29.5 214.5,32.5 Z"/></g>
<g><path style="opacity:1" fill="#93939e" d="M 458.5,32.5 C 457.683,30.0314 457.183,27.3647 457,24.5C 456.502,27.4816 456.335,30.4816 456.5,33.5C 455.521,30.3752 455.187,27.0419 455.5,23.5C 456.5,23.5 457.5,23.5 458.5,23.5C 458.5,26.5 458.5,29.5 458.5,32.5 Z"/></g>
<g><path style="opacity:1" fill="#9a9aa4" d="M 503.5,33.5 C 503.665,30.4816 503.498,27.4816 503,24.5C 502.817,27.3647 502.317,30.0314 501.5,32.5C 501.5,29.5 501.5,26.5 501.5,23.5C 502.5,23.5 503.5,23.5 504.5,23.5C 504.813,27.0419 504.479,30.3752 503.5,33.5 Z"/></g>
<g><path style="opacity:1" fill="#888894" d="M 561.5,23.5 C 562.5,23.5 563.5,23.5 564.5,23.5C 564.5,27.5 564.5,31.5 564.5,35.5C 563.5,35.5 562.5,35.5 561.5,35.5C 561.5,31.5 561.5,27.5 561.5,23.5 Z"/></g>
<g><path style="opacity:1" fill="#a8a8b1" d="M 241.5,32.5 C 240.791,33.404 239.791,33.7373 238.5,33.5C 238.66,31.8008 238.494,30.1341 238,28.5C 237.79,30.0581 237.29,31.3915 236.5,32.5C 236.682,30.4086 236.348,28.4086 235.5,26.5C 239.751,24.55 241.085,25.55 239.5,29.5C 239.64,31.0296 240.307,32.0296 241.5,32.5 Z"/></g>
<g><path style="opacity:1" fill="#b7b7bf" d="M 538.5,27.5 C 537.833,27.5 537.167,27.5 536.5,27.5C 535.766,26.2921 535.433,24.9587 535.5,23.5C 540.169,22.9897 541.169,24.3231 538.5,27.5 Z"/></g>
<g><path style="opacity:1" fill="#535263" d="M 214.5,32.5 C 215.675,32.719 216.675,32.3857 217.5,31.5C 216.754,30.2638 216.421,28.9305 216.5,27.5C 218.527,27.3379 220.527,27.5045 222.5,28C 223.38,29.3561 223.714,30.8561 223.5,32.5C 224.5,32.5 225.5,32.5 226.5,32.5C 226.238,31.0222 226.571,29.6888 227.5,28.5C 228.466,30.396 228.799,32.396 228.5,34.5C 223.478,34.7823 218.478,34.949 213.5,35C 212.109,33.98 210.609,33.1466 209,32.5C 208.227,30.6476 208.727,29.3143 210.5,28.5C 211.496,28.5858 212.329,28.2524 213,27.5C 213.198,29.3817 213.698,31.0484 214.5,32.5 Z"/></g>
<g><path style="opacity:1" fill="#515061" d="M 456.5,33.5 C 456.335,30.4816 456.502,27.4816 457,24.5C 457.183,27.3647 457.683,30.0314 458.5,32.5C 460.288,32.7852 461.955,32.4519 463.5,31.5C 458.063,27.9909 458.563,25.3243 465,23.5C 465.5,23.6667 466,23.8333 466.5,24C 465.313,25.0195 464.313,26.1861 463.5,27.5C 465.171,29.5098 465.838,31.8431 465.5,34.5C 462.287,34.81 459.287,34.4767 456.5,33.5 Z"/></g>
<g><path style="opacity:1" fill="#b4b3bb" d="M 488.5,28.5 C 487.566,29.5676 487.232,30.901 487.5,32.5C 485.876,32.6399 484.71,31.9733 484,30.5C 482.983,33.028 481.816,33.028 480.5,30.5C 479.614,31.325 479.281,32.325 479.5,33.5C 478.167,33.5 476.833,33.5 475.5,33.5C 475.167,21.5 474.833,21.5 474.5,33.5C 473.776,35.2184 473.109,37.0517 472.5,39C 470.866,39.4935 469.199,39.6602 467.5,39.5C 467.285,37.8212 467.952,36.8212 469.5,36.5C 468.719,38.6631 469.553,38.9964 472,37.5C 472.497,35.1902 472.663,32.8568 472.5,30.5C 473.468,28.3926 473.802,26.0593 473.5,23.5C 474.5,23.5 475.5,23.5 476.5,23.5C 476.183,26.5719 476.516,29.5719 477.5,32.5C 478.386,31.675 478.719,30.675 478.5,29.5C 479.5,29.5 480.5,29.5 481.5,29.5C 481.679,27.3944 482.679,25.7277 484.5,24.5C 485.549,26.2156 486.882,27.5489 488.5,28.5 Z"/></g>
<g><path style="opacity:1" fill="#b2b2ba" d="M 549.5,32.5 C 548.791,33.404 547.791,33.7373 546.5,33.5C 545.833,26.8333 545.167,26.8333 544.5,33.5C 543.167,33.5 541.833,33.5 540.5,33.5C 540.5,32.5 540.5,31.5 540.5,30.5C 540.5,30.1667 540.5,29.8333 540.5,29.5C 541.158,30.3984 541.824,31.3984 542.5,32.5C 543.474,30.2573 543.808,27.924 543.5,25.5C 544.833,25.5 546.167,25.5 547.5,25.5C 546.99,28.3878 547.656,30.7211 549.5,32.5 Z"/></g>
<g><path style="opacity:1" fill="#4a485a" d="M 442.5,33.5 C 442.833,29.5 443.167,29.5 443.5,33.5C 446.385,33.8064 449.052,33.4731 451.5,32.5C 452.268,31.7375 452.768,30.7375 453,29.5C 453.743,31.4406 453.576,33.2739 452.5,35C 449.5,35.6667 446.5,35.6667 443.5,35C 442.944,34.6174 442.611,34.1174 442.5,33.5 Z"/></g>
<g><path style="opacity:1" fill="#71707e" d="M 536.5,27.5 C 537.167,27.5 537.833,27.5 538.5,27.5C 539.5,27.8333 540.167,28.5 540.5,29.5C 540.5,29.8333 540.5,30.1667 540.5,30.5C 538.358,32.6618 535.691,33.6618 532.5,33.5C 532.657,32.1266 532.49,30.7932 532,29.5C 531.768,30.7375 531.268,31.7375 530.5,32.5C 530.5,31.1667 530.5,29.8333 530.5,28.5C 531.5,28.5 532.5,28.5 533.5,28.5C 533.238,29.9778 533.571,31.3112 534.5,32.5C 535.322,30.8614 535.989,29.1947 536.5,27.5 Z"/></g>
<g><path style="opacity:1" fill="#9f9fa8" d="M 451.5,32.5 C 449.052,33.4731 446.385,33.8064 443.5,33.5C 443.167,29.5 442.833,29.5 442.5,33.5C 441.566,32.4324 441.232,31.099 441.5,29.5C 442.5,29.5 443.5,29.5 444.5,29.5C 444.5,30.5 444.5,31.5 444.5,32.5C 446.833,32.5 449.167,32.5 451.5,32.5 Z"/></g>
<g><path style="opacity:1" fill="#515060" d="M 488.5,28.5 C 488.5,29.8333 488.5,31.1667 488.5,32.5C 491.239,32.2934 493.573,31.2934 495.5,29.5C 497.332,30.8214 499.332,31.8214 501.5,32.5C 502.317,30.0314 502.817,27.3647 503,24.5C 503.498,27.4816 503.665,30.4816 503.5,33.5C 503.389,34.1174 503.056,34.6174 502.5,35C 493.5,35.6667 484.5,35.6667 475.5,35C 474.944,34.6174 474.611,34.1174 474.5,33.5C 474.833,21.5 475.167,21.5 475.5,33.5C 476.833,33.5 478.167,33.5 479.5,33.5C 479.281,32.325 479.614,31.325 480.5,30.5C 481.816,33.028 482.983,33.028 484,30.5C 484.71,31.9733 485.876,32.6399 487.5,32.5C 487.232,30.901 487.566,29.5676 488.5,28.5 Z"/></g>
<g><path style="opacity:1" fill="#4d4c5d" d="M 167.5,23.5 C 168.477,26.2869 168.81,29.2869 168.5,32.5C 171.356,31.1721 174.356,30.1721 177.5,29.5C 177.5,30.5 177.5,31.5 177.5,32.5C 178.5,32.5 179.5,32.5 180.5,32.5C 180.408,28.9286 182.074,27.7619 185.5,29C 184.552,29.4828 183.552,29.6495 182.5,29.5C 182.5,30.5 182.5,31.5 182.5,32.5C 184.288,32.2148 185.955,32.5481 187.5,33.5C 186.975,34.1924 186.308,34.6924 185.5,35C 179.833,35.6667 174.167,35.6667 168.5,35C 167.54,31.27 167.207,27.4367 167.5,23.5 Z"/></g>
<g><path style="opacity:1" fill="#575666" d="M 236.5,32.5 C 237.29,31.3915 237.79,30.0581 238,28.5C 238.494,30.1341 238.66,31.8008 238.5,33.5C 239.791,33.7373 240.791,33.404 241.5,32.5C 242.353,30.0737 244.019,29.2404 246.5,30C 247.833,31.6667 247.833,33.3333 246.5,35C 241.833,35.6667 237.167,35.6667 232.5,35C 231.205,31.2136 231.205,27.3803 232.5,23.5C 233.484,26.4281 233.817,29.4281 233.5,32.5C 234.5,32.5 235.5,32.5 236.5,32.5 Z"/></g>
<g><path style="opacity:1" fill="#5e5d6d" d="M 521.5,23.5 C 522.787,24.8714 523.453,26.7047 523.5,29C 523.665,31.9165 522.998,34.5832 521.5,37C 516.29,38.2863 514.29,36.453 515.5,31.5C 516.15,35.0206 517.983,36.0206 521,34.5C 521.499,30.8484 521.665,27.1817 521.5,23.5 Z"/></g>
<g><path style="opacity:1" fill="#3a394c" d="M 549.5,32.5 C 550.222,32.0825 550.722,31.4158 551,30.5C 551.249,31.624 551.749,32.624 552.5,33.5C 553.107,33.3764 553.44,33.0431 553.5,32.5C 554.222,32.0825 554.722,31.4158 555,30.5C 555.249,31.624 555.749,32.624 556.5,33.5C 557.167,31.8333 557.833,30.1667 558.5,28.5C 559.793,30.6365 559.793,32.6365 558.5,34.5C 547.813,34.832 537.146,34.4987 526.5,33.5C 526.624,32.8933 526.957,32.56 527.5,32.5C 528.5,33.8333 529.5,33.8333 530.5,32.5C 531.268,31.7375 531.768,30.7375 532,29.5C 532.49,30.7932 532.657,32.1266 532.5,33.5C 535.691,33.6618 538.358,32.6618 540.5,30.5C 540.5,31.5 540.5,32.5 540.5,33.5C 541.833,33.5 543.167,33.5 544.5,33.5C 545.167,26.8333 545.833,26.8333 546.5,33.5C 547.791,33.7373 548.791,33.404 549.5,32.5 Z"/></g>
<g><path style="opacity:1" fill="#9e9da7" d="M 553.5,32.5 C 553.44,33.0431 553.107,33.3764 552.5,33.5C 551.749,32.624 551.249,31.624 551,30.5C 550.722,31.4158 550.222,32.0825 549.5,32.5C 549.5,31.5 549.5,30.5 549.5,29.5C 550.5,29.5 551.5,29.5 552.5,29.5C 552.263,30.791 552.596,31.791 553.5,32.5 Z"/></g>
<g><path style="opacity:1" fill="#4e4d5e" d="M 472.5,30.5 C 472.663,32.8568 472.497,35.1902 472,37.5C 469.553,38.9964 468.719,38.6631 469.5,36.5C 469.94,34.1561 470.94,32.1561 472.5,30.5 Z"/></g>
<g><path style="opacity:1" fill="#81808d" d="M 527.5,32.5 C 526.957,32.56 526.624,32.8933 526.5,33.5C 537.146,34.4987 547.813,34.832 558.5,34.5C 550.016,35.493 541.349,35.8264 532.5,35.5C 531.833,39.5 531.167,39.5 530.5,35.5C 528.833,35.5 527.167,35.5 525.5,35.5C 525.176,31.4454 525.509,27.4454 526.5,23.5C 527.484,26.4281 527.817,29.4281 527.5,32.5 Z"/></g>
<g><path style="opacity:1" fill="#575767" d="M 162.5,23.5 C 163.794,25.0478 164.461,27.0478 164.5,29.5C 165.815,34.9995 163.815,37.4995 158.5,37C 156.485,35.4447 156.152,33.6114 157.5,31.5C 158.429,32.6888 158.762,34.0222 158.5,35.5C 159.833,35.5 161.167,35.5 162.5,35.5C 162.5,31.5 162.5,27.5 162.5,23.5 Z"/></g>
<g><path style="opacity:1" fill="#9e55a5" d="M 210.5,70.5 C 209.835,72.3691 209.169,74.3691 208.5,76.5C 207.831,74.3691 207.165,72.3691 206.5,70.5C 199.481,67.457 196.981,62.1237 199,54.5C 203.731,48.862 209.231,48.0287 215.5,52C 220.661,60.07 218.994,66.2367 210.5,70.5 Z"/></g>
<g><path style="opacity:1" fill="#5b95cf" d="M 502.5,49.5 C 513.427,48.0252 518.261,52.6919 517,63.5C 515.636,66.3633 513.47,68.3633 510.5,69.5C 509.52,72.0865 509.187,74.7531 509.5,77.5C 508.167,77.5 506.833,77.5 505.5,77.5C 505.813,74.7531 505.48,72.0865 504.5,69.5C 498.3,66.7653 496.134,62.0986 498,55.5C 499.332,53.34 500.832,51.34 502.5,49.5 Z"/></g>
<g><path style="opacity:1" fill="#f5edf5" d="M 205.5,54.5 C 212.05,54.0717 214.383,56.905 212.5,63C 203.838,65.5009 201.504,62.6675 205.5,54.5 Z"/></g>
<g><path style="opacity:1" fill="#ecf2f9" d="M 504.5,54.5 C 511.05,54.0717 513.383,56.905 511.5,63C 502.899,65.559 500.565,62.7257 504.5,54.5 Z"/></g>
<g><path style="opacity:1" fill="#c18af7" d="M 319.5,66.5 C 317.801,66.3398 316.134,66.5065 314.5,67C 315.737,67.2321 316.737,67.7321 317.5,68.5C 316.167,68.5 314.833,68.5 313.5,68.5C 313.5,67.5 313.5,66.5 313.5,65.5C 315.735,65.2053 317.735,65.5386 319.5,66.5 Z"/></g>
<g><path style="opacity:1" fill="#c28cf7" d="M 362.5,65.5 C 361.833,69.1667 361.167,72.8333 360.5,76.5C 360.176,72.4454 360.509,68.4454 361.5,64.5C 362.107,64.6236 362.44,64.9569 362.5,65.5 Z"/></g>
<g><path style="opacity:1" fill="#bbb8ce" d="M 73.5,71.5 C 72.8333,72.5 72.1667,73.5 71.5,74.5C 71.5,71.8333 71.5,69.1667 71.5,66.5C 72.675,66.281 73.675,66.6143 74.5,67.5C 73.7542,68.7362 73.4208,70.0695 73.5,71.5 Z"/></g>
<g><path style="opacity:1" fill="#9e45f5" d="M 362.5,65.5 C 362.5,68.5 362.5,71.5 362.5,74.5C 363.833,74.5 365.167,74.5 366.5,74.5C 366.238,73.0222 366.571,71.6888 367.5,70.5C 368.452,72.0453 368.785,73.712 368.5,75.5C 366.374,76.0482 364.374,76.7148 362.5,77.5C 357.119,80.9308 354.786,79.5975 355.5,73.5C 356.386,74.325 356.719,75.325 356.5,76.5C 357.833,76.5 359.167,76.5 360.5,76.5C 361.167,72.8333 361.833,69.1667 362.5,65.5 Z"/></g>
<g><path style="opacity:1" fill="#b36ff6" d="M 384.5,65.5 C 385.787,66.8714 386.453,68.7047 386.5,71C 386.167,72.8333 385.833,74.6667 385.5,76.5C 384.511,72.8927 384.177,69.226 384.5,65.5 Z"/></g>
<g><path style="opacity:1" fill="#d6b5f8" d="M 394.5,66.5 C 395.209,65.596 396.209,65.2627 397.5,65.5C 397.5,67.8333 397.5,70.1667 397.5,72.5C 397.06,70.1561 396.06,68.1561 394.5,66.5 Z"/></g>
<g><path style="opacity:1" fill="#6c6493" d="M 48.5,66.5 C 49.8333,69.8333 49.8333,73.1667 48.5,76.5C 44.1617,76.3781 43.8284,76.0447 47.5,75.5C 47.7035,73.6096 47.0368,72.1096 45.5,71C 46.9733,70.2904 47.6399,69.1238 47.5,67.5C 43.8284,66.9553 44.1617,66.6219 48.5,66.5 Z"/></g>
<g><path style="opacity:1" fill="#d2acf8" d="M 328.5,66.5 C 329.725,67.1522 330.392,68.3189 330.5,70C 330.486,71.3847 330.152,72.5514 329.5,73.5C 329.702,71.0504 329.369,68.717 328.5,66.5 Z"/></g>
<g><path style="opacity:1" fill="#73d1eb" d="M 621.5,65.5 C 627.156,65.8674 628.989,68.8674 627,74.5C 624.775,78.4621 622.442,78.4621 620,74.5C 619.068,71.1769 619.568,68.1769 621.5,65.5 Z"/></g>
<g><path style="opacity:1" fill="#bc8bc2" d="M 206.5,70.5 C 207.165,72.3691 207.831,74.3691 208.5,76.5C 209.169,74.3691 209.835,72.3691 210.5,70.5C 210.5,72.8333 210.5,75.1667 210.5,77.5C 209.167,77.5 207.833,77.5 206.5,77.5C 206.5,75.1667 206.5,72.8333 206.5,70.5 Z"/></g>
<g><path style="opacity:1" fill="#a655f5" d="M 341.5,65.5 C 346.239,64.4071 348.239,66.2404 347.5,71C 348.074,75.7603 346.074,77.7603 341.5,77C 341.043,76.586 340.709,76.086 340.5,75.5C 341.833,74.8333 343.167,74.1667 344.5,73.5C 343.833,72.8333 343.167,72.1667 342.5,71.5C 343.853,70.4763 344.52,69.143 344.5,67.5C 342.821,67.7148 341.821,67.0481 341.5,65.5 Z"/></g>
<g><path style="opacity:1" fill="#c7c4d6" d="M 48.5,66.5 C 44.1617,66.6219 43.8284,66.9553 47.5,67.5C 47.6399,69.1238 46.9733,70.2904 45.5,71C 47.0368,72.1096 47.7035,73.6096 47.5,75.5C 43.8284,76.0447 44.1617,76.3781 48.5,76.5C 43.6946,77.4872 38.6946,77.8205 33.5,77.5C 33.2627,76.209 33.596,75.209 34.5,74.5C 34.9704,75.6935 35.9704,76.3601 37.5,76.5C 41.257,75.9481 41.257,74.9481 37.5,73.5C 37.9569,72.7025 38.6236,72.3691 39.5,72.5C 40.9187,73.4511 42.5853,73.7845 44.5,73.5C 44.2267,71.549 44.8934,70.049 46.5,69C 45.552,68.5172 44.552,68.3505 43.5,68.5C 43.5,67.5 43.5,66.5 43.5,65.5C 45.4147,65.2155 47.0813,65.5489 48.5,66.5 Z"/></g>
<g><path style="opacity:1" fill="#776f9b" d="M 94.5,66.5 C 95.5,66.5 96.5,66.5 97.5,66.5C 97.8723,69.6169 97.8723,72.6169 97.5,75.5C 97.1667,75.8333 96.8333,76.1667 96.5,76.5C 95.1585,74.9951 93.4918,74.3285 91.5,74.5C 91.9565,71.5944 92.9565,68.9278 94.5,66.5 Z"/></g>
<g><path style="opacity:1" fill="#dabcf8" d="M 338.5,70.5 C 337.595,71.9643 337.595,73.2976 338.5,74.5C 334.835,73.7073 334.835,72.374 338.5,70.5 Z"/></g>
<g><path style="opacity:1" fill="#9e47f4" d="M 394.5,66.5 C 396.06,68.1561 397.06,70.1561 397.5,72.5C 397.372,74.0898 396.705,75.4231 395.5,76.5C 393.821,74.8955 391.821,74.2289 389.5,74.5C 390.34,71.3243 392.007,68.6576 394.5,66.5 Z"/></g>
<g><path style="opacity:1" fill="#5dcde9" d="M 695.5,66.5 C 697.234,68.3216 698.234,70.6549 698.5,73.5C 698.081,74.6721 697.415,75.6721 696.5,76.5C 694.821,74.8955 692.821,74.2289 690.5,74.5C 691.34,71.3243 693.007,68.6576 695.5,66.5 Z"/></g>
<g><path style="opacity:1" fill="#79719d" d="M 16.5,65.5 C 23.2356,65.7348 24.2356,68.4015 19.5,73.5C 20.5,74.1667 21.5,74.8333 22.5,75.5C 20.2573,76.4742 17.924,76.8076 15.5,76.5C 16.9079,73.4904 18.2412,70.4904 19.5,67.5C 17.8212,67.7148 16.8212,67.0481 16.5,65.5 Z"/></g>
<g><path style="opacity:1" fill="#8078a1" d="M 39.5,72.5 C 38.6236,72.3691 37.9569,72.7025 37.5,73.5C 41.257,74.9481 41.257,75.9481 37.5,76.5C 35.9704,76.3601 34.9704,75.6935 34.5,74.5C 35.7945,72.6716 36.7945,70.6716 37.5,68.5C 36.5,68.5 35.5,68.5 34.5,68.5C 34.5,67.5 34.5,66.5 34.5,65.5C 40.2473,64.8715 41.914,67.2048 39.5,72.5 Z"/></g>
<g><path style="opacity:1" fill="#a655f5" d="M 338.5,70.5 C 334.835,72.374 334.835,73.7073 338.5,74.5C 336.721,76.3435 334.388,77.0102 331.5,76.5C 331.933,73.7147 333.266,71.3813 335.5,69.5C 334.167,68.8333 332.833,68.1667 331.5,67.5C 333.044,65.5539 335.044,65.0539 337.5,66C 338.38,67.3561 338.714,68.8561 338.5,70.5 Z"/></g>
<g><path style="opacity:1" fill="#67cfea" d="M 629.5,65.5 C 637.364,65.9253 638.364,68.7586 632.5,74C 633.624,74.2492 634.624,74.7492 635.5,75.5C 633.604,76.4656 631.604,76.7989 629.5,76.5C 629.343,75.1266 629.51,73.7932 630,72.5C 634.682,70.1966 634.515,68.8632 629.5,68.5C 629.5,67.5 629.5,66.5 629.5,65.5 Z"/></g>
<g><path style="opacity:1" fill="#77d3ec" d="M 638.5,65.5 C 640.467,65.2606 642.301,65.5939 644,66.5C 644.339,69.036 644.839,71.536 645.5,74C 643.769,77.8518 641.436,78.3518 638.5,75.5C 639.833,74.8333 641.167,74.1667 642.5,73.5C 641.675,72.6143 640.675,72.281 639.5,72.5C 639.36,70.8762 640.027,69.7096 641.5,69C 640.552,68.5172 639.552,68.3505 638.5,68.5C 638.5,67.5 638.5,66.5 638.5,65.5 Z"/></g>
<g><path style="opacity:1" fill="#73d2ec" d="M 665.5,70.5 C 666.5,70.5 667.5,70.5 668.5,70.5C 668.896,73.0444 668.229,75.2111 666.5,77C 662.575,77.2824 659.075,78.4491 656,80.5C 652.707,79.8621 651.707,77.8621 653,74.5C 653.271,78.1305 654.938,79.1305 658,77.5C 658.202,75.7444 658.702,74.0777 659.5,72.5C 661.163,73.8754 662.497,73.542 663.5,71.5C 665.002,75.374 665.669,75.0407 665.5,70.5 Z"/></g>
<g><path style="opacity:1" fill="#756d9a" d="M 26.5,65.5 C 32.1558,65.8674 33.9891,68.8674 32,74.5C 29.6667,77.1667 27.3333,77.1667 25,74.5C 24.068,71.1769 24.568,68.1769 26.5,65.5 Z"/></g>
<g><path style="opacity:1" fill="#e7e6ee" d="M 27.5,68.5 C 28.6935,68.9704 29.3601,69.9704 29.5,71.5C 29.1667,72.5 28.8333,73.5 28.5,74.5C 27.5344,72.604 27.2011,70.604 27.5,68.5 Z"/></g>
<g><path style="opacity:1" fill="#9f48f4" d="M 319.5,66.5 C 320.808,68.6381 320.475,70.6381 318.5,72.5C 316.013,73.7899 316.347,74.7899 319.5,75.5C 317.604,76.4656 315.604,76.7989 313.5,76.5C 314.382,73.615 315.716,70.9483 317.5,68.5C 316.737,67.7321 315.737,67.2321 314.5,67C 316.134,66.5065 317.801,66.3398 319.5,66.5 Z"/></g>
<g><path style="opacity:1" fill="#9d44f4" d="M 328.5,66.5 C 329.369,68.717 329.702,71.0504 329.5,73.5C 329.586,74.4959 329.252,75.3292 328.5,76C 326.402,76.6776 324.402,76.5109 322.5,75.5C 322.5,73.5 322.5,71.5 322.5,69.5C 322.539,68.4168 322.873,67.4168 323.5,66.5C 325.299,65.2121 326.965,65.2121 328.5,66.5 Z"/></g>
<g><path style="opacity:1" fill="#e0c5f9" d="M 324.5,68.5 C 325.5,68.5 326.5,68.5 327.5,68.5C 327.5,70.5 327.5,72.5 327.5,74.5C 326.5,74.5 325.5,74.5 324.5,74.5C 324.5,72.5 324.5,70.5 324.5,68.5 Z"/></g>
<g><path style="opacity:1" fill="#a553f5" d="M 380.5,70.5 C 381.461,72.2646 381.795,74.2646 381.5,76.5C 380.022,76.762 378.689,76.4287 377.5,75.5C 378.325,74.6143 379.325,74.281 380.5,74.5C 380.5,73.1667 380.5,71.8333 380.5,70.5 Z"/></g>
<g><path style="opacity:1" fill="#67cfeb" d="M 611.5,65.5 C 616.675,64.5071 618.509,66.5071 617,71.5C 613.709,73.0239 613.875,74.3573 617.5,75.5C 615.257,76.4742 612.924,76.8076 610.5,76.5C 610.933,73.7147 612.266,71.3813 614.5,69.5C 613.675,68.6143 612.675,68.281 611.5,68.5C 611.5,67.5 611.5,66.5 611.5,65.5 Z"/></g>
<g><path style="opacity:1" fill="#72d2ec" d="M 675.5,64.5 C 677.402,67.3373 678.069,70.6707 677.5,74.5C 679.838,73.5631 682.005,72.2297 684,70.5C 684.772,70.6448 685.439,70.9781 686,71.5C 686.494,73.1341 686.66,74.8008 686.5,76.5C 680.861,75.5205 676.194,77.0205 672.5,81C 671.552,81.4828 670.552,81.6495 669.5,81.5C 669.5,80.1667 669.5,78.8333 669.5,77.5C 670.5,77.5 671.5,77.5 672.5,77.5C 674.397,74.2223 675.397,69.889 675.5,64.5 Z"/></g>
<g><path style="opacity:1" fill="#d8b8f8" d="M 322.5,69.5 C 322.5,71.5 322.5,73.5 322.5,75.5C 319.627,77.6268 316.627,77.9601 313.5,76.5C 315.604,76.7989 317.604,76.4656 319.5,75.5C 316.347,74.7899 316.013,73.7899 318.5,72.5C 319.172,73.2674 320.005,73.9341 321,74.5C 321.198,72.6183 321.698,70.9516 322.5,69.5 Z"/></g>
<g><path style="opacity:1" fill="#a554f5" d="M 374.5,71.5 C 374.833,73.5 375.167,75.5 375.5,77.5C 374.626,79.69 372.959,80.69 370.5,80.5C 370.782,79.2223 371.449,78.2223 372.5,77.5C 372.025,74.9179 372.692,72.9179 374.5,71.5 Z"/></g>
<g><path style="opacity:1" fill="#cda1f8" d="M 368.5,75.5 C 369.183,77.1765 370.517,77.8432 372.5,77.5C 371.449,78.2223 370.782,79.2223 370.5,80.5C 367.684,79.8396 365.017,78.8396 362.5,77.5C 364.374,76.7148 366.374,76.0482 368.5,75.5 Z"/></g>
<g><path style="opacity:1" fill="#817aa2" d="M 71.5,74.5 C 72.1667,73.5 72.8333,72.5 73.5,71.5C 73.6427,73.2624 73.3094,74.9291 72.5,76.5C 70.5,77.5 68.5,78.5 66.5,79.5C 64.3019,76.7567 62.3019,76.9233 60.5,80C 59.2068,80.49 57.8734,80.6567 56.5,80.5C 56.3601,78.8762 57.0267,77.7096 58.5,77C 57.1667,75 57.1667,73 58.5,71C 60.5859,70.443 61.9193,71.2764 62.5,73.5C 63.6888,74.4287 65.0222,74.762 66.5,74.5C 67.1667,69.1667 67.8333,69.1667 68.5,74.5C 69.5,74.5 70.5,74.5 71.5,74.5 Z"/></g>
<g><path style="opacity:1" fill="#857ea5" d="M 77.5,70.5 C 79.8217,72.4116 82.4884,73.745 85.5,74.5C 85.238,73.0222 85.5713,71.6888 86.5,70.5C 87.0722,73.2019 87.4056,75.8686 87.5,78.5C 85.6017,79.7345 83.935,79.4011 82.5,77.5C 80.7539,79.8541 78.4206,80.8541 75.5,80.5C 75.3601,78.8762 76.0267,77.7096 77.5,77C 76.232,74.8368 76.232,72.6702 77.5,70.5 Z"/></g>
<g><path style="opacity:1" fill="#d7b4f9" d="M 380.5,70.5 C 380.5,71.8333 380.5,73.1667 380.5,74.5C 379.325,74.281 378.325,74.6143 377.5,75.5C 378.689,76.4287 380.022,76.762 381.5,76.5C 382.85,77.8235 382.683,78.8235 381,79.5C 379.403,78.1153 377.57,77.4486 375.5,77.5C 375.167,75.5 374.833,73.5 374.5,71.5C 375.779,72.968 377.446,73.6347 379.5,73.5C 379.263,72.209 379.596,71.209 380.5,70.5 Z"/></g>
<g><path style="opacity:1" fill="#c79fcc" d="M 206.5,85.5 C 207.833,85.5 209.167,85.5 210.5,85.5C 210.5,88.5 210.5,91.5 210.5,94.5C 209.167,94.5 207.833,94.5 206.5,94.5C 206.5,91.5 206.5,88.5 206.5,85.5 Z"/></g>
<g><path style="opacity:1" fill="#97499f" d="M 207.5,86.5 C 208.693,86.9704 209.36,87.9704 209.5,89.5C 209.167,90.5 208.833,91.5 208.5,92.5C 207.534,90.604 207.201,88.604 207.5,86.5 Z"/></g>
<g><path style="opacity:1" fill="#77a7d7" d="M 506.5,85.5 C 507.5,85.5 508.5,85.5 509.5,85.5C 509.5,88.1667 509.5,90.8333 509.5,93.5C 508.5,93.5 507.5,93.5 506.5,93.5C 506.5,90.8333 506.5,88.1667 506.5,85.5 Z"/></g>
<g><path style="opacity:1" fill="#a657f5" d="M 356.5,93.5 C 357.833,93.5 359.167,93.5 360.5,93.5C 360.5,96.1667 360.5,98.8333 360.5,101.5C 359.167,101.5 357.833,101.5 356.5,101.5C 356.5,98.8333 356.5,96.1667 356.5,93.5 Z"/></g>
<g><path style="opacity:1" fill="#75d2ec" d="M 655.5,92.5 C 656.833,92.5 658.167,92.5 659.5,92.5C 659.5,95.5 659.5,98.5 659.5,101.5C 658.167,101.5 656.833,101.5 655.5,101.5C 655.5,98.5 655.5,95.5 655.5,92.5 Z"/></g>
<g><path style="opacity:1" fill="#685f90" d="M 58.5,95.5 C 59.5,95.5 60.5,95.5 61.5,95.5C 61.5,98.1667 61.5,100.833 61.5,103.5C 60.5,103.5 59.5,103.5 58.5,103.5C 58.5,100.833 58.5,98.1667 58.5,95.5 Z"/></g>
<g><path style="opacity:1" fill="#b47dba" d="M 206.5,101.5 C 207.833,101.5 209.167,101.5 210.5,101.5C 210.5,104.5 210.5,107.5 210.5,110.5C 209.167,110.5 207.833,110.5 206.5,110.5C 206.5,107.5 206.5,104.5 206.5,101.5 Z"/></g>
<g><path style="opacity:1" fill="#71a3d5" d="M 505.5,101.5 C 506.833,101.5 508.167,101.5 509.5,101.5C 509.5,104.5 509.5,107.5 509.5,110.5C 508.167,110.5 506.833,110.5 505.5,110.5C 505.5,107.5 505.5,104.5 505.5,101.5 Z"/></g>
<g><path style="opacity:1" fill="#9e48f4" d="M 359.5,109.5 C 359.5,112.167 359.5,114.833 359.5,117.5C 357.821,117.715 356.821,117.048 356.5,115.5C 356.5,113.5 356.5,111.5 356.5,109.5C 357.5,109.5 358.5,109.5 359.5,109.5 Z"/></g>
<g><path style="opacity:1" fill="#c5c2d4" d="M 58.5,111.5 C 58.5,114.167 58.5,116.833 58.5,119.5C 59.5,119.5 60.5,119.5 61.5,119.5C 61.5,116.833 61.5,114.167 61.5,111.5C 62.2066,113.231 63.2066,114.897 64.5,116.5C 62.3345,117.88 62.0012,119.547 63.5,121.5C 61.1667,121.5 58.8333,121.5 56.5,121.5C 57.3414,119.621 57.6747,117.621 57.5,115.5C 57.2322,113.901 57.5655,112.568 58.5,111.5 Z"/></g>
<g><path style="opacity:1" fill="#655c8e" d="M 58.5,111.5 C 59.5,111.5 60.5,111.5 61.5,111.5C 61.5,114.167 61.5,116.833 61.5,119.5C 60.5,119.5 59.5,119.5 58.5,119.5C 58.5,116.833 58.5,114.167 58.5,111.5 Z"/></g>
<g><path style="opacity:1" fill="#cfa6f8" d="M 359.5,109.5 C 360.461,111.265 360.795,113.265 360.5,115.5C 361.5,115.5 362.5,115.5 363.5,115.5C 362.817,117.176 361.483,117.843 359.5,117.5C 359.5,114.833 359.5,112.167 359.5,109.5 Z"/></g>
<g><path style="opacity:1" fill="#a2dff1" d="M 662.5,115.5 C 660.91,117.821 658.577,118.821 655.5,118.5C 655.5,117.5 655.5,116.5 655.5,115.5C 655.5,113.167 655.5,110.833 655.5,108.5C 656.873,108.343 658.207,108.51 659.5,109C 659.859,111.63 660.859,113.797 662.5,115.5 Z"/></g>
<g><path style="opacity:1" fill="#efe5fa" d="M 356.5,115.5 C 356.821,117.048 357.821,117.715 359.5,117.5C 361.483,117.843 362.817,117.176 363.5,115.5C 369.2,116.62 373.534,119.62 376.5,124.5C 375.761,124.369 375.094,124.536 374.5,125C 376.795,127.757 377.795,130.923 377.5,134.5C 376.5,134.5 375.5,134.5 374.5,134.5C 374.737,133.209 374.404,132.209 373.5,131.5C 369.315,122.696 362.315,119.529 352.5,122C 347.362,125.119 344.362,129.619 343.5,135.5C 341.435,135.483 339.435,135.15 337.5,134.5C 339.205,123.49 345.538,117.157 356.5,115.5 Z"/></g>
<g><path style="opacity:1" fill="#e7f0f7" d="M 655.5,115.5 C 655.5,116.5 655.5,117.5 655.5,118.5C 658.577,118.821 660.91,117.821 662.5,115.5C 666.833,116.082 670.333,118.082 673,121.5C 682.632,134.809 680.799,146.309 667.5,156C 665.187,156.662 662.854,157.162 660.5,157.5C 660.806,160.385 660.473,163.052 659.5,165.5C 659.5,162.5 659.5,159.5 659.5,156.5C 656.959,155.897 654.626,155.897 652.5,156.5C 643.349,154.01 638.016,148.01 636.5,138.5C 600.833,138.5 565.167,138.5 529.5,138.5C 528.364,144.466 525.697,149.633 521.5,154C 517.813,156.285 513.813,157.452 509.5,157.5C 509.5,155.5 509.5,153.5 509.5,151.5C 517.318,150.685 521.985,146.352 523.5,138.5C 524.167,138.167 524.833,137.833 525.5,137.5C 564.341,137.52 603.341,137.52 642.5,137.5C 646.03,151.761 654.363,155.428 667.5,148.5C 677.038,136.873 675.038,127.706 661.5,121C 650.708,119.956 644.374,124.79 642.5,135.5C 602.833,135.5 563.167,135.5 523.5,135.5C 522.486,127.152 517.819,122.486 509.5,121.5C 509.5,120.167 509.5,118.833 509.5,117.5C 508.167,117.5 506.833,117.5 505.5,117.5C 505.5,118.833 505.5,120.167 505.5,121.5C 498.714,123.285 494.714,127.618 493.5,134.5C 491.5,134.5 489.5,134.5 487.5,134.5C 489.369,123.297 496.035,116.631 507.5,114.5C 520.01,115.684 527.343,122.35 529.5,134.5C 565.168,134.667 600.835,134.5 636.5,134C 638.453,123.212 644.786,117.046 655.5,115.5 Z"/></g>
<g><path style="opacity:1" fill="#e8e6ee" d="M 57.5,115.5 C 57.6747,117.621 57.3414,119.621 56.5,121.5C 47.9082,124.33 44.0749,130.33 45,139.5C 47.3119,148.369 52.8119,152.369 61.5,151.5C 69.9318,150.635 74.2651,145.968 74.5,137.5C 114.345,137.538 154.345,137.538 194.5,137.5C 195.297,144.961 199.297,149.628 206.5,151.5C 206.5,153.5 206.5,155.5 206.5,157.5C 203.252,157.336 200.252,156.336 197.5,154.5C 191.923,150.686 188.923,145.353 188.5,138.5C 152.833,138.5 117.167,138.5 81.5,138.5C 79.5426,149.314 73.2093,155.981 62.5,158.5C 62.5,161.833 62.5,165.167 62.5,168.5C 60.901,168.768 59.5676,168.434 58.5,167.5C 57.834,164.642 57.1674,161.642 56.5,158.5C 40.385,151.94 35.5516,140.606 42,124.5C 45.9568,119.276 51.1235,116.276 57.5,115.5 Z"/></g>
<g><path style="opacity:1" fill="#f1e8fa" d="M 372.5,133.5 C 371.082,135.308 369.082,135.975 366.5,135.5C 365.901,131.905 363.901,129.572 360.5,128.5C 360.5,127.5 360.5,126.5 360.5,125.5C 359.167,125.5 357.833,125.5 356.5,125.5C 356.5,126.5 356.5,127.5 356.5,128.5C 353.37,129.698 351.37,132.032 350.5,135.5C 349.167,135.5 347.833,135.5 346.5,135.5C 346.5,134.167 346.5,132.833 346.5,131.5C 348.613,126.061 352.613,123.394 358.5,123.5C 365.728,123.432 370.394,126.766 372.5,133.5 Z"/></g>
<g><path style="opacity:1" fill="#891ff3" d="M 360.5,128.5 C 363.901,129.572 365.901,131.905 366.5,135.5C 366.5,136.167 366.5,136.833 366.5,137.5C 365.89,138.391 365.557,139.391 365.5,140.5C 364.016,142.074 362.349,143.407 360.5,144.5C 359.839,145.718 359.172,147.051 358.5,148.5C 357.828,147.051 357.161,145.718 356.5,144.5C 353.81,142.807 351.81,140.473 350.5,137.5C 350.5,136.833 350.5,136.167 350.5,135.5C 351.37,132.032 353.37,129.698 356.5,128.5C 357.151,127.909 357.818,127.243 358.5,126.5C 359.182,127.243 359.849,127.909 360.5,128.5 Z"/></g>
<g><path style="opacity:1" fill="#d3d1df" d="M 194.5,134.5 C 194.5,134.833 194.5,135.167 194.5,135.5C 154.663,135.832 114.996,135.499 75.5,134.5C 77.4918,134.672 79.1585,134.005 80.5,132.5C 118.347,134.485 156.347,135.152 194.5,134.5 Z"/></g>
<g><path style="opacity:1" fill="#e5d4e7" d="M 337.5,134.5 C 300.004,135.498 262.337,135.832 224.5,135.5C 224.5,134.5 224.5,133.5 224.5,132.5C 225.467,133.806 226.801,134.473 228.5,134.5C 227.653,126.329 223.32,121.329 215.5,119.5C 215.5,118.5 215.5,117.5 215.5,116.5C 224.434,119.11 229.434,125.11 230.5,134.5C 266.167,134.5 301.833,134.5 337.5,134.5 Z"/></g>
<g><path style="opacity:1" fill="#dfc7f8" d="M 376.5,124.5 C 378.978,127.329 379.978,130.662 379.5,134.5C 415.5,134.5 451.5,134.5 487.5,134.5C 489.5,134.5 491.5,134.5 493.5,134.5C 493.5,135.167 493.167,135.5 492.5,135.5C 452.833,135.5 413.167,135.5 373.5,135.5C 373.5,134.5 373.5,133.5 373.5,132.5C 373.5,132.167 373.5,131.833 373.5,131.5C 374.404,132.209 374.737,133.209 374.5,134.5C 375.5,134.5 376.5,134.5 377.5,134.5C 377.795,130.923 376.795,127.757 374.5,125C 375.094,124.536 375.761,124.369 376.5,124.5 Z"/></g>
<g><path style="opacity:1" fill="#8b85aa" d="M 56.5,121.5 C 58.8333,121.5 61.1667,121.5 63.5,121.5C 70.3113,123.309 74.3113,127.642 75.5,134.5C 114.996,135.499 154.663,135.832 194.5,135.5C 194.5,136.167 194.5,136.833 194.5,137.5C 154.345,137.538 114.345,137.538 74.5,137.5C 74.2651,145.968 69.9318,150.635 61.5,151.5C 52.8119,152.369 47.3119,148.369 45,139.5C 44.0749,130.33 47.9082,124.33 56.5,121.5 Z"/></g>
<g><path style="opacity:1" fill="#554b82" d="M 67.5,135.5 C 67.5,136.167 67.5,136.833 67.5,137.5C 67.2341,140.933 65.4008,142.933 62,143.5C 61.5045,145.473 61.3379,147.473 61.5,149.5C 61.5,150.167 61.5,150.833 61.5,151.5C 60.5,151.5 59.5,151.5 58.5,151.5C 58.8064,148.615 58.4731,145.948 57.5,143.5C 53.9972,142.351 52.3305,139.851 52.5,136C 54.2847,128.162 58.618,126.495 65.5,131C 67.0368,132.11 67.7035,133.61 67.5,135.5 Z"/></g>
<g><path style="opacity:1" fill="#ececf2" d="M 67.5,135.5 C 67.7035,133.61 67.0368,132.11 65.5,131C 58.618,126.495 54.2847,128.162 52.5,136C 52.3305,139.851 53.9972,142.351 57.5,143.5C 57.5,145.5 57.5,147.5 57.5,149.5C 48.9495,147.082 45.4495,141.415 47,132.5C 51.2984,123.526 58.1317,121.026 67.5,125C 70.9339,127.703 72.9339,131.203 73.5,135.5C 71.5,135.5 69.5,135.5 67.5,135.5 Z"/></g>
<g><path style="opacity:1" fill="#b985be" d="M 224.5,132.5 C 224.5,133.5 224.5,134.5 224.5,135.5C 262.337,135.832 300.004,135.498 337.5,134.5C 339.435,135.15 341.435,135.483 343.5,135.5C 343.5,136.167 343.5,136.833 343.5,137.5C 342.167,137.5 340.833,137.5 339.5,137.5C 338.833,137.5 338.167,137.5 337.5,137.5C 299.833,137.5 262.167,137.5 224.5,137.5C 223.486,145.848 218.819,150.514 210.5,151.5C 210.5,153.833 210.5,156.167 210.5,158.5C 208.901,158.768 207.568,158.434 206.5,157.5C 207.5,157.5 208.5,157.5 209.5,157.5C 209.5,155.167 209.5,152.833 209.5,150.5C 208.209,150.263 207.209,150.596 206.5,151.5C 199.297,149.628 195.297,144.961 194.5,137.5C 194.5,136.833 194.5,136.167 194.5,135.5C 194.5,135.167 194.5,134.833 194.5,134.5C 195.587,128.073 199.253,123.74 205.5,121.5C 206.429,120.311 206.762,118.978 206.5,117.5C 209.5,117.167 210.833,118.5 210.5,121.5C 217.522,122.19 222.188,125.857 224.5,132.5 Z"/></g>
<g><path style="opacity:1" fill="#9d53a4" d="M 216.5,134.5 C 216.5,135.5 216.5,136.5 216.5,137.5C 214.638,143.93 210.638,145.763 204.5,143C 203.361,141.22 202.361,139.386 201.5,137.5C 201.5,136.833 201.5,136.167 201.5,135.5C 203.137,128.61 207.137,126.777 213.5,130C 214.883,131.271 215.883,132.771 216.5,134.5 Z"/></g>
<g><path style="opacity:1" fill="#f1ebf3" d="M 216.5,134.5 C 215.883,132.771 214.883,131.271 213.5,130C 207.137,126.777 203.137,128.61 201.5,135.5C 199.833,135.5 198.167,135.5 196.5,135.5C 196.569,129.382 199.569,125.382 205.5,123.5C 207.726,125.922 210.06,125.922 212.5,123.5C 218.664,125.169 221.997,129.169 222.5,135.5C 220.379,135.675 218.379,135.341 216.5,134.5 Z"/></g>
<g><path style="opacity:1" fill="#bf8eca" d="M 346.5,131.5 C 346.5,132.833 346.5,134.167 346.5,135.5C 347.833,135.5 349.167,135.5 350.5,135.5C 350.5,136.167 350.5,136.833 350.5,137.5C 348.833,137.5 347.167,137.5 345.5,137.5C 345.205,135.265 345.539,133.265 346.5,131.5 Z"/></g>
<g><path style="opacity:1" fill="#86b0db" d="M 642.5,135.5 C 642.5,136.167 642.5,136.833 642.5,137.5C 603.341,137.52 564.341,137.52 525.5,137.5C 524.833,137.833 524.167,138.167 523.5,138.5C 521.985,146.352 517.318,150.685 509.5,151.5C 509.5,153.5 509.5,155.5 509.5,157.5C 508.5,157.5 507.5,157.5 506.5,157.5C 506.5,155.5 506.5,153.5 506.5,151.5C 499.181,150.181 494.847,145.847 493.5,138.5C 493.5,137.833 493.167,137.5 492.5,137.5C 492.5,136.833 492.5,136.167 492.5,135.5C 493.167,135.5 493.5,135.167 493.5,134.5C 494.714,127.618 498.714,123.285 505.5,121.5C 505.5,120.167 505.5,118.833 505.5,117.5C 506.833,117.5 508.167,117.5 509.5,117.5C 509.5,118.833 509.5,120.167 509.5,121.5C 517.819,122.486 522.486,127.152 523.5,135.5C 563.167,135.5 602.833,135.5 642.5,135.5 Z"/></g>
<g><path style="opacity:1" fill="#528fcd" d="M 515.5,135.5 C 515.5,136.167 515.5,136.833 515.5,137.5C 513.988,143.423 510.321,145.423 504.5,143.5C 502.748,141.754 501.415,139.754 500.5,137.5C 500.5,136.833 500.5,136.167 500.5,135.5C 500.5,135.167 500.5,134.833 500.5,134.5C 501.391,130.957 503.724,129.29 507.5,129.5C 512.121,129.124 514.788,131.124 515.5,135.5 Z"/></g>
<g><path style="opacity:1" fill="#e8eef6" d="M 515.5,135.5 C 514.788,131.124 512.121,129.124 507.5,129.5C 503.724,129.29 501.391,130.957 500.5,134.5C 498.833,134.5 497.167,134.5 495.5,134.5C 495.873,128.785 498.873,125.118 504.5,123.5C 506.726,125.922 509.06,125.922 511.5,123.5C 517.402,125.398 520.735,129.398 521.5,135.5C 519.5,135.5 517.5,135.5 515.5,135.5 Z"/></g>
<g><path style="opacity:1" fill="#ac62f5" d="M 373.5,132.5 C 373.5,133.5 373.5,134.5 373.5,135.5C 413.167,135.5 452.833,135.5 492.5,135.5C 492.5,136.167 492.5,136.833 492.5,137.5C 454.427,137.173 416.427,137.507 378.5,138.5C 377.081,137.549 375.415,137.216 373.5,137.5C 373.847,142.475 371.847,146.142 367.5,148.5C 367.5,148.167 367.5,147.833 367.5,147.5C 369.604,145.628 370.937,143.295 371.5,140.5C 372.404,139.791 372.737,138.791 372.5,137.5C 370.5,137.5 368.5,137.5 366.5,137.5C 366.5,136.833 366.5,136.167 366.5,135.5C 369.082,135.975 371.082,135.308 372.5,133.5C 372.5,132.833 372.833,132.5 373.5,132.5 Z"/></g>
<g><path style="opacity:1" fill="#a667f2" d="M 500.5,135.5 C 500.5,136.167 500.5,136.833 500.5,137.5C 498.5,137.5 496.5,137.5 494.5,137.5C 495.918,135.692 497.918,135.025 500.5,135.5 Z"/></g>
<g><path style="opacity:1" fill="#e5d1f8" d="M 492.5,137.5 C 493.167,137.5 493.5,137.833 493.5,138.5C 455.427,138.173 417.427,138.507 379.5,139.5C 378.833,139.5 378.5,139.167 378.5,138.5C 416.427,137.507 454.427,137.173 492.5,137.5 Z"/></g>
<g><path style="opacity:1" fill="#f2edf4" d="M 201.5,137.5 C 202.361,139.386 203.361,141.22 204.5,143C 210.638,145.763 214.638,143.93 216.5,137.5C 218.5,137.5 220.5,137.5 222.5,137.5C 219.187,149.652 211.854,152.819 200.5,147C 197.511,144.517 196.178,141.35 196.5,137.5C 198.167,137.5 199.833,137.5 201.5,137.5 Z"/></g>
<g><path style="opacity:1" fill="#ede4f0" d="M 337.5,137.5 C 337.5,137.833 337.5,138.167 337.5,138.5C 301.833,138.5 266.167,138.5 230.5,138.5C 228.508,149.825 221.841,156.492 210.5,158.5C 210.5,156.167 210.5,153.833 210.5,151.5C 218.819,150.514 223.486,145.848 224.5,137.5C 262.167,137.5 299.833,137.5 337.5,137.5 Z"/></g>
<g><path style="opacity:1" fill="#f0e6fa" d="M 339.5,137.5 C 340.833,137.5 342.167,137.5 343.5,137.5C 347,151.378 355,155.045 367.5,148.5C 371.847,146.142 373.847,142.475 373.5,137.5C 375.415,137.216 377.081,137.549 378.5,138.5C 378.5,139.167 378.833,139.5 379.5,139.5C 377.838,149.828 371.838,155.828 361.5,157.5C 361.806,160.385 361.473,163.052 360.5,165.5C 360.5,162.5 360.5,159.5 360.5,156.5C 358.738,156.643 357.071,156.309 355.5,155.5C 354.702,155.957 354.369,156.624 354.5,157.5C 353.833,157.167 353.167,156.833 352.5,156.5C 352.586,155.504 352.252,154.671 351.5,154C 344.692,150.555 340.692,145.055 339.5,137.5 Z"/></g>
<g><path style="opacity:1" fill="#dabaf8" d="M 366.5,137.5 C 368.5,137.5 370.5,137.5 372.5,137.5C 372.737,138.791 372.404,139.791 371.5,140.5C 371.38,139.414 370.713,138.747 369.5,138.5C 367.927,138.752 366.594,139.418 365.5,140.5C 365.557,139.391 365.89,138.391 366.5,137.5 Z"/></g>
<g><path style="opacity:1" fill="#f1eaf9" d="M 345.5,137.5 C 347.167,137.5 348.833,137.5 350.5,137.5C 351.81,140.473 353.81,142.807 356.5,144.5C 356.5,146.167 356.5,147.833 356.5,149.5C 350.086,148.084 346.42,144.084 345.5,137.5 Z"/></g>
<g><path style="opacity:1" fill="#f2ebfa" d="M 371.5,140.5 C 370.937,143.295 369.604,145.628 367.5,147.5C 365.442,148.933 363.108,149.6 360.5,149.5C 360.5,147.833 360.5,146.167 360.5,144.5C 362.349,143.407 364.016,142.074 365.5,140.5C 366.594,139.418 367.927,138.752 369.5,138.5C 370.713,138.747 371.38,139.414 371.5,140.5 Z"/></g>
<g><path style="opacity:1" fill="#eceff7" d="M 494.5,137.5 C 496.5,137.5 498.5,137.5 500.5,137.5C 501.415,139.754 502.748,141.754 504.5,143.5C 510.321,145.423 513.988,143.423 515.5,137.5C 517.5,137.5 519.5,137.5 521.5,137.5C 518.144,149.665 510.81,152.832 499.5,147C 496.718,144.394 495.052,141.227 494.5,137.5 Z"/></g>
<g><path style="opacity:1" fill="#eae9f0" d="M 67.5,137.5 C 69.5,137.5 71.5,137.5 73.5,137.5C 72.4581,144.542 68.4581,148.542 61.5,149.5C 61.3379,147.473 61.5045,145.473 62,143.5C 65.4008,142.933 67.2341,140.933 67.5,137.5 Z"/></g>
<g><path style="opacity:1" fill="#dfc7f8" d="M 337.5,137.5 C 338.167,137.5 338.833,137.5 339.5,137.5C 340.692,145.055 344.692,150.555 351.5,154C 352.252,154.671 352.586,155.504 352.5,156.5C 343.946,153.601 338.946,147.601 337.5,138.5C 337.5,138.167 337.5,137.833 337.5,137.5 Z"/></g>
<g><path style="opacity:1" fill="#86d7ee" d="M 642.5,137.5 C 642.5,136.833 642.5,136.167 642.5,135.5C 644.374,124.79 650.708,119.956 661.5,121C 675.038,127.706 677.038,136.873 667.5,148.5C 654.363,155.428 646.03,151.761 642.5,137.5 Z"/></g>
<g><path style="opacity:1" fill="#eef5f9" d="M 649.5,137.5 C 650.357,140.92 652.357,143.254 655.5,144.5C 655.5,146.167 655.5,147.833 655.5,149.5C 649.086,148.084 645.42,144.084 644.5,137.5C 646.167,137.5 647.833,137.5 649.5,137.5 Z"/></g>
<g><path style="opacity:1" fill="#42c4e6" d="M 659.5,144.5 C 658.839,145.718 658.172,147.051 657.5,148.5C 656.828,147.051 656.161,145.718 655.5,144.5C 652.357,143.254 650.357,140.92 649.5,137.5C 649.5,136.833 649.5,136.167 649.5,135.5C 651.076,131.922 653.076,128.588 655.5,125.5C 656.833,125.5 658.167,125.5 659.5,125.5C 659.972,128.815 661.805,131.149 665,132.5C 666.442,138.134 664.609,142.134 659.5,144.5 Z"/></g>
<g><path style="opacity:1" fill="#edf5f9" d="M 659.5,144.5 C 664.609,142.134 666.442,138.134 665,132.5C 661.805,131.149 659.972,128.815 659.5,125.5C 658.167,125.5 656.833,125.5 655.5,125.5C 653.076,128.588 651.076,131.922 649.5,135.5C 647.833,135.5 646.167,135.5 644.5,135.5C 646.223,125.955 651.89,122.121 661.5,124C 669.479,127.128 672.313,132.961 670,141.5C 667.856,145.985 664.356,148.651 659.5,149.5C 659.5,147.833 659.5,146.167 659.5,144.5 Z"/></g>
<g><path style="opacity:1" fill="#b572f6" d="M 373.5,131.5 C 373.5,131.833 373.5,132.167 373.5,132.5C 372.833,132.5 372.5,132.833 372.5,133.5C 370.394,126.766 365.728,123.432 358.5,123.5C 352.613,123.394 348.613,126.061 346.5,131.5C 345.539,133.265 345.205,135.265 345.5,137.5C 346.42,144.084 350.086,148.084 356.5,149.5C 356.5,147.833 356.5,146.167 356.5,144.5C 357.161,145.718 357.828,147.051 358.5,148.5C 359.172,147.051 359.839,145.718 360.5,144.5C 360.5,146.167 360.5,147.833 360.5,149.5C 363.108,149.6 365.442,148.933 367.5,147.5C 367.5,147.833 367.5,148.167 367.5,148.5C 355,155.045 347,151.378 343.5,137.5C 343.5,136.833 343.5,136.167 343.5,135.5C 344.362,129.619 347.362,125.119 352.5,122C 362.315,119.529 369.315,122.696 373.5,131.5 Z"/></g>
<g><path style="opacity:1" fill="#c087f7" d="M 360.5,128.5 C 359.849,127.909 359.182,127.243 358.5,126.5C 357.818,127.243 357.151,127.909 356.5,128.5C 356.5,127.5 356.5,126.5 356.5,125.5C 357.833,125.5 359.167,125.5 360.5,125.5C 360.5,126.5 360.5,127.5 360.5,128.5 Z"/></g>
<g><path style="opacity:1" fill="#a059a7" d="M 206.5,157.5 C 206.5,155.5 206.5,153.5 206.5,151.5C 207.209,150.596 208.209,150.263 209.5,150.5C 209.5,152.833 209.5,155.167 209.5,157.5C 208.5,157.5 207.5,157.5 206.5,157.5 Z"/></g>
<g><path style="opacity:1" fill="#c28cf7" d="M 360.5,165.5 C 360.167,165.5 359.833,165.5 359.5,165.5C 358.833,154.833 358.167,154.833 357.5,165.5C 357.098,162.523 356.098,159.857 354.5,157.5C 354.369,156.624 354.702,155.957 355.5,155.5C 357.071,156.309 358.738,156.643 360.5,156.5C 360.5,159.5 360.5,162.5 360.5,165.5 Z"/></g>
<g><path style="opacity:1" fill="#8f2af3" d="M 359.5,165.5 C 358.833,165.5 358.167,165.5 357.5,165.5C 358.167,154.833 358.833,154.833 359.5,165.5 Z"/></g>
<g><path style="opacity:1" fill="#7dd5ed" d="M 659.5,165.5 C 658.432,166.434 657.099,166.768 655.5,166.5C 655.5,163.5 655.5,160.5 655.5,157.5C 654.209,157.737 653.209,157.404 652.5,156.5C 654.626,155.897 656.959,155.897 659.5,156.5C 659.5,159.5 659.5,162.5 659.5,165.5 Z"/></g>
<g><path style="opacity:1" fill="#5f5589" d="M 58.5,167.5 C 58.5,165.167 58.5,162.833 58.5,160.5C 59.5,160.5 60.5,160.5 61.5,160.5C 61.5,162.833 61.5,165.167 61.5,167.5C 60.5,167.5 59.5,167.5 58.5,167.5 Z"/></g>
<g><path style="opacity:1" fill="#c8a0cd" d="M 206.5,165.5 C 207.833,165.5 209.167,165.5 210.5,165.5C 210.5,168.5 210.5,171.5 210.5,174.5C 209.167,174.5 207.833,174.5 206.5,174.5C 206.5,171.5 206.5,168.5 206.5,165.5 Z"/></g>
<g><path style="opacity:1" fill="#994da1" d="M 207.5,166.5 C 208.725,167.152 209.392,168.319 209.5,170C 209.167,171.167 208.833,172.333 208.5,173.5C 207.526,171.257 207.192,168.924 207.5,166.5 Z"/></g>
<g><path style="opacity:1" fill="#80acd9" d="M 506.5,165.5 C 507.5,165.5 508.5,165.5 509.5,165.5C 509.5,168.5 509.5,171.5 509.5,174.5C 508.5,174.5 507.5,174.5 506.5,174.5C 506.5,171.5 506.5,168.5 506.5,165.5 Z"/></g>
<g><path style="opacity:1" fill="#b572f6" d="M 356.5,173.5 C 357.833,173.5 359.167,173.5 360.5,173.5C 360.5,176.5 360.5,179.5 360.5,182.5C 359.167,182.5 357.833,182.5 356.5,182.5C 356.5,179.5 356.5,176.5 356.5,173.5 Z"/></g>
<g><path style="opacity:1" fill="#8616f3" d="M 357.5,174.5 C 358.725,175.152 359.392,176.319 359.5,178C 359.167,179.167 358.833,180.333 358.5,181.5C 357.526,179.257 357.192,176.924 357.5,174.5 Z"/></g>
<g><path style="opacity:1" fill="#5dcce9" d="M 655.5,173.5 C 656.833,173.5 658.167,173.5 659.5,173.5C 659.5,176.5 659.5,179.5 659.5,182.5C 658.167,182.5 656.833,182.5 655.5,182.5C 655.5,179.5 655.5,176.5 655.5,173.5 Z"/></g>
<g><path style="opacity:1" fill="#aeaac4" d="M 57.5,175.5 C 59.1667,175.5 60.8333,175.5 62.5,175.5C 62.5,178.5 62.5,181.5 62.5,184.5C 60.8333,184.5 59.1667,184.5 57.5,184.5C 57.5,181.5 57.5,178.5 57.5,175.5 Z"/></g>
<g><path style="opacity:1" fill="#564d83" d="M 58.5,176.5 C 59.5,176.5 60.5,176.5 61.5,176.5C 61.5,178.833 61.5,181.167 61.5,183.5C 60.5,183.5 59.5,183.5 58.5,183.5C 58.5,181.167 58.5,178.833 58.5,176.5 Z"/></g>
<g><path style="opacity:1" fill="#c69dcb" d="M 209.5,182.5 C 210.473,184.948 210.806,187.615 210.5,190.5C 209.167,190.5 207.833,190.5 206.5,190.5C 206.5,187.5 206.5,184.5 206.5,181.5C 207.791,181.263 208.791,181.596 209.5,182.5 Z"/></g>
<g><path style="opacity:1" fill="#994ba0" d="M 209.5,182.5 C 209.808,184.924 209.474,187.257 208.5,189.5C 208.167,188.333 207.833,187.167 207.5,186C 207.608,184.319 208.275,183.152 209.5,182.5 Z"/></g>
<g><path style="opacity:1" fill="#86b0db" d="M 506.5,181.5 C 507.5,181.5 508.5,181.5 509.5,181.5C 509.5,184.5 509.5,187.5 509.5,190.5C 508.167,190.5 506.833,190.5 505.5,190.5C 505.264,187.391 505.597,184.391 506.5,181.5 Z"/></g>
<g><path style="opacity:1" fill="#9e48f5" d="M 359.5,190.5 C 360.01,193.388 359.344,195.721 357.5,197.5C 356.371,195.372 356.204,193.039 357,190.5C 357.977,189.226 358.811,189.226 359.5,190.5 Z"/></g>
<g><path style="opacity:1" fill="#80d6ed" d="M 655.5,189.5 C 656.833,189.5 658.167,189.5 659.5,189.5C 659.5,192.5 659.5,195.5 659.5,198.5C 658.167,198.5 656.833,198.5 655.5,198.5C 655.5,195.5 655.5,192.5 655.5,189.5 Z"/></g>
<g><path style="opacity:1" fill="#655c8e" d="M 58.5,192.5 C 59.5,192.5 60.5,192.5 61.5,192.5C 61.5,194.833 61.5,197.167 61.5,199.5C 60.5,199.5 59.5,199.5 58.5,199.5C 58.5,197.167 58.5,194.833 58.5,192.5 Z"/></g>
<g><path style="opacity:1" fill="#d5aff9" d="M 359.5,190.5 C 360.21,192.893 360.877,195.393 361.5,198C 359.934,198.765 358.601,198.598 357.5,197.5C 359.344,195.721 360.01,193.388 359.5,190.5 Z"/></g>
<g><path style="opacity:1" fill="#83aeda" d="M 544.5,198.5 C 548.335,199.004 548.335,200.004 544.5,201.5C 549.603,203.9 549.77,206.567 545,209.5C 539.202,206.03 539.035,202.363 544.5,198.5 Z"/></g>
<g><path style="opacity:1" fill="#c9a1cd" d="M 233.5,197.5 C 235.423,201.029 236.089,205.029 235.5,209.5C 234.5,209.5 233.5,209.5 232.5,209.5C 232.237,205.4 232.57,201.4 233.5,197.5 Z"/></g>
<g><path style="opacity:1" fill="#77a6d7" d="M 488.5,198.5 C 490.467,198.261 492.301,198.594 494,199.5C 494.784,202.76 494.617,205.927 493.5,209C 487.656,209.398 487.323,208.565 492.5,206.5C 491.737,205.281 490.737,204.281 489.5,203.5C 490.167,202.833 490.833,202.167 491.5,201.5C 490.007,200.859 489.007,199.859 488.5,198.5 Z"/></g>
<g><path style="opacity:1" fill="#ae71b4" d="M 190.5,198.5 C 192.167,198.5 193.833,198.5 195.5,198.5C 195.681,201.553 195.848,204.553 196,207.5C 194.445,209.515 192.611,209.848 190.5,208.5C 191.325,207.614 192.325,207.281 193.5,207.5C 193.52,205.857 192.853,204.524 191.5,203.5C 192.167,202.833 192.833,202.167 193.5,201.5C 192.007,200.859 191.007,199.859 190.5,198.5 Z"/></g>
<g><path style="opacity:1" fill="#b075b6" d="M 240.5,198.5 C 242.199,198.34 243.866,198.506 245.5,199C 247.17,202.451 246.17,204.951 242.5,206.5C 243.5,207.167 244.5,207.833 245.5,208.5C 243.604,209.466 241.604,209.799 239.5,209.5C 238.923,206.45 240.09,204.45 243,203.5C 243.483,202.552 243.649,201.552 243.5,200.5C 241.821,200.715 240.821,200.048 240.5,198.5 Z"/></g>
<g><path style="opacity:1" fill="#79a8d8" d="M 461.5,198.5 C 466.123,197.408 467.956,199.075 467,203.5C 465.926,204.618 464.76,205.618 463.5,206.5C 464.833,207.167 466.167,207.833 467.5,208.5C 465.257,209.474 462.924,209.808 460.5,209.5C 459.923,206.45 461.09,204.45 464,203.5C 464.483,202.552 464.649,201.552 464.5,200.5C 462.821,200.715 461.821,200.048 461.5,198.5 Z"/></g>
<g><path style="opacity:1" fill="#b074b6" d="M 181.5,198.5 C 183.199,198.34 184.866,198.506 186.5,199C 188.17,202.451 187.17,204.951 183.5,206.5C 184.5,207.167 185.5,207.833 186.5,208.5C 184.604,209.466 182.604,209.799 180.5,209.5C 179.923,206.45 181.09,204.45 184,203.5C 184.483,202.552 184.649,201.552 184.5,200.5C 182.821,200.715 181.821,200.048 181.5,198.5 Z"/></g>
<g><path style="opacity:1" fill="#ac6db2" d="M 249.5,198.5 C 256.198,198.216 258.198,201.216 255.5,207.5C 253.287,210.08 251.12,210.08 249,207.5C 248.264,204.408 248.431,201.408 249.5,198.5 Z"/></g>
<g><path style="opacity:1" fill="#e1cde4" d="M 250.5,200.5 C 251.5,200.5 252.5,200.5 253.5,200.5C 253.808,202.924 253.474,205.257 252.5,207.5C 251.914,207.291 251.414,206.957 251,206.5C 250.505,204.527 250.338,202.527 250.5,200.5 Z"/></g>
<g><path style="opacity:1" fill="#7ba9d8" d="M 525.5,198.5 C 527.388,200.988 528.055,203.988 527.5,207.5C 529.874,206.786 531.874,205.452 533.5,203.5C 536.517,204.38 537.184,206.214 535.5,209C 526.478,211.176 523.145,207.676 525.5,198.5 Z"/></g>
<g><path style="opacity:1" fill="#d6bada" d="M 211.5,197.5 C 212.166,200.358 212.833,203.358 213.5,206.5C 214.429,205.311 214.762,203.978 214.5,202.5C 215.5,202.5 216.5,202.5 217.5,202.5C 217.5,205.167 217.5,207.833 217.5,210.5C 218.833,210.5 220.167,210.5 221.5,210.5C 221.082,211.222 220.416,211.722 219.5,212C 220.094,212.464 220.761,212.631 221.5,212.5C 221.265,213.097 220.765,213.43 220,213.5C 217.203,213.178 214.703,212.178 212.5,210.5C 211.817,210.863 211.15,211.196 210.5,211.5C 211.841,209.88 213.674,208.88 216,208.5C 216.667,206.833 216.667,205.167 216,203.5C 215.51,204.793 215.343,206.127 215.5,207.5C 214.167,207.5 212.833,207.5 211.5,207.5C 211.5,204.167 211.5,200.833 211.5,197.5 Z"/></g>
<g><path style="opacity:1" fill="#b37ab9" d="M 228.5,202.5 C 229.693,202.97 230.36,203.97 230.5,205.5C 230.739,208.946 229.406,209.946 226.5,208.5C 228.104,206.821 228.771,204.821 228.5,202.5 Z"/></g>
<g><path style="opacity:1" fill="#7eabd9" d="M 522.5,204.5 C 523.725,205.152 524.392,206.319 524.5,208C 524.896,211.939 523.229,213.272 519.5,212C 520.416,211.626 521.25,211.126 522,210.5C 522.495,208.527 522.662,206.527 522.5,204.5 Z"/></g>
<g><path style="opacity:1" fill="#b075b6" d="M 162.5,198.5 C 169.236,198.735 170.236,201.401 165.5,206.5C 166.833,207.167 168.167,207.833 169.5,208.5C 166.914,209.48 164.247,209.813 161.5,209.5C 161.595,206.728 162.929,204.728 165.5,203.5C 166.386,202.675 166.719,201.675 166.5,200.5C 164.517,200.843 163.183,200.176 162.5,198.5 Z"/></g>
<g><path style="opacity:1" fill="#aa6bb1" d="M 172.5,198.5 C 174.467,198.261 176.301,198.594 178,199.5C 179.004,202.993 178.504,206.159 176.5,209C 174.888,209.72 173.388,209.554 172,208.5C 171.253,205.076 171.42,201.743 172.5,198.5 Z"/></g>
<g><path style="opacity:1" fill="#e1cee4" d="M 173.5,200.5 C 174.5,200.5 175.5,200.5 176.5,200.5C 176.662,202.527 176.495,204.527 176,206.5C 175.586,206.957 175.086,207.291 174.5,207.5C 173.526,205.257 173.192,202.924 173.5,200.5 Z"/></g>
<g><path style="opacity:1" fill="#a85af5" d="M 360.5,213.5 C 359.691,211.708 359.191,209.708 359,207.5C 358.998,210.051 358.164,212.051 356.5,213.5C 356.337,211.143 356.503,208.81 357,206.5C 358,205.167 359,205.167 360,206.5C 360.497,208.81 360.663,211.143 360.5,213.5 Z"/></g>
<g><path style="opacity:1" fill="#8b24f3" d="M 360.5,213.5 C 367.91,215.434 370.41,220.1 368,227.5C 364.723,233.109 359.89,234.942 353.5,233C 346.894,226.593 346.894,220.259 353.5,214C 354.448,213.517 355.448,213.351 356.5,213.5C 358.164,212.051 358.998,210.051 359,207.5C 359.191,209.708 359.691,211.708 360.5,213.5 Z"/></g>
<g><path style="opacity:1" fill="#74a5d6" d="M 471.5,198.5 C 476.989,198.504 478.822,201.171 477,206.5C 475.174,210.037 472.84,210.371 470,207.5C 469.068,204.177 469.568,201.177 471.5,198.5 Z"/></g>
<g><path style="opacity:1" fill="#e2eaf4" d="M 472.5,200.5 C 473.725,201.152 474.392,202.319 474.5,204C 474.167,205.167 473.833,206.333 473.5,207.5C 472.526,205.257 472.192,202.924 472.5,200.5 Z"/></g>
<g><path style="opacity:1" fill="#74a5d6" d="M 479.5,198.5 C 486.236,198.735 487.236,201.401 482.5,206.5C 483.5,207.167 484.5,207.833 485.5,208.5C 483.257,209.474 480.924,209.808 478.5,209.5C 478.595,206.728 479.929,204.728 482.5,203.5C 483.386,202.675 483.719,201.675 483.5,200.5C 481.517,200.843 480.183,200.176 479.5,198.5 Z"/></g>
<g><path style="opacity:1" fill="#4ac6e7" d="M 655.5,205.5 C 656.833,205.5 658.167,205.5 659.5,205.5C 659.187,208.247 659.52,210.914 660.5,213.5C 670.314,218.862 670.981,225.362 662.5,233C 651.054,234.887 646.22,230.054 648,218.5C 649.591,215.4 652.091,213.733 655.5,213.5C 655.5,210.833 655.5,208.167 655.5,205.5 Z"/></g>
<g><path style="opacity:1" fill="#5d5388" d="M 58.5,208.5 C 59.5,208.5 60.5,208.5 61.5,208.5C 61.1924,210.924 61.5258,213.257 62.5,215.5C 72.3077,221.16 72.9744,227.66 64.5,235C 53.6046,237.106 48.7713,232.606 50,221.5C 51.605,217.724 54.4384,215.724 58.5,215.5C 58.5,213.167 58.5,210.833 58.5,208.5 Z"/></g>
<g><path style="opacity:1" fill="#b177b7" d="M 211.5,197.5 C 211.5,200.833 211.5,204.167 211.5,207.5C 212.833,207.5 214.167,207.5 215.5,207.5C 215.343,206.127 215.51,204.793 216,203.5C 216.667,205.167 216.667,206.833 216,208.5C 213.674,208.88 211.841,209.88 210.5,211.5C 204.64,212.926 202.64,210.926 204.5,205.5C 205.429,206.689 205.762,208.022 205.5,209.5C 206.833,209.5 208.167,209.5 209.5,209.5C 208.911,205.029 209.577,201.029 211.5,197.5 Z"/></g>
<g><path style="opacity:1" fill="#b076b6" d="M 221.5,212.5 C 220.761,212.631 220.094,212.464 219.5,212C 220.416,211.722 221.082,211.222 221.5,210.5C 221.331,204.285 222.331,203.618 224.5,208.5C 223.965,210.261 222.965,211.594 221.5,212.5 Z"/></g>
<g><path style="opacity:1" fill="#81adda" d="M 515.5,203.5 C 517.745,204.828 518.078,206.661 516.5,209C 514.1,209.186 511.766,209.686 509.5,210.5C 506.902,214.452 504.402,214.452 502,210.5C 501.219,209.056 501.386,207.723 502.5,206.5C 503.429,207.689 503.762,209.022 503.5,210.5C 505.167,210.5 506.833,210.5 508.5,210.5C 508.338,208.473 508.505,206.473 509,204.5C 510.316,207.028 511.483,207.028 512.5,204.5C 514.367,207.229 515.367,206.896 515.5,203.5 Z"/></g>
<g><path style="opacity:1" fill="#fbf7fe" d="M 360.5,219.5 C 362.722,219.559 363.722,220.725 363.5,223C 363.481,224.833 362.815,226.333 361.5,227.5C 359.097,227.552 356.764,227.219 354.5,226.5C 354.5,226.167 354.5,225.833 354.5,225.5C 354.167,221.167 356.167,219.167 360.5,219.5 Z"/></g>
<g><path style="opacity:1" fill="#f0fafd" d="M 656.5,218.5 C 662.723,219.246 664.056,222.246 660.5,227.5C 656.308,229.32 653.641,227.987 652.5,223.5C 652.852,220.954 654.185,219.288 656.5,218.5 Z"/></g>
<g><path style="opacity:1" fill="#ddbcfb" d="M 360.5,219.5 C 356.167,219.167 354.167,221.167 354.5,225.5C 352.568,221.726 353.735,219.393 358,218.5C 359.07,218.528 359.903,218.861 360.5,219.5 Z"/></g>
<g><path style="opacity:1" fill="#efeff3" d="M 57.5,220.5 C 64.6275,220.706 66.2942,223.873 62.5,230C 54.4079,230.09 52.7412,226.923 57.5,220.5 Z"/></g>
<g><path style="opacity:1" fill="#dbb8fb" d="M 354.5,226.5 C 356.764,227.219 359.097,227.552 361.5,227.5C 360.726,228.147 359.726,228.48 358.5,228.5C 356.645,228.66 355.312,227.993 354.5,226.5 Z"/></g>
<g><path style="opacity:1" fill="#a6a5ae" d="M 94.5,247.5 C 94.5,248.833 94.5,250.167 94.5,251.5C 93.5,251.5 92.5,251.5 91.5,251.5C 91.6646,248.482 91.498,245.482 91,242.5C 90.8171,245.365 90.3171,248.031 89.5,250.5C 89.5,247.5 89.5,244.5 89.5,241.5C 90.5,241.5 91.5,241.5 92.5,241.5C 92.3354,244.518 92.502,247.518 93,250.5C 93.2321,249.263 93.7321,248.263 94.5,247.5 Z"/></g>
<g><path style="opacity:1" fill="#b1b1b9" d="M 44.5,251.5 C 44.6602,249.801 44.4935,248.134 44,246.5C 43.6174,247.056 43.1174,247.389 42.5,247.5C 42.5,245.833 42.5,244.167 42.5,242.5C 43.5,242.5 44.5,242.5 45.5,242.5C 45.81,245.713 45.4767,248.713 44.5,251.5 Z"/></g>
<g><path style="opacity:1" fill="#8a8a95" d="M 64.5,241.5 C 65.5,241.5 66.5,241.5 67.5,241.5C 67.6653,245.182 67.4986,248.848 67,252.5C 66.586,252.957 66.086,253.291 65.5,253.5C 64.5091,249.555 64.1758,245.555 64.5,241.5 Z"/></g>
<g><path style="opacity:1" fill="#7b7a87" d="M 103.5,241.5 C 104.794,243.048 105.461,245.048 105.5,247.5C 105.167,249.5 104.833,251.5 104.5,253.5C 103.509,249.555 103.176,245.555 103.5,241.5 Z"/></g>
<g><path style="opacity:1" fill="#2d2c40" d="M 356.5,251.5 C 356.5,252.167 356.167,252.5 355.5,252.5C 350.644,252.862 349.978,252.196 353.5,250.5C 353.56,251.043 353.893,251.376 354.5,251.5C 355.821,239.573 356.488,239.573 356.5,251.5 Z"/></g>
<g><path style="opacity:1" fill="#9e9da7" d="M 356.5,251.5 C 356.488,239.573 355.821,239.573 354.5,251.5C 353.893,251.376 353.56,251.043 353.5,250.5C 354.477,247.713 354.81,244.713 354.5,241.5C 355.5,241.5 356.5,241.5 357.5,241.5C 357.813,245.042 357.479,248.375 356.5,251.5 Z"/></g>
<g><path style="opacity:1" fill="#adacb5" d="M 620.5,241.5 C 620.5,244.833 620.5,248.167 620.5,251.5C 619.776,253.218 619.109,255.052 618.5,257C 616.866,257.494 615.199,257.66 613.5,257.5C 613.285,255.821 613.952,254.821 615.5,254.5C 614.719,256.663 615.553,256.996 618,255.5C 618.667,253.5 618.667,251.5 618,249.5C 617.802,251.382 617.302,253.048 616.5,254.5C 616.5,252.5 616.5,250.5 616.5,248.5C 617.5,248.5 618.5,248.5 619.5,248.5C 619.198,245.941 619.532,243.607 620.5,241.5 Z"/></g>
<g><path style="opacity:1" fill="#82818e" d="M 651.5,241.5 C 652.5,241.5 653.5,241.5 654.5,241.5C 654.824,245.555 654.491,249.555 653.5,253.5C 652.914,253.291 652.414,252.957 652,252.5C 651.501,248.848 651.335,245.182 651.5,241.5 Z"/></g>
<g><path style="opacity:1" fill="#b6b6bd" d="M 393.5,247.5 C 392.844,246.722 392.011,246.056 391,245.5C 390.235,245.57 389.735,245.903 389.5,246.5C 389.167,246.5 388.833,246.5 388.5,246.5C 388.5,244.833 388.5,243.167 388.5,241.5C 390.167,241.5 391.833,241.5 393.5,241.5C 393.5,243.5 393.5,245.5 393.5,247.5 Z"/></g>
<g><path style="opacity:1" fill="#6d6c7a" d="M 353.5,250.5 C 349.978,252.196 350.644,252.862 355.5,252.5C 353.735,253.461 351.735,253.795 349.5,253.5C 349.626,251.8 350.293,250.3 351.5,249C 349.678,245.588 349.345,242.088 350.5,238.5C 351.503,242.512 352.503,246.512 353.5,250.5 Z"/></g>
<g><path style="opacity:1" fill="#bbbbc3" d="M 638.5,249.5 C 638.5,249.833 638.5,250.167 638.5,250.5C 635.7,251.903 634.2,250.903 634,247.5C 633.43,250.844 632.264,251.177 630.5,248.5C 629.833,249.167 629.167,249.833 628.5,250.5C 627.735,249.388 626.735,248.721 625.5,248.5C 626.991,246.443 628.658,244.443 630.5,242.5C 631.509,245.337 633.509,246.67 636.5,246.5C 636.285,248.179 636.952,249.179 638.5,249.5 Z"/></g>
<g><path style="opacity:1" fill="#c6c6cd" d="M 606.5,243.5 C 605.146,246.033 605.98,247.7 609,248.5C 609.483,249.448 609.649,250.448 609.5,251.5C 607.801,251.66 606.134,251.494 604.5,251C 604.12,248.674 603.12,246.841 601.5,245.5C 600.194,244.533 599.527,243.199 599.5,241.5C 602.211,241.185 604.544,241.852 606.5,243.5 Z"/></g>
<g><path style="opacity:1" fill="#5f5d6d" d="M 621.5,252.5 C 630.173,252.666 638.84,252.5 647.5,252C 644.413,251.741 641.413,251.241 638.5,250.5C 638.5,250.167 638.5,249.833 638.5,249.5C 638.962,248.12 639.962,247.453 641.5,247.5C 643.427,249.293 645.761,250.293 648.5,250.5C 648.335,247.482 648.502,244.482 649,241.5C 649.793,245.423 649.626,249.256 648.5,253C 639.324,253.824 630.324,253.657 621.5,252.5 Z"/></g>
<g><path style="opacity:1" fill="#c2c1c8" d="M 672.5,251.5 C 672.549,246.461 671.882,246.295 670.5,251C 666.718,252.221 663.718,251.387 661.5,248.5C 661.735,247.903 662.235,247.57 663,247.5C 665.256,249.085 667.756,249.752 670.5,249.5C 670.5,248.5 670.5,247.5 670.5,246.5C 671.5,246.5 672.5,246.5 673.5,246.5C 673.784,248.415 673.451,250.081 672.5,251.5 Z"/></g>
<g><path style="opacity:1" fill="#525162" d="M 48.5,241.5 C 48.3354,244.518 48.502,247.518 49,250.5C 49.414,250.957 49.914,251.291 50.5,251.5C 51.4287,250.311 51.762,248.978 51.5,247.5C 55.0181,244.618 57.0181,245.618 57.5,250.5C 58.5,250.5 59.5,250.5 60.5,250.5C 60.1826,247.428 60.5159,244.428 61.5,241.5C 62.7948,245.38 62.7948,249.214 61.5,253C 57.1667,253.667 52.8333,253.667 48.5,253C 47.179,249.066 47.179,245.233 48.5,241.5 Z"/></g>
<g><path style="opacity:1" fill="#b3b2ba" d="M 48.5,241.5 C 49.3171,243.969 49.8171,246.635 50,249.5C 50.2784,248.584 50.7784,247.918 51.5,247.5C 51.762,248.978 51.4287,250.311 50.5,251.5C 49.914,251.291 49.414,250.957 49,250.5C 48.502,247.518 48.3354,244.518 48.5,241.5 Z"/></g>
<g><path style="opacity:1" fill="#b7b7bf" d="M 75.5,256.5 C 81.0666,257.247 82.9,254.913 81,249.5C 80.79,251.058 80.29,252.391 79.5,253.5C 79.5,251.833 79.5,250.167 79.5,248.5C 76.0429,248.333 75.7096,247.333 78.5,245.5C 82.3137,248.187 83.4804,251.853 82,256.5C 79.7265,257.811 77.5598,257.811 75.5,256.5 Z"/></g>
<g><path style="opacity:1" fill="#515061" d="M 94.5,247.5 C 95.6354,245.787 97.302,245.12 99.5,245.5C 99.5,246.5 99.5,247.5 99.5,248.5C 98.325,248.281 97.325,248.614 96.5,249.5C 97.8333,250.167 99.1667,250.833 100.5,251.5C 100.291,252.086 99.9574,252.586 99.5,253C 94.5111,253.499 89.5111,253.666 84.5,253.5C 85.4106,250.039 85.7439,246.706 85.5,243.5C 86.4749,246.152 87.8082,248.486 89.5,250.5C 90.3171,248.031 90.8171,245.365 91,242.5C 91.498,245.482 91.6646,248.482 91.5,251.5C 92.5,251.5 93.5,251.5 94.5,251.5C 94.5,250.167 94.5,248.833 94.5,247.5 Z"/></g>
<g><path style="opacity:1" fill="#595868" d="M 326.5,241.5 C 328.402,244.337 329.069,247.671 328.5,251.5C 329.5,251.5 330.5,251.5 331.5,251.5C 331.408,247.929 333.074,246.762 336.5,248C 337.047,248.925 337.713,249.758 338.5,250.5C 339.466,246.862 341.799,245.195 345.5,245.5C 345.5,246.5 345.5,247.5 345.5,248.5C 344.325,248.281 343.325,248.614 342.5,249.5C 344.167,250.167 345.833,250.833 347.5,251.5C 346.624,252.251 345.624,252.751 344.5,253C 338.833,253.667 333.167,253.667 327.5,253C 326.54,249.27 326.207,245.437 326.5,241.5 Z"/></g>
<g><path style="opacity:1" fill="#454456" d="M 393.5,247.5 C 393.5,248.833 393.5,250.167 393.5,251.5C 394.833,251.5 396.167,251.5 397.5,251.5C 397.215,249.712 397.548,248.045 398.5,246.5C 399.694,248.516 399.694,250.516 398.5,252.5C 388.652,252.173 378.986,252.506 369.5,253.5C 369.101,256.988 368.434,257.154 367.5,254C 368.02,249.735 370.354,247.569 374.5,247.5C 374.167,250.5 375.5,251.833 378.5,251.5C 379.167,244.833 379.833,244.833 380.5,251.5C 383.766,251.567 385.266,249.901 385,246.5C 385.21,248.058 385.71,249.391 386.5,250.5C 388.503,251.532 390.503,251.198 392.5,249.5C 391.66,248.265 390.66,247.265 389.5,246.5C 389.735,245.903 390.235,245.57 391,245.5C 392.011,246.056 392.844,246.722 393.5,247.5 Z"/></g>
<g><path style="opacity:1" fill="#747381" d="M 388.5,246.5 C 388.833,246.5 389.167,246.5 389.5,246.5C 390.66,247.265 391.66,248.265 392.5,249.5C 390.503,251.198 388.503,251.532 386.5,250.5C 387.345,249.329 388.011,247.995 388.5,246.5 Z"/></g>
<g><path style="opacity:1" fill="#4f4e5f" d="M 601.5,245.5 C 603.12,246.841 604.12,248.674 604.5,251C 606.134,251.494 607.801,251.66 609.5,251.5C 609.649,250.448 609.483,249.448 609,248.5C 605.98,247.7 605.146,246.033 606.5,243.5C 608.094,243.08 609.594,242.414 611,241.5C 611.5,241.833 612,242.167 612.5,242.5C 611.167,243.5 609.833,244.5 608.5,245.5C 611.257,247.088 612.09,249.421 611,252.5C 609.769,253.108 608.436,253.441 607,253.5C 604.239,252.582 601.406,251.916 598.5,251.5C 598.025,248.687 599.025,246.687 601.5,245.5 Z"/></g>
<g><path style="opacity:1" fill="#424153" d="M 620.5,241.5 C 621.319,244.305 621.819,247.305 622,250.5C 623.011,251.337 624.178,251.67 625.5,251.5C 625.5,250.5 625.5,249.5 625.5,248.5C 626.735,248.721 627.735,249.388 628.5,250.5C 629.167,249.833 629.833,249.167 630.5,248.5C 632.264,251.177 633.43,250.844 634,247.5C 634.2,250.903 635.7,251.903 638.5,250.5C 641.413,251.241 644.413,251.741 647.5,252C 638.84,252.5 630.173,252.666 621.5,252.5C 620.833,252.5 620.5,252.167 620.5,251.5C 620.5,248.167 620.5,244.833 620.5,241.5 Z"/></g>
<g><path style="opacity:1" fill="#3e3e50" d="M 672.5,251.5 C 672.5,252.167 672.167,252.5 671.5,252.5C 668.5,252.5 665.5,252.5 662.5,252.5C 661.566,251.432 661.232,250.099 661.5,248.5C 663.718,251.387 666.718,252.221 670.5,251C 671.882,246.295 672.549,246.461 672.5,251.5 Z"/></g>
<g><path style="opacity:1" fill="#4f4e5f" d="M 675.5,241.5 C 677.402,244.337 678.069,247.671 677.5,251.5C 680.388,251.78 681.888,250.447 682,247.5C 683.5,252.667 681.667,254.5 676.5,253C 675.54,249.27 675.207,245.437 675.5,241.5 Z"/></g>
<g><path style="opacity:1" fill="#515061" d="M 690.5,245.5 C 695.168,244.839 697.168,246.839 696.5,251.5C 697.833,251.5 699.167,251.5 700.5,251.5C 700.622,247.162 700.955,246.828 701.5,250.5C 702.5,250.5 703.5,250.5 704.5,250.5C 704.227,248.042 705.227,246.375 707.5,245.5C 711.105,247.527 711.439,250.027 708.5,253C 704.5,253.667 700.5,253.667 696.5,253C 693.715,249.539 692.048,250.039 691.5,254.5C 693.604,254.201 695.604,254.534 697.5,255.5C 690.374,257.319 688.708,254.986 692.5,248.5C 691.388,247.735 690.721,246.735 690.5,245.5 Z"/></g>
<g><path style="opacity:1" fill="#616070" d="M 44.5,251.5 C 41.3418,252.784 38.3418,254.451 35.5,256.5C 34.6236,256.631 33.9569,256.298 33.5,255.5C 34.325,254.614 35.325,254.281 36.5,254.5C 36.7678,252.901 36.4345,251.568 35.5,250.5C 36.354,248.066 37.354,248.233 38.5,251C 39.7932,251.49 41.1266,251.657 42.5,251.5C 42.5,250.167 42.5,248.833 42.5,247.5C 43.1174,247.389 43.6174,247.056 44,246.5C 44.4935,248.134 44.6602,249.801 44.5,251.5 Z"/></g>
<g><path style="opacity:1" fill="#7c7b88" d="M 662.5,252.5 C 665.5,252.5 668.5,252.5 671.5,252.5C 670.077,253.449 668.577,254.449 667,255.5C 665.423,254.449 663.923,253.449 662.5,252.5 Z"/></g>
<g><path style="opacity:1" fill="#a5a4ad" d="M 29.5,247.5 C 29.56,246.957 29.8933,246.624 30.5,246.5C 31.4742,248.743 31.8076,251.076 31.5,253.5C 32.8333,253.5 34.1667,253.5 35.5,253.5C 35.5,252.5 35.5,251.5 35.5,250.5C 36.4345,251.568 36.7678,252.901 36.5,254.5C 35.325,254.281 34.325,254.614 33.5,255.5C 33.9569,256.298 34.6236,256.631 35.5,256.5C 35.2648,257.097 34.7648,257.43 34,257.5C 31.4671,256.45 29.3004,255.117 27.5,253.5C 28.4959,253.586 29.3292,253.252 30,252.5C 30.7796,250.613 30.6129,248.946 29.5,247.5 Z"/></g>
<g><path style="opacity:1" fill="#8f8f9a" d="M 369.5,253.5 C 378.986,252.506 388.652,252.173 398.5,252.5C 392.958,253.369 387.292,254.369 381.5,255.5C 377.543,254.463 373.543,253.796 369.5,253.5 Z"/></g>
<g><path style="opacity:1" fill="#4f4e5f" d="M 75.5,256.5 C 73.3843,254.912 73.051,252.912 74.5,250.5C 75.4287,251.689 75.762,253.022 75.5,254.5C 77.099,254.768 78.4324,254.434 79.5,253.5C 80.29,252.391 80.79,251.058 81,249.5C 82.9,254.913 81.0666,257.247 75.5,256.5 Z"/></g>
<g><path style="opacity:1" fill="#565566" d="M 322.5,241.5 C 323.794,243.048 324.461,245.048 324.5,247.5C 325.661,253.503 323.327,256.003 317.5,255C 316.424,253.274 316.257,251.441 317,249.5C 317.271,253.13 318.938,254.13 322,252.5C 322.499,248.848 322.665,245.182 322.5,241.5 Z"/></g>
<g><path style="opacity:1" fill="#5d5d6c" d="M 29.5,247.5 C 30.6129,248.946 30.7796,250.613 30,252.5C 29.3292,253.252 28.4959,253.586 27.5,253.5C 25.8656,254.207 24.5323,255.373 23.5,257C 18.2925,257.622 16.6258,255.455 18.5,250.5C 19.4287,251.689 19.762,253.022 19.5,254.5C 20.8333,254.5 22.1667,254.5 23.5,254.5C 23.2011,252.396 23.5344,250.396 24.5,248.5C 25.8415,250.005 27.5082,250.672 29.5,250.5C 29.5,249.5 29.5,248.5 29.5,247.5 Z"/></g>
<g><path style="opacity:1" fill="#3f3e50" d="M 615.5,254.5 C 615.833,254.5 616.167,254.5 616.5,254.5C 617.302,253.048 617.802,251.382 618,249.5C 618.667,251.5 618.667,253.5 618,255.5C 615.553,256.996 614.719,256.663 615.5,254.5 Z"/></g>
</svg>
