<?xml version="1.0" encoding="UTF-8"?>
<!DOCTYPE svg PUBLIC "-//W3C//DTD SVG 1.1//EN" "http://www.w3.org/Graphics/SVG/1.1/DTD/svg11.dtd">
<svg xmlns="http://www.w3.org/2000/svg" version="1.1" width="135px" height="132px" style="shape-rendering:geometricPrecision; text-rendering:geometricPrecision; image-rendering:optimizeQuality; fill-rule:evenodd; clip-rule:evenodd" xmlns:xlink="http://www.w3.org/1999/xlink">
<g><path style="opacity:1" fill="#f5f8fa" d="M -0.5,-0.5 C 44.5,-0.5 89.5,-0.5 134.5,-0.5C 134.5,43.5 134.5,87.5 134.5,131.5C 89.5,131.5 44.5,131.5 -0.5,131.5C -0.5,87.5 -0.5,43.5 -0.5,-0.5 Z"/></g>
<g><path style="opacity:1" fill="#71e5f4" d="M 63.5,4.5 C 66.5,4.5 69.5,4.5 72.5,4.5C 72.5,5.5 72.5,6.5 72.5,7.5C 69.5,7.5 66.5,7.5 63.5,7.5C 63.5,6.5 63.5,5.5 63.5,4.5 Z"/></g>
<g><path style="opacity:1" fill="#6de3f3" d="M 54.5,5.5 C 56.5,5.5 58.5,5.5 60.5,5.5C 60.5,6.5 60.5,7.5 60.5,8.5C 57.4824,8.70381 54.4824,9.03714 51.5,9.5C 51.5,8.5 51.5,7.5 51.5,6.5C 52.791,6.73731 53.791,6.40397 54.5,5.5 Z"/></g>
<g><path style="opacity:1" fill="#75e5f4" d="M 76.5,4.5 C 79.5448,4.50795 82.5448,4.84128 85.5,5.5C 85.5,6.5 85.5,7.5 85.5,8.5C 83.1432,8.66331 80.8098,8.49665 78.5,8C 77.0267,7.29044 76.3601,6.12377 76.5,4.5 Z"/></g>
<g><path style="opacity:1" fill="#79e5f4" d="M 88.5,7.5 C 91.5641,7.92752 94.5641,8.59418 97.5,9.5C 97.5,10.5 97.5,11.5 97.5,12.5C 94.6872,12.4519 92.0205,11.7853 89.5,10.5C 88.6143,9.67504 88.281,8.67504 88.5,7.5 Z"/></g>
<g><path style="opacity:1" fill="#6ce3f3" d="M 46.5,8.5 C 48.1765,9.18342 48.8432,10.5168 48.5,12.5C 45.6703,12.6941 43.0037,13.3608 40.5,14.5C 40.281,13.325 40.6143,12.325 41.5,11.5C 43.3964,10.7255 45.063,9.72549 46.5,8.5 Z"/></g>
<g><path style="opacity:1" fill="#3bdbf0" d="M 122.5,52.5 C 122.907,58.1613 123.24,63.828 123.5,69.5C 120.219,95.9499 105.552,112.117 79.5,118C 47.2617,120.755 26.7617,106.588 18,75.5C 14.478,44.0381 27.6447,23.2048 57.5,13C 79.6197,9.31826 98.1197,15.8183 113,32.5C 117.516,38.5309 120.682,45.1976 122.5,52.5 Z"/></g>
<g><path style="opacity:1" fill="#5ce1f3" d="M 100.5,12.5 C 103.34,13.4234 105.674,15.0901 107.5,17.5C 107,17.8333 106.5,18.1667 106,18.5C 102.75,17.659 100.917,15.659 100.5,12.5 Z"/></g>
<g><path style="opacity:1" fill="#5de1f3" d="M 34.5,15.5 C 35.675,15.281 36.675,15.6143 37.5,16.5C 35.9095,18.6326 33.9095,20.2993 31.5,21.5C 30.4173,20.635 30.2506,19.635 31,18.5C 32.5185,17.8366 33.6851,16.8366 34.5,15.5 Z"/></g>
<g><path style="opacity:1" fill="#f7f7fa" d="M 63.5,17.5 C 86.9526,16.2424 104.119,25.9091 115,46.5C 122.705,71.72 115.872,91.8867 94.5,107C 59.8768,120.938 36.0435,110.438 23,75.5C 20.0688,44.3193 33.5688,24.9859 63.5,17.5 Z"/></g>
<g><path style="opacity:1" fill="#66e2f3" d="M 110.5,20.5 C 113.878,21.8779 116.211,24.2112 117.5,27.5C 113.5,26.8333 111.167,24.5 110.5,20.5 Z"/></g>
<g><path style="opacity:1" fill="#60e1f3" d="M 25.5,23.5 C 26.675,23.281 27.675,23.6143 28.5,24.5C 26.8766,26.7913 25.0433,28.7913 23,30.5C 22.5,30.1667 22,29.8333 21.5,29.5C 22.8435,27.4714 24.1769,25.4714 25.5,23.5 Z"/></g>
<g><path style="opacity:1" fill="#5fe1f2" d="M 118.5,29.5 C 121.163,31.0886 123.163,33.4219 124.5,36.5C 120.676,36.3188 118.676,33.9854 118.5,29.5 Z"/></g>
<g><path style="opacity:1" fill="#59e0f2" d="M 18.5,33.5 C 19.4972,33.4701 20.1639,33.9701 20.5,35C 19.7771,37.5533 18.4438,39.72 16.5,41.5C 15.3465,38.4469 16.0132,35.7803 18.5,33.5 Z"/></g>
<g><path style="opacity:1" fill="#b36df6" d="M 75.5,42.5 C 78.6363,41.9791 80.9696,42.9791 82.5,45.5C 81.8333,46.5 81.1667,47.5 80.5,48.5C 80.719,47.325 80.3857,46.325 79.5,45.5C 78.7025,45.9569 78.3691,46.6236 78.5,47.5C 77.2089,46.4583 77.2089,45.2917 78.5,44C 77.2625,43.7679 76.2625,43.2679 75.5,42.5 Z"/></g>
<g><path style="opacity:1" fill="#4edff2" d="M 124.5,40.5 C 125.5,40.5 126.5,40.5 127.5,40.5C 128.205,43.2443 128.205,45.911 127.5,48.5C 125.377,46.2546 124.377,43.5879 124.5,40.5 Z"/></g>
<g><path style="opacity:1" fill="#63e1f2" d="M 13.5,44.5 C 14.6491,44.7911 15.3158,45.6244 15.5,47C 14.6358,49.2285 13.6358,51.3952 12.5,53.5C 11.1973,50.3166 11.5306,47.3166 13.5,44.5 Z"/></g>
<g><path style="opacity:1" fill="#59e0f2" d="M 128.5,53.5 C 129.931,53.8807 130.764,54.8807 131,56.5C 131.798,58.2588 131.631,59.9255 130.5,61.5C 129.914,61.2907 129.414,60.9574 129,60.5C 128.503,58.1902 128.337,55.8568 128.5,53.5 Z"/></g>
<g><path style="opacity:1" fill="#5de1f2" d="M 9.5,57.5 C 10.5,57.5 11.5,57.5 12.5,57.5C 12.5,60.1667 12.5,62.8333 12.5,65.5C 11.5,65.5 10.5,65.5 9.5,65.5C 9.5,62.8333 9.5,60.1667 9.5,57.5 Z"/></g>
<g><path style="opacity:1" fill="#a756f4" d="M 75.5,42.5 C 76.2625,43.2679 77.2625,43.7679 78.5,44C 77.2089,45.2917 77.2089,46.4583 78.5,47.5C 78.8417,48.3382 79.5084,48.6716 80.5,48.5C 81.1667,47.5 81.8333,46.5 82.5,45.5C 83.1239,45.9169 83.4573,46.5836 83.5,47.5C 80.732,50.4037 80.8987,53.0704 84,55.5C 84.4935,57.1341 84.6602,58.8008 84.5,60.5C 81.0515,63.5576 77.0515,65.5576 72.5,66.5C 70.2486,64.8538 68.582,62.6871 67.5,60C 66.2506,59.2599 65.2506,59.4265 64.5,60.5C 63.0331,61.2916 61.6998,61.2916 60.5,60.5C 61.9448,58.9373 63.6115,57.604 65.5,56.5C 64.3073,54.6163 62.6406,54.1163 60.5,55C 55.6657,58.2516 50.6657,61.2516 45.5,64C 44.6634,65.0113 44.33,66.1779 44.5,67.5C 49.2462,66.2135 53.7462,64.2135 58,61.5C 58.7648,61.5699 59.2648,61.9033 59.5,62.5C 55.2947,65.525 50.7947,68.1916 46,70.5C 41.6582,67.6095 41.4915,64.4428 45.5,61C 51.4204,58.219 56.7537,54.719 61.5,50.5C 60.758,48.0202 59.758,45.6869 58.5,43.5C 61.2447,39.6219 64.9113,36.9552 69.5,35.5C 72.6486,36.7672 74.6486,39.1005 75.5,42.5 Z"/></g>
<g><path style="opacity:1" fill="#eee3fa" d="M 64.5,60.5 C 63.4479,62.256 61.7812,62.9227 59.5,62.5C 59.2648,61.9033 58.7648,61.5699 58,61.5C 53.7462,64.2135 49.2462,66.2135 44.5,67.5C 44.33,66.1779 44.6634,65.0113 45.5,64C 50.6657,61.2516 55.6657,58.2516 60.5,55C 62.6406,54.1163 64.3073,54.6163 65.5,56.5C 63.6115,57.604 61.9448,58.9373 60.5,60.5C 61.6998,61.2916 63.0331,61.2916 64.5,60.5 Z"/></g>
<g><path style="opacity:1" fill="#e9daf9" d="M 80.5,48.5 C 79.5084,48.6716 78.8417,48.3382 78.5,47.5C 78.3691,46.6236 78.7025,45.9569 79.5,45.5C 80.3857,46.325 80.719,47.325 80.5,48.5 Z"/></g>
<g><path style="opacity:1" fill="#f4edf9" d="M 67.5,38.5 C 68.9778,38.238 70.3112,38.5713 71.5,39.5C 75.4192,45.6697 79.0859,52.0031 82.5,58.5C 79.7748,60.6162 76.9415,62.6162 74,64.5C 72.2326,63.66 70.8993,62.3266 70,60.5C 67.3333,55.8333 64.6667,51.1667 62,46.5C 61.3333,45.1667 61.3333,43.8333 62,42.5C 64.0153,41.3034 65.8487,39.9701 67.5,38.5 Z"/></g>
<g><path style="opacity:1" fill="#ecdffa" d="M 84.5,60.5 C 85.0998,61.8999 86.0998,62.8999 87.5,63.5C 83.2588,64.9539 79.2588,66.9539 75.5,69.5C 74.9002,68.1001 73.9002,67.1001 72.5,66.5C 77.0515,65.5576 81.0515,63.5576 84.5,60.5 Z"/></g>
<g><path style="opacity:1" fill="#abedf7" d="M 122.5,52.5 C 124.55,58.0896 124.883,63.7563 123.5,69.5C 123.24,63.828 122.907,58.1613 122.5,52.5 Z"/></g>
<g><path style="opacity:1" fill="#6ae3f3" d="M 9.5,69.5 C 10.5,69.5 11.5,69.5 12.5,69.5C 12.9629,72.4824 13.2962,75.4824 13.5,78.5C 12.5,78.5 11.5,78.5 10.5,78.5C 10.0371,75.5176 9.70381,72.5176 9.5,69.5 Z"/></g>
<g><path style="opacity:1" fill="#82e7f4" d="M 128.5,65.5 C 129.5,65.5 130.5,65.5 131.5,65.5C 131.5,68.5 131.5,71.5 131.5,74.5C 130.5,74.5 129.5,74.5 128.5,74.5C 128.5,71.5 128.5,68.5 128.5,65.5 Z"/></g>
<g><path style="opacity:1" fill="#e4d0f9" d="M 88.5,73.5 C 89.3446,74.6715 90.0113,76.0048 90.5,77.5C 88.3804,78.85 88.547,80.5167 91,82.5C 91.6667,83.5 91.6667,84.5 91,85.5C 88.2497,81.6682 85.7497,77.6682 83.5,73.5C 84.0016,72.479 84.6683,72.3123 85.5,73C 87.0851,76.8943 88.0851,77.061 88.5,73.5 Z"/></g>
<g><path style="opacity:1" fill="#67e2f3" d="M 127.5,77.5 C 128.5,77.5 129.5,77.5 130.5,77.5C 130.657,78.8734 130.49,80.2068 130,81.5C 129.1,83.3975 127.934,85.0642 126.5,86.5C 126.167,86 125.833,85.5 125.5,85C 126.479,82.5667 127.145,80.0667 127.5,77.5 Z"/></g>
<g><path style="opacity:1" fill="#a655f5" d="M 87.5,63.5 C 90.1063,66.2796 90.1063,69.113 87.5,72C 87.5699,72.7648 87.9033,73.2648 88.5,73.5C 88.0851,77.061 87.0851,76.8943 85.5,73C 84.6683,72.3123 84.0016,72.479 83.5,73.5C 85.7497,77.6682 88.2497,81.6682 91,85.5C 91.6667,84.5 91.6667,83.5 91,82.5C 88.547,80.5167 88.3804,78.85 90.5,77.5C 92.8572,80.8351 94.1906,84.5018 94.5,88.5C 91.2155,88.7307 88.7155,87.3974 87,84.5C 85.6274,81.5875 84.1274,78.7542 82.5,76C 80.5,75.6667 78.5,75.3333 76.5,75C 74.4468,73.3221 74.1134,71.4888 75.5,69.5C 79.2588,66.9539 83.2588,64.9539 87.5,63.5 Z"/></g>
<g><path style="opacity:1" fill="#e9d9fa" d="M 83.5,66.5 C 85.9424,66.3537 86.6091,67.187 85.5,69C 83.5566,70.5555 81.3899,71.7221 79,72.5C 78.5,72.1667 78,71.8333 77.5,71.5C 79.5309,69.8253 81.5309,68.1586 83.5,66.5 Z"/></g>
<g><path style="opacity:1" fill="#67e2f3" d="M 12.5,81.5 C 13.4959,81.4142 14.3292,81.7476 15,82.5C 15.6575,85.2848 16.4909,87.9514 17.5,90.5C 16.325,90.719 15.325,90.3857 14.5,89.5C 13.2147,86.9795 12.5481,84.3128 12.5,81.5 Z"/></g>
<g><path style="opacity:1" fill="#fdd0ce" d="M 76.5,79.5 C 84.8865,79.7724 85.2198,80.6058 77.5,82C 75.2406,83.7146 73.0739,85.5479 71,87.5C 70.5045,89.4727 70.3379,91.4727 70.5,93.5C 79.5,93.5 88.5,93.5 97.5,93.5C 97.5,89.5 97.5,85.5 97.5,81.5C 96.325,81.719 95.325,81.3857 94.5,80.5C 96.0064,79.2528 97.5064,79.2528 99,80.5C 99.6667,84.8333 99.6667,89.1667 99,93.5C 98.5,94 98,94.5 97.5,95C 88.1667,95.6667 78.8333,95.6667 69.5,95C 67.5561,92.8471 67.0561,90.3471 68,87.5C 70.7291,84.6007 73.5624,81.934 76.5,79.5 Z"/></g>
<g><path style="opacity:1" fill="#5de1f2" d="M 123.5,89.5 C 124.5,89.5 125.5,89.5 126.5,89.5C 125.86,92.7741 124.193,95.4408 121.5,97.5C 121.167,97 120.833,96.5 120.5,96C 121.906,94.022 122.906,91.8553 123.5,89.5 Z"/></g>
<g><path style="opacity:1" fill="#65e2f3" d="M 17.5,93.5 C 20.9373,95.0226 22.9373,97.6893 23.5,101.5C 19.6881,100.337 17.6881,97.6702 17.5,93.5 Z"/></g>
<g><path style="opacity:1" fill="#58e1f2" d="M 117.5,100.5 C 119.225,100.843 119.725,101.843 119,103.5C 117.649,105.019 116.149,106.352 114.5,107.5C 113.417,106.635 113.251,105.635 114,104.5C 115.376,103.295 116.542,101.962 117.5,100.5 Z"/></g>
<g><path style="opacity:1" fill="#5de1f3" d="M 24.5,103.5 C 28.3232,104.609 29.9899,106.943 29.5,110.5C 26.6095,108.957 24.9429,106.624 24.5,103.5 Z"/></g>
<g><path style="opacity:1" fill="#5ce1f2" d="M 108.5,109.5 C 109.675,109.281 110.675,109.614 111.5,110.5C 109.825,114.014 107.492,115.181 104.5,114C 106.018,112.649 107.351,111.149 108.5,109.5 Z"/></g>
<g><path style="opacity:1" fill="#68e3f3" d="M 33.5,111.5 C 35.7991,112.778 38.1324,114.111 40.5,115.5C 41.3857,116.325 41.719,117.325 41.5,118.5C 37.1259,117.998 34.4593,115.664 33.5,111.5 Z"/></g>
<g><path style="opacity:1" fill="#5fe1f3" d="M 97.5,116.5 C 98.5,116.5 99.5,116.5 100.5,116.5C 99.5392,119.835 97.2059,121.501 93.5,121.5C 93.281,120.325 93.6143,119.325 94.5,118.5C 95.7387,118.058 96.7387,117.391 97.5,116.5 Z"/></g>
<g><path style="opacity:1" fill="#66e3f3" d="M 44.5,118.5 C 47.5143,119.274 50.181,120.607 52.5,122.5C 50.0407,123.643 47.7073,123.31 45.5,121.5C 44.6143,120.675 44.281,119.675 44.5,118.5 Z"/></g>
<g><path style="opacity:1" fill="#76e5f4" d="M 55.5,122.5 C 58.1873,122.336 60.854,122.503 63.5,123C 64.3366,124.011 64.67,125.178 64.5,126.5C 61.4824,126.296 58.4824,125.963 55.5,125.5C 55.5,124.5 55.5,123.5 55.5,122.5 Z"/></g>
<g><path style="opacity:1" fill="#64e2f3" d="M 86.5,121.5 C 87.5,121.5 88.5,121.5 89.5,121.5C 89.5,122.5 89.5,123.5 89.5,124.5C 86.4465,125.321 83.4465,125.321 80.5,124.5C 82.2818,123.016 84.2818,122.016 86.5,121.5 Z"/></g>
<g><path style="opacity:1" fill="#6be3f3" d="M 68.5,123.5 C 71.5,123.5 74.5,123.5 77.5,123.5C 77.5,124.5 77.5,125.5 77.5,126.5C 74.5,126.5 71.5,126.5 68.5,126.5C 68.5,125.5 68.5,124.5 68.5,123.5 Z"/></g>
</svg>
