<?xml version="1.0" encoding="UTF-8"?>
<!DOCTYPE svg PUBLIC "-//W3C//DTD SVG 1.1//EN" "http://www.w3.org/Graphics/SVG/1.1/DTD/svg11.dtd">
<svg xmlns="http://www.w3.org/2000/svg" version="1.1" width="129px" height="130px" style="shape-rendering:geometricPrecision; text-rendering:geometricPrecision; image-rendering:optimizeQuality; fill-rule:evenodd; clip-rule:evenodd" xmlns:xlink="http://www.w3.org/1999/xlink">
<g><path style="opacity:1" fill="#f5f8fa" d="M -0.5,-0.5 C 42.5,-0.5 85.5,-0.5 128.5,-0.5C 128.5,42.8333 128.5,86.1667 128.5,129.5C 85.5,129.5 42.5,129.5 -0.5,129.5C -0.5,86.1667 -0.5,42.8333 -0.5,-0.5 Z"/></g>
<g><path style="opacity:1" fill="#64e2f3" d="M 59.5,3.5 C 62.5,3.5 65.5,3.5 68.5,3.5C 68.5,4.5 68.5,5.5 68.5,6.5C 65.5,6.5 62.5,6.5 59.5,6.5C 59.5,5.5 59.5,4.5 59.5,3.5 Z"/></g>
<g><path style="opacity:1" fill="#55e0f2" d="M 72.5,4.5 C 75.4822,4.10445 78.1489,4.77111 80.5,6.5C 77.9135,7.48002 75.2469,7.81335 72.5,7.5C 72.5,6.5 72.5,5.5 72.5,4.5 Z"/></g>
<g><path style="opacity:1" fill="#4bdef2" d="M 53.5,4.5 C 55.0481,4.82124 55.7148,5.82124 55.5,7.5C 52.7557,8.20498 50.089,8.20498 47.5,7.5C 49.444,6.19927 51.444,5.19927 53.5,4.5 Z"/></g>
<g><path style="opacity:1" fill="#51dff2" d="M 84.5,6.5 C 87.4234,7.29503 90.0901,8.62836 92.5,10.5C 90.5342,11.372 88.5342,11.2053 86.5,10C 85.0267,9.29044 84.3601,8.12377 84.5,6.5 Z"/></g>
<g><path style="opacity:1" fill="#62e1f3" d="M 41.5,8.5 C 42.5,8.5 43.5,8.5 44.5,8.5C 44.5,9.5 44.5,10.5 44.5,11.5C 41.9105,11.3962 39.5771,12.0629 37.5,13.5C 36.8333,13.1667 36.1667,12.8333 35.5,12.5C 37.5654,11.1433 39.5654,9.80996 41.5,8.5 Z"/></g>
<g><path style="opacity:1" fill="#39daf0" d="M 56.5,11.5 C 88.2294,9.4106 109.063,23.4106 119,53.5C 122.021,86.9905 107.521,108.491 75.5,118C 44.0647,120.523 23.5647,106.69 14,76.5C 10.1196,42.9072 24.2863,21.2406 56.5,11.5 Z"/></g>
<g><path style="opacity:1" fill="#5ee1f2" d="M 95.5,12.5 C 99.6702,12.6881 102.337,14.6881 103.5,18.5C 102.448,18.6495 101.448,18.4828 100.5,18C 98.2342,16.5736 96.5676,14.7402 95.5,12.5 Z"/></g>
<g><path style="opacity:1" fill="#70e3f3" d="M 30.5,14.5 C 31.5,14.5 32.5,14.5 33.5,14.5C 32.1227,18.2053 29.456,20.5387 25.5,21.5C 26.7023,18.9439 28.369,16.6106 30.5,14.5 Z"/></g>
<g><path style="opacity:1" fill="#f6f6fa" d="M 59.5,16.5 C 95.0949,16.9283 113.262,34.9283 114,70.5C 107.3,100.868 88.4669,114.701 57.5,112C 37.1109,107.278 24.2776,94.7778 19,74.5C 16.4693,43.8754 29.9693,24.5421 59.5,16.5 Z"/></g>
<g><path style="opacity:1" fill="#53e0f2" d="M 105.5,19.5 C 108.367,20.6866 110.7,22.6866 112.5,25.5C 111.5,26.8333 110.5,26.8333 109.5,25.5C 107.722,23.736 106.389,21.736 105.5,19.5 Z"/></g>
<g><path style="opacity:1" fill="#54e0f2" d="M 20.5,23.5 C 21.675,23.281 22.675,23.6143 23.5,24.5C 17.7835,32.7196 16.7835,32.3863 20.5,23.5 Z"/></g>
<g><path style="opacity:1" fill="#5ee1f3" d="M 113.5,29.5 C 116.292,29.4521 118.125,30.7854 119,33.5C 119.781,34.9437 119.614,36.277 118.5,37.5C 116.311,35.1133 114.644,32.4466 113.5,29.5 Z"/></g>
<g><path style="opacity:1" fill="#6be2f3" d="M 13.5,32.5 C 14.5,32.5 15.5,32.5 16.5,32.5C 15.2407,35.366 14.2407,38.366 13.5,41.5C 12.5,41.5 11.5,41.5 10.5,41.5C 11.2134,38.4061 12.2134,35.4061 13.5,32.5 Z"/></g>
<g><path style="opacity:1" fill="#f4bece" d="M 93.5,37.5 C 99.3443,37.9801 99.6776,39.1468 94.5,41C 89.0993,41.5094 83.766,42.3427 78.5,43.5C 76.5121,42.7112 76.1787,41.5445 77.5,40C 83.0251,39.4804 88.3584,38.6471 93.5,37.5 Z"/></g>
<g><path style="opacity:1" fill="#5de1f2" d="M 119.5,40.5 C 123.9,41.5795 125.233,44.2462 123.5,48.5C 121.607,46.181 120.274,43.5143 119.5,40.5 Z"/></g>
<g><path style="opacity:1" fill="#f4bfd0" d="M 76.5,45.5 C 83.1972,45.5482 89.8639,46.0482 96.5,47C 97.9733,47.7096 98.6399,48.8762 98.5,50.5C 91.7441,50.4298 85.0774,49.5965 78.5,48C 77.244,47.5831 76.5774,46.7498 76.5,45.5 Z"/></g>
<g><path style="opacity:1" fill="#5ae1f2" d="M 8.5,44.5 C 9.49722,44.4701 10.1639,44.9701 10.5,46C 9.71348,48.0989 9.38014,50.2655 9.5,52.5C 8.5,52.5 7.5,52.5 6.5,52.5C 6.85831,49.7334 7.52498,47.0667 8.5,44.5 Z"/></g>
<g><path style="opacity:1" fill="#f5f0fa" d="M 73.5,53.5 C 70.2319,54.8222 66.5652,55.4888 62.5,55.5C 58.4348,55.4888 54.7681,54.8222 51.5,53.5C 53.8103,49.0931 57.477,47.4264 62.5,48.5C 67.523,47.4264 71.1897,49.0931 73.5,53.5 Z"/></g>
<g><path style="opacity:1" fill="#ad64f6" d="M 75.5,51.5 C 76.4345,52.5676 76.7678,53.901 76.5,55.5C 67.8873,56.4421 59.2206,56.7754 50.5,56.5C 50.2627,55.209 50.596,54.209 51.5,53.5C 54.7681,54.8222 58.4348,55.4888 62.5,55.5C 66.5652,55.4888 70.2319,54.8222 73.5,53.5C 75.2027,54.6602 75.8693,53.9935 75.5,51.5 Z"/></g>
<g><path style="opacity:1" fill="#60e1f3" d="M 123.5,51.5 C 124.496,51.4142 125.329,51.7476 126,52.5C 126.818,55.2272 126.652,57.8938 125.5,60.5C 123.73,57.8066 123.063,54.8066 123.5,51.5 Z"/></g>
<g><path style="opacity:1" fill="#6ae3f3" d="M 5.5,56.5 C 6.5,56.5 7.5,56.5 8.5,56.5C 8.66409,59.1873 8.49742,61.854 8,64.5C 7.58605,64.9574 7.08605,65.2907 6.5,65.5C 5.51592,62.5719 5.18259,59.5719 5.5,56.5 Z"/></g>
<g><path style="opacity:1" fill="#61e1f3" d="M 124.5,64.5 C 125.5,64.5 126.5,64.5 127.5,64.5C 127.664,67.1873 127.497,69.854 127,72.5C 126.586,72.9574 126.086,73.2907 125.5,73.5C 124.516,70.5719 124.183,67.5719 124.5,64.5 Z"/></g>
<g><path style="opacity:1" fill="#5de1f2" d="M 5.5,68.5 C 6.4959,68.4142 7.32924,68.7476 8,69.5C 8.8184,72.2272 8.65173,74.8938 7.5,77.5C 5.72984,74.8066 5.06317,71.8066 5.5,68.5 Z"/></g>
<g><path style="opacity:1" fill="#63e2f3" d="M 123.5,77.5 C 124.649,77.7911 125.316,78.6244 125.5,80C 125.4,82.37 124.4,84.2034 122.5,85.5C 121.522,82.7325 121.855,80.0658 123.5,77.5 Z"/></g>
<g><path style="opacity:1" fill="#5fe1f2" d="M 7.5,81.5 C 8.82207,81.33 9.98873,81.6634 11,82.5C 12.3454,84.8297 12.5121,87.1631 11.5,89.5C 9.11324,87.3932 7.7799,84.7265 7.5,81.5 Z"/></g>
<g><path style="opacity:1" fill="#9537f4" d="M 75.5,51.5 C 75.8693,53.9935 75.2027,54.6602 73.5,53.5C 71.1897,49.0931 67.523,47.4264 62.5,48.5C 57.477,47.4264 53.8103,49.0931 51.5,53.5C 50.596,54.209 50.2627,55.209 50.5,56.5C 59.2206,56.7754 67.8873,56.4421 76.5,55.5C 80.1173,57.6233 80.284,59.9566 77,62.5C 76.1404,74.6869 76.4737,86.6869 78,98.5C 67.9105,99.652 57.7438,99.8186 47.5,99C 46.944,98.6174 46.6107,98.1174 46.5,97.5C 46.6287,95.7839 46.962,94.1172 47.5,92.5C 48.6583,82.6753 48.8249,72.6753 48,62.5C 46.7611,56.5603 48.5944,51.3936 53.5,47C 54.448,46.5172 55.448,46.3505 56.5,46.5C 56.9355,39.0369 60.9355,36.3703 68.5,38.5C 68.1866,41.2469 68.52,43.9135 69.5,46.5C 72.1292,47.4667 74.1292,49.1334 75.5,51.5 Z"/></g>
<g><path style="opacity:1" fill="#9f48f4" d="M 74.5,62.5 C 75.8333,70.5 75.8333,78.5 74.5,86.5C 73.3915,87.29 72.0581,87.79 70.5,88C 72.0581,88.21 73.3915,88.71 74.5,89.5C 63.2259,86.8856 60.0593,80.2189 65,69.5C 67.3974,67.2177 70.2307,65.8844 73.5,65.5C 74.404,64.791 74.7373,63.791 74.5,62.5 Z"/></g>
<g><path style="opacity:1" fill="#f2ebfa" d="M 74.5,86.5 C 68.3158,86.4804 65.3158,83.3137 65.5,77C 65.7467,71.2534 68.7467,68.42 74.5,68.5C 74.5,74.5 74.5,80.5 74.5,86.5 Z"/></g>
<g><path style="opacity:1" fill="#f7f5fa" d="M 73.5,65.5 C 70.2307,65.8844 67.3974,67.2177 65,69.5C 60.0593,80.2189 63.2259,86.8856 74.5,89.5C 74.5,90.1667 74.5,90.8333 74.5,91.5C 66.8333,91.5 59.1667,91.5 51.5,91.5C 51.5,82.1667 51.5,72.8333 51.5,63.5C 59.2428,62.8701 66.5762,63.5367 73.5,65.5 Z"/></g>
<g><path style="opacity:1" fill="#d1aaf8" d="M 74.5,62.5 C 74.7373,63.791 74.404,64.791 73.5,65.5C 66.5762,63.5367 59.2428,62.8701 51.5,63.5C 51.5,72.8333 51.5,82.1667 51.5,91.5C 59.1667,91.5 66.8333,91.5 74.5,91.5C 66.6841,92.4924 58.6841,92.8257 50.5,92.5C 50.5,82.5 50.5,72.5 50.5,62.5C 58.5,62.5 66.5,62.5 74.5,62.5 Z"/></g>
<g><path style="opacity:1" fill="#e6d4f9" d="M 76.5,58.5 C 67.8955,60.4711 58.8955,61.1377 49.5,60.5C 58.1045,58.5289 67.1045,57.8623 76.5,58.5 Z"/></g>
<g><path style="opacity:1" fill="#bb7ff6" d="M 76.5,58.5 C 67.1045,57.8623 58.1045,58.5289 49.5,60.5C 48.596,59.791 48.2627,58.791 48.5,57.5C 58.015,57.1731 67.3483,57.5064 76.5,58.5 Z"/></g>
<g><path style="opacity:1" fill="#c28cf7" d="M 60.5,41.5 C 62.2646,40.5386 64.2646,40.2053 66.5,40.5C 66.7845,42.4147 66.4511,44.0813 65.5,45.5C 65.5,44.1667 65.5,42.8333 65.5,41.5C 63.8333,41.5 62.1667,41.5 60.5,41.5 Z"/></g>
<g><path style="opacity:1" fill="#f5f1fa" d="M 60.5,41.5 C 62.1667,41.5 63.8333,41.5 65.5,41.5C 65.5,42.8333 65.5,44.1667 65.5,45.5C 63.5,45.5 61.5,45.5 59.5,45.5C 59.2322,43.901 59.5655,42.5676 60.5,41.5 Z"/></g>
<g><path style="opacity:1" fill="#c189f7" d="M 47.5,92.5 C 46.962,94.1172 46.6287,95.7839 46.5,97.5C 45.0698,95.5453 45.4031,93.8786 47.5,92.5 Z"/></g>
<g><path style="opacity:1" fill="#ddc3f9" d="M 48.5,94.5 C 57.8571,94.1684 67.1904,94.5017 76.5,95.5C 71.8333,95.8333 67.1667,96.1667 62.5,96.5C 57.4492,96.4933 52.7825,95.8266 48.5,94.5 Z"/></g>
<g><path style="opacity:1" fill="#5be1f2" d="M 119.5,88.5 C 120.586,88.62 121.253,89.2867 121.5,90.5C 120.664,92.8419 119.33,94.8419 117.5,96.5C 117.167,96 116.833,95.5 116.5,95C 117.789,92.9654 118.789,90.7988 119.5,88.5 Z"/></g>
<g><path style="opacity:1" fill="#5ee1f2" d="M 12.5,92.5 C 15.4897,93.5706 17.4897,95.7372 18.5,99C 18.1667,99.5 17.8333,100 17.5,100.5C 14.8066,98.4408 13.1399,95.7741 12.5,92.5 Z"/></g>
<g><path style="opacity:1" fill="#61e1f3" d="M 112.5,99.5 C 113.5,99.5 114.5,99.5 115.5,99.5C 115.014,102.827 113.18,105.161 110,106.5C 109.5,106.167 109,105.833 108.5,105.5C 110.278,103.736 111.611,101.736 112.5,99.5 Z"/></g>
<g><path style="opacity:1" fill="#5ae1f2" d="M 20.5,103.5 C 24.3232,104.609 25.9899,106.943 25.5,110.5C 22.6095,108.957 20.9429,106.624 20.5,103.5 Z"/></g>
<g><path style="opacity:1" fill="#5fe1f3" d="M 104.5,108.5 C 106.225,108.843 106.725,109.843 106,111.5C 104.255,112.956 102.422,114.289 100.5,115.5C 99.4173,114.635 99.2506,113.635 100,112.5C 101.992,111.672 103.492,110.339 104.5,108.5 Z"/></g>
<g><path style="opacity:1" fill="#4fdff2" d="M 29.5,111.5 C 32.3404,112.423 34.6737,114.09 36.5,116.5C 32.786,117.12 30.4527,115.453 29.5,111.5 Z"/></g>
<g><path style="opacity:1" fill="#6de3f3" d="M 94.5,115.5 C 96.1765,116.183 96.8432,117.517 96.5,119.5C 93.6703,119.694 91.0037,120.361 88.5,121.5C 88.281,120.325 88.6143,119.325 89.5,118.5C 91.3964,117.725 93.063,116.725 94.5,115.5 Z"/></g>
<g><path style="opacity:1" fill="#6fe3f3" d="M 39.5,117.5 C 42.0627,118.2 44.5627,119.2 47,120.5C 48.8165,121.593 48.6499,122.593 46.5,123.5C 44.4595,122.764 42.4595,121.931 40.5,121C 39.6634,119.989 39.33,118.822 39.5,117.5 Z"/></g>
<g><path style="opacity:1" fill="#79e5f4" d="M 51.5,121.5 C 54.1656,121.933 56.8323,122.433 59.5,123C 60.3366,124.011 60.67,125.178 60.5,126.5C 57.7623,126.149 55.0956,125.482 52.5,124.5C 51.6143,123.675 51.281,122.675 51.5,121.5 Z"/></g>
<g><path style="opacity:1" fill="#6be3f3" d="M 63.5,123.5 C 66.5,123.5 69.5,123.5 72.5,123.5C 72.5,124.5 72.5,125.5 72.5,126.5C 69.5,126.5 66.5,126.5 63.5,126.5C 63.5,125.5 63.5,124.5 63.5,123.5 Z"/></g>
<g><path style="opacity:1" fill="#5ee1f3" d="M 77.5,121.5 C 79.924,121.192 82.2573,121.526 84.5,122.5C 82.0699,124.571 79.4033,124.904 76.5,123.5C 76.8627,122.817 77.1961,122.15 77.5,121.5 Z"/></g>
</svg>
