<?xml version="1.0" encoding="UTF-8"?>
<!DOCTYPE svg PUBLIC "-//W3C//DTD SVG 1.1//EN" "http://www.w3.org/Graphics/SVG/1.1/DTD/svg11.dtd">
<svg xmlns="http://www.w3.org/2000/svg" version="1.1" width="132px" height="129px" style="shape-rendering:geometricPrecision; text-rendering:geometricPrecision; image-rendering:optimizeQuality; fill-rule:evenodd; clip-rule:evenodd" xmlns:xlink="http://www.w3.org/1999/xlink">
<g><path style="opacity:1" fill="#f5f8fa" d="M -0.5,-0.5 C 43.5,-0.5 87.5,-0.5 131.5,-0.5C 131.5,42.5 131.5,85.5 131.5,128.5C 87.5,128.5 43.5,128.5 -0.5,128.5C -0.5,85.5 -0.5,42.5 -0.5,-0.5 Z"/></g>
<g><path style="opacity:1" fill="#64e2f3" d="M 60.5,2.5 C 63.5,2.5 66.5,2.5 69.5,2.5C 69.5,3.5 69.5,4.5 69.5,5.5C 66.5,5.5 63.5,5.5 60.5,5.5C 60.5,4.5 60.5,3.5 60.5,2.5 Z"/></g>
<g><path style="opacity:1" fill="#50dff2" d="M 73.5,3.5 C 75.8568,3.33669 78.1902,3.50335 80.5,4C 80.9574,4.41395 81.2907,4.91395 81.5,5.5C 78.9135,6.48002 76.2469,6.81335 73.5,6.5C 73.5,5.5 73.5,4.5 73.5,3.5 Z"/></g>
<g><path style="opacity:1" fill="#44def1" d="M 50.5,4.5 C 58.3833,4.91028 58.3833,5.91028 50.5,7.5C 49.8333,7.16667 49.1667,6.83333 48.5,6.5C 49.2427,5.81815 49.9094,5.15149 50.5,4.5 Z"/></g>
<g><path style="opacity:1" fill="#52dff2" d="M 85.5,5.5 C 88.4234,6.29503 91.0901,7.62836 93.5,9.5C 91.5342,10.372 89.5342,10.2053 87.5,9C 86.0267,8.29044 85.3601,7.12377 85.5,5.5 Z"/></g>
<g><path style="opacity:1" fill="#5ee1f3" d="M 42.5,7.5 C 44.9424,7.35369 45.6091,8.18703 44.5,10C 42.3822,10.6353 40.3822,11.4686 38.5,12.5C 37.8333,12.1667 37.1667,11.8333 36.5,11.5C 38.5654,10.1433 40.5654,8.80996 42.5,7.5 Z"/></g>
<g><path style="opacity:1" fill="#3bdaf0" d="M 57.5,10.5 C 89.6991,8.5598 110.532,22.8931 120,53.5C 123.111,78.5832 113.944,97.7498 92.5,111C 63.1945,123.885 39.3612,117.385 21,91.5C 7.02776,62.8897 12.5278,38.7231 37.5,19C 43.7251,14.8775 50.3918,12.0441 57.5,10.5 Z"/></g>
<g><path style="opacity:1" fill="#5ee1f2" d="M 96.5,11.5 C 99.0046,11.9802 101.338,12.9802 103.5,14.5C 104.386,15.325 104.719,16.325 104.5,17.5C 103.448,17.6495 102.448,17.4828 101.5,17C 99.2342,15.5736 97.5676,13.7402 96.5,11.5 Z"/></g>
<g><path style="opacity:1" fill="#68e2f3" d="M 31.5,13.5 C 32.7562,13.4614 33.7562,13.9614 34.5,15C 32.2745,17.6022 29.6078,19.4355 26.5,20.5C 26.3505,19.448 26.5172,18.448 27,17.5C 28.9923,16.6719 30.4923,15.3386 31.5,13.5 Z"/></g>
<g><path style="opacity:1" fill="#f6f7fa" d="M 60.5,15.5 C 89.0541,14.6772 106.887,28.0105 114,55.5C 116.61,84.2213 104.11,102.721 76.5,111C 47.2087,114.112 28.3754,101.612 20,73.5C 16.9753,42.5304 30.4753,23.1971 60.5,15.5 Z"/></g>
<g><path style="opacity:1" fill="#51dff2" d="M 106.5,18.5 C 109.407,19.7341 111.741,21.7341 113.5,24.5C 112.5,25.8333 111.5,25.8333 110.5,24.5C 108.722,22.736 107.389,20.736 106.5,18.5 Z"/></g>
<g><path style="opacity:1" fill="#53dff2" d="M 21.5,22.5 C 22.675,22.281 23.675,22.6143 24.5,23.5C 18.7835,31.7196 17.7835,31.3863 21.5,22.5 Z"/></g>
<g><path style="opacity:1" fill="#5fe1f3" d="M 114.5,28.5 C 117.292,28.4521 119.125,29.7854 120,32.5C 120.781,33.9437 120.614,35.277 119.5,36.5C 117.311,34.1133 115.644,31.4466 114.5,28.5 Z"/></g>
<g><path style="opacity:1" fill="#9c44f4" d="M 77.5,36.5 C 76.5233,39.2869 76.19,42.2869 76.5,45.5C 74.901,45.7678 73.5676,45.4345 72.5,44.5C 71.6862,42.369 71.1862,40.0356 71,37.5C 70.8138,40.0356 70.3138,42.369 69.5,44.5C 69.5,42.1667 69.5,39.8333 69.5,37.5C 68.1667,37.5 66.8333,37.5 65.5,37.5C 64.8333,39.8333 64.1667,42.1667 63.5,44.5C 62.9935,40.9929 63.6602,37.8263 65.5,35C 68.5304,35.3987 71.5304,35.232 74.5,34.5C 76.0377,34.4534 77.0377,35.1201 77.5,36.5 Z"/></g>
<g><path style="opacity:1" fill="#5ce1f2" d="M 14.5,31.5 C 15.5,31.5 16.5,31.5 17.5,31.5C 16.7908,34.5824 15.2908,37.249 13,39.5C 12.5,39.1667 12,38.8333 11.5,38.5C 12.7878,36.2612 13.7878,33.9279 14.5,31.5 Z"/></g>
<g><path style="opacity:1" fill="#5ce1f2" d="M 120.5,39.5 C 121.822,39.33 122.989,39.6634 124,40.5C 125.039,42.9009 125.206,45.2343 124.5,47.5C 122.607,45.181 121.274,42.5143 120.5,39.5 Z"/></g>
<g><path style="opacity:1" fill="#59e1f2" d="M 9.5,43.5 C 10.4972,43.4701 11.1639,43.9701 11.5,45C 10.7135,47.0989 10.3801,49.2655 10.5,51.5C 9.5,51.5 8.5,51.5 7.5,51.5C 7.85831,48.7334 8.52498,46.0667 9.5,43.5 Z"/></g>
<g><path style="opacity:1" fill="#f4bfcf" d="M 52.5,48.5 C 52.1961,49.1499 51.8627,49.8165 51.5,50.5C 53.0453,51.4519 54.712,51.7852 56.5,51.5C 56.5,52.8333 56.5,54.1667 56.5,55.5C 54.8333,55.5 53.1667,55.5 51.5,55.5C 51.5,56.5 51.5,57.5 51.5,58.5C 44.4805,60.5324 38.4805,58.8657 33.5,53.5C 38.8217,47.3068 45.155,45.6401 52.5,48.5 Z"/></g>
<g><path style="opacity:1" fill="#f7f2f7" d="M 44.5,49.5 C 48.4735,50.0755 49.4735,52.2421 47.5,56C 39.8446,56.1723 38.8446,54.0056 44.5,49.5 Z"/></g>
<g><path style="opacity:1" fill="#5ae0f2" d="M 124.5,50.5 C 125.5,50.5 126.5,50.5 127.5,50.5C 127.088,62.3587 126.088,62.3587 124.5,50.5 Z"/></g>
<g><path style="opacity:1" fill="#6be3f3" d="M 6.5,55.5 C 7.5,55.5 8.5,55.5 9.5,55.5C 9.66409,58.1873 9.49742,60.854 9,63.5C 8.58605,63.9574 8.08605,64.2907 7.5,64.5C 6.51592,61.5719 6.18259,58.5719 6.5,55.5 Z"/></g>
<g><path style="opacity:1" fill="#d8b7f9" d="M 91.5,61.5 C 90.5367,65.1007 89.87,68.7674 89.5,72.5C 88.1046,68.5446 88.7712,64.8779 91.5,61.5 Z"/></g>
<g><path style="opacity:1" fill="#66e2f3" d="M 125.5,63.5 C 126.5,63.5 127.5,63.5 128.5,63.5C 128.664,66.1873 128.497,68.854 128,71.5C 127.586,71.9574 127.086,72.2907 126.5,72.5C 125.516,69.5719 125.183,66.5719 125.5,63.5 Z"/></g>
<g><path style="opacity:1" fill="#52dff2" d="M 6.5,67.5 C 7.64911,67.7911 8.31577,68.6244 8.5,70C 9.44952,72.235 9.44952,74.4016 8.5,76.5C 6.72984,73.8066 6.06317,70.8066 6.5,67.5 Z"/></g>
<g><path style="opacity:1" fill="#9537f4" d="M 77.5,36.5 C 82.0119,37.6725 86.3453,39.3391 90.5,41.5C 91.48,44.0865 91.8134,46.7531 91.5,49.5C 95.2446,49.2029 97.9113,50.7029 99.5,54C 97.9985,56.5898 95.6652,57.9231 92.5,58C 91.6634,59.0113 91.33,60.1779 91.5,61.5C 88.7712,64.8779 88.1046,68.5446 89.5,72.5C 93.254,73.8276 94.4207,76.4942 93,80.5C 92.6174,81.056 92.1174,81.3893 91.5,81.5C 90.5184,84.9619 90.185,88.6286 90.5,92.5C 81.5,92.5 72.5,92.5 63.5,92.5C 64.2275,87.0236 63.2275,82.0236 60.5,77.5C 60.722,74.9446 62.0554,73.2779 64.5,72.5C 65.641,70.5787 65.8077,68.5787 65,66.5C 62.5,64 60,61.5 57.5,59C 55.5273,58.5045 53.5273,58.3379 51.5,58.5C 51.5,57.5 51.5,56.5 51.5,55.5C 53.1667,55.5 54.8333,55.5 56.5,55.5C 56.5,54.1667 56.5,52.8333 56.5,51.5C 54.712,51.7852 53.0453,51.4519 51.5,50.5C 51.8627,49.8165 52.1961,49.1499 52.5,48.5C 54.5273,48.6621 56.5273,48.4955 58.5,48C 59.9555,46.3743 61.6221,45.2076 63.5,44.5C 64.1667,42.1667 64.8333,39.8333 65.5,37.5C 65.1984,40.0593 65.5318,42.3926 66.5,44.5C 67.1667,44.5 67.8333,44.5 68.5,44.5C 68.8333,44.5 69.1667,44.5 69.5,44.5C 70.3138,42.369 70.8138,40.0356 71,37.5C 71.1862,40.0356 71.6862,42.369 72.5,44.5C 73.5676,45.4345 74.901,45.7678 76.5,45.5C 76.19,42.2869 76.5233,39.2869 77.5,36.5 Z"/></g>
<g><path style="opacity:1" fill="#c897f7" d="M 87.5,62.5 C 84.3157,60.5864 80.649,59.9197 76.5,60.5C 76.7845,62.4147 76.4511,64.0813 75.5,65.5C 75.5,63.5 75.5,61.5 75.5,59.5C 79.8333,59.5 84.1667,59.5 88.5,59.5C 88.7373,60.791 88.404,61.791 87.5,62.5 Z"/></g>
<g><path style="opacity:1" fill="#ecdefa" d="M 90.5,51.5 C 98.4553,52.7155 98.4553,54.2155 90.5,56C 85.2247,57.3585 79.8913,57.6919 74.5,57C 74.0426,56.586 73.7093,56.086 73.5,55.5C 77.5707,52.3705 82.0707,51.7038 87,53.5C 88.6991,53.6134 89.8658,52.9468 90.5,51.5 Z"/></g>
<g><path style="opacity:1" fill="#f4eefa" d="M 75.5,48.5 C 75.67,49.8221 75.3366,50.9887 74.5,52C 71.1182,52.1764 67.7848,52.6764 64.5,53.5C 67.7633,54.7252 70.5966,56.7252 73,59.5C 73.1858,61.9005 73.6858,64.2338 74.5,66.5C 75.1067,66.3764 75.44,66.0431 75.5,65.5C 76.4511,64.0813 76.7845,62.4147 76.5,60.5C 80.649,59.9197 84.3157,60.5864 87.5,62.5C 86.6758,65.7644 86.3424,69.0977 86.5,72.5C 80.5,72.5 74.5,72.5 68.5,72.5C 68.6633,70.1432 68.4966,67.8098 68,65.5C 65.3333,62.8333 62.6667,60.1667 60,57.5C 59.3333,55.1667 59.3333,52.8333 60,50.5C 60.3826,49.944 60.8826,49.6107 61.5,49.5C 66.1031,48.6167 70.7697,48.2834 75.5,48.5 Z"/></g>
<g><path style="opacity:1" fill="#dec3f8" d="M 75.5,48.5 C 70.7697,48.2834 66.1031,48.6167 61.5,49.5C 61.6107,48.8826 61.944,48.3826 62.5,48C 67.0204,47.1864 71.3537,47.353 75.5,48.5 Z"/></g>
<g><path style="opacity:1" fill="#eee2fa" d="M 85.5,42.5 C 86.5,42.5 87.5,42.5 88.5,42.5C 88.5,45.1667 88.5,47.8333 88.5,50.5C 87.5,50.5 86.5,50.5 85.5,50.5C 85.5,47.8333 85.5,45.1667 85.5,42.5 Z"/></g>
<g><path style="opacity:1" fill="#d7b4f8" d="M 81.5,49.5 C 80.8333,38.8333 80.1667,38.8333 79.5,49.5C 78.3622,46.6965 78.1955,43.6965 79,40.5C 80,39.1667 81,39.1667 82,40.5C 82.8045,43.6965 82.6378,46.6965 81.5,49.5 Z"/></g>
<g><path style="opacity:1" fill="#f8f7fa" d="M 81.5,49.5 C 80.8333,49.5 80.1667,49.5 79.5,49.5C 80.1667,38.8333 80.8333,38.8333 81.5,49.5 Z"/></g>
<g><path style="opacity:1" fill="#eadbfa" d="M 72.5,44.5 C 72.5,42.1667 72.5,39.8333 72.5,37.5C 73.5,37.5 74.5,37.5 75.5,37.5C 75.5,39.8333 75.5,42.1667 75.5,44.5C 74.5,44.5 73.5,44.5 72.5,44.5 Z"/></g>
<g><path style="opacity:1" fill="#dcbff9" d="M 65.5,37.5 C 66.8333,37.5 68.1667,37.5 69.5,37.5C 69.5,39.8333 69.5,42.1667 69.5,44.5C 69.1667,44.5 68.8333,44.5 68.5,44.5C 67.8333,36.5 67.1667,36.5 66.5,44.5C 65.5318,42.3926 65.1984,40.0593 65.5,37.5 Z"/></g>
<g><path style="opacity:1" fill="#f8f8fb" d="M 68.5,44.5 C 67.8333,44.5 67.1667,44.5 66.5,44.5C 67.1667,36.5 67.8333,36.5 68.5,44.5 Z"/></g>
<g><path style="opacity:1" fill="#d4b2f8" d="M 90.5,76.5 C 81.4355,75.8636 72.7688,76.5302 64.5,78.5C 63.596,77.791 63.2627,76.791 63.5,75.5C 72.6822,75.1734 81.6822,75.5067 90.5,76.5 Z"/></g>
<g><path style="opacity:1" fill="#f6f1fa" d="M 90.5,76.5 C 90.5,77.5 90.5,78.5 90.5,79.5C 86.9878,78.9455 83.9878,79.6122 81.5,81.5C 83.6074,82.4682 85.9407,82.8016 88.5,82.5C 88.5,85.1667 88.5,87.8333 88.5,90.5C 81.1667,90.5 73.8333,90.5 66.5,90.5C 66.5,87.8333 66.5,85.1667 66.5,82.5C 68.7354,82.7947 70.7354,82.4614 72.5,81.5C 73.0431,81.44 73.3764,81.1067 73.5,80.5C 70.3583,79.8326 67.3583,79.166 64.5,78.5C 72.7688,76.5302 81.4355,75.8636 90.5,76.5 Z"/></g>
<g><path style="opacity:1" fill="#69e2f3" d="M 123.5,76.5 C 124.5,76.5 125.5,76.5 126.5,76.5C 126.867,80.0498 125.867,83.0498 123.5,85.5C 122.679,82.5535 122.679,79.5535 123.5,76.5 Z"/></g>
<g><path style="opacity:1" fill="#cda2f7" d="M 72.5,81.5 C 70.7354,82.4614 68.7354,82.7947 66.5,82.5C 66.5,85.1667 66.5,87.8333 66.5,90.5C 65.5233,87.7131 65.19,84.7131 65.5,81.5C 67.8333,81.5 70.1667,81.5 72.5,81.5 Z"/></g>
<g><path style="opacity:1" fill="#b572f6" d="M 81.5,81.5 C 84.1667,81.5 86.8333,81.5 89.5,81.5C 89.81,84.7131 89.4767,87.7131 88.5,90.5C 88.5,87.8333 88.5,85.1667 88.5,82.5C 85.9407,82.8016 83.6074,82.4682 81.5,81.5 Z"/></g>
<g><path style="opacity:1" fill="#5ce1f2" d="M 8.5,80.5 C 9.5,80.5 10.5,80.5 11.5,80.5C 11.6822,82.6746 12.3489,84.6746 13.5,86.5C 13.1667,87.1667 12.8333,87.8333 12.5,88.5C 10.1132,86.3932 8.7799,83.7265 8.5,80.5 Z"/></g>
<g><path style="opacity:1" fill="#a758f5" d="M 91.5,81.5 C 91.5,85.5 91.5,89.5 91.5,93.5C 81.985,93.8269 72.6517,93.4936 63.5,92.5C 72.5,92.5 81.5,92.5 90.5,92.5C 90.185,88.6286 90.5184,84.9619 91.5,81.5 Z"/></g>
<g><path style="opacity:1" fill="#54e0f2" d="M 120.5,87.5 C 121.497,87.4701 122.164,87.9701 122.5,89C 121.785,91.6053 120.452,93.772 118.5,95.5C 117.883,92.6668 118.55,90.0002 120.5,87.5 Z"/></g>
<g><path style="opacity:1" fill="#5de1f3" d="M 13.5,91.5 C 16.4897,92.5706 18.4897,94.7372 19.5,98C 19.1667,98.5 18.8333,99 18.5,99.5C 15.8066,97.4408 14.1399,94.7741 13.5,91.5 Z"/></g>
<g><path style="opacity:1" fill="#5de1f2" d="M 113.5,98.5 C 114.5,98.5 115.5,98.5 116.5,98.5C 116.014,101.827 114.18,104.161 111,105.5C 110.5,105.167 110,104.833 109.5,104.5C 111.278,102.736 112.611,100.736 113.5,98.5 Z"/></g>
<g><path style="opacity:1" fill="#62e2f2" d="M 20.5,102.5 C 23.2626,102.744 25.4293,104.077 27,106.5C 27.7494,107.635 27.5827,108.635 26.5,109.5C 23.7341,107.741 21.7341,105.407 20.5,102.5 Z"/></g>
<g><path style="opacity:1" fill="#5ce1f2" d="M 105.5,107.5 C 107.225,107.843 107.725,108.843 107,110.5C 105.255,111.956 103.422,113.289 101.5,114.5C 100.417,113.635 100.251,112.635 101,111.5C 102.992,110.672 104.492,109.339 105.5,107.5 Z"/></g>
<g><path style="opacity:1" fill="#52e0f2" d="M 30.5,110.5 C 33.3404,111.423 35.6737,113.09 37.5,115.5C 33.786,116.12 31.4527,114.453 30.5,110.5 Z"/></g>
<g><path style="opacity:1" fill="#6ee3f3" d="M 95.5,114.5 C 97.1765,115.183 97.8432,116.517 97.5,118.5C 94.6703,118.694 92.0037,119.361 89.5,120.5C 89.281,119.325 89.6143,118.325 90.5,117.5C 92.3964,116.725 94.063,115.725 95.5,114.5 Z"/></g>
<g><path style="opacity:1" fill="#6fe3f3" d="M 40.5,116.5 C 43.0627,117.2 45.5627,118.2 48,119.5C 49.8165,120.593 49.6499,121.593 47.5,122.5C 45.4595,121.764 43.4595,120.931 41.5,120C 40.6634,118.989 40.33,117.822 40.5,116.5 Z"/></g>
<g><path style="opacity:1" fill="#6be3f3" d="M 64.5,122.5 C 67.5,122.5 70.5,122.5 73.5,122.5C 73.5,123.5 73.5,124.5 73.5,125.5C 70.5,125.5 67.5,125.5 64.5,125.5C 64.5,124.5 64.5,123.5 64.5,122.5 Z"/></g>
<g><path style="opacity:1" fill="#5ee1f3" d="M 78.5,120.5 C 80.924,120.192 83.2573,120.526 85.5,121.5C 83.0699,123.571 80.4033,123.904 77.5,122.5C 77.8627,121.817 78.1961,121.15 78.5,120.5 Z"/></g>
<g><path style="opacity:1" fill="#6fe4f4" d="M 52.5,120.5 C 55.1272,121.092 57.7938,121.425 60.5,121.5C 60.5,122.5 60.5,123.5 60.5,124.5C 57.8333,124.5 55.1667,124.5 52.5,124.5C 52.5,123.167 52.5,121.833 52.5,120.5 Z"/></g>
</svg>
