<?xml version="1.0" encoding="UTF-8"?>
<!DOCTYPE svg PUBLIC "-//W3C//DTD SVG 1.1//EN" "http://www.w3.org/Graphics/SVG/1.1/DTD/svg11.dtd">
<svg xmlns="http://www.w3.org/2000/svg" version="1.1" width="133px" height="127px" style="shape-rendering:geometricPrecision; text-rendering:geometricPrecision; image-rendering:optimizeQuality; fill-rule:evenodd; clip-rule:evenodd" xmlns:xlink="http://www.w3.org/1999/xlink">
<g><path style="opacity:1" fill="#f5f8fa" d="M -0.5,-0.5 C 43.8333,-0.5 88.1667,-0.5 132.5,-0.5C 132.5,41.8333 132.5,84.1667 132.5,126.5C 88.1667,126.5 43.8333,126.5 -0.5,126.5C -0.5,84.1667 -0.5,41.8333 -0.5,-0.5 Z"/></g>
<g><path style="opacity:1" fill="#62e2f3" d="M 63.5,2.5 C 66.1667,2.5 68.8333,2.5 71.5,2.5C 71.5,3.5 71.5,4.5 71.5,5.5C 68.4281,5.81741 65.4281,5.48408 62.5,4.5C 62.8627,3.81654 63.1961,3.14987 63.5,2.5 Z"/></g>
<g><path style="opacity:1" fill="#51def2" d="M 75.5,3.5 C 85.9948,5.04228 85.9948,6.04228 75.5,6.5C 75.5,5.5 75.5,4.5 75.5,3.5 Z"/></g>
<g><path style="opacity:1" fill="#61e1f3" d="M 56.5,3.5 C 57.5,3.5 58.5,3.5 59.5,3.5C 59.5,4.5 59.5,5.5 59.5,6.5C 56.4116,7.06848 53.4116,7.06848 50.5,6.5C 52.444,5.19927 54.444,4.19927 56.5,3.5 Z"/></g>
<g><path style="opacity:1" fill="#5de1f2" d="M 87.5,5.5 C 90.5143,6.27365 93.181,7.60698 95.5,9.5C 93.2343,10.2058 90.9009,10.0391 88.5,9C 87.6634,7.98873 87.33,6.82207 87.5,5.5 Z"/></g>
<g><path style="opacity:1" fill="#54e0f2" d="M 44.5,7.5 C 45.5,7.5 46.5,7.5 47.5,7.5C 47.5,8.5 47.5,9.5 47.5,10.5C 45.2133,10.7239 43.0466,11.3906 41,12.5C 40.5,12.1667 40,11.8333 39.5,11.5C 41.0147,9.91783 42.6814,8.5845 44.5,7.5 Z"/></g>
<g><path style="opacity:1" fill="#37daf0" d="M 59.5,10.5 C 90.4651,8.34152 111.298,21.6749 122,50.5C 125.763,71.873 119.93,90.0397 104.5,105C 83.0142,120.285 61.0142,121.285 38.5,108C 17.6315,90.7518 11.4648,69.2518 20,43.5C 28.1887,26.4729 41.3554,15.4729 59.5,10.5 Z"/></g>
<g><path style="opacity:1" fill="#59e0f2" d="M 98.5,11.5 C 102.985,11.6759 105.319,13.6759 105.5,17.5C 103.664,16.081 101.664,14.9143 99.5,14C 98.7476,13.3292 98.4142,12.4959 98.5,11.5 Z"/></g>
<g><path style="opacity:1" fill="#61e1f2" d="M 34.5,13.5 C 36.4646,13.9483 36.7979,14.9483 35.5,16.5C 34.0186,17.4803 32.6853,18.647 31.5,20C 30.0347,20.6013 29.0347,20.1013 28.5,18.5C 30.5441,16.7806 32.5441,15.1139 34.5,13.5 Z"/></g>
<g><path style="opacity:1" fill="#f6f7fa" d="M 63.5,15.5 C 87.7641,14.8761 104.931,25.5428 115,47.5C 121.517,71.5972 114.684,90.7638 94.5,105C 68.156,118.095 46.3226,112.928 29,89.5C 18.1458,70.1374 19.1458,51.4707 32,33.5C 40.4403,23.702 50.9403,17.702 63.5,15.5 Z"/></g>
<g><path style="opacity:1" fill="#44def2" d="M 109.5,18.5 C 111.417,19.9093 113.25,21.576 115,23.5C 115.688,24.3317 115.521,24.9984 114.5,25.5C 111.61,23.9571 109.943,21.6238 109.5,18.5 Z"/></g>
<g><path style="opacity:1" fill="#63e1f3" d="M 24.5,21.5 C 25.9953,21.4148 26.9953,22.0815 27.5,23.5C 25.7,26.3134 23.3666,28.3134 20.5,29.5C 21.3822,26.615 22.7155,23.9483 24.5,21.5 Z"/></g>
<g><path style="opacity:1" fill="#64e1f3" d="M 117.5,28.5 C 120.37,29.5279 122.37,31.5279 123.5,34.5C 122.824,36.3535 121.824,36.6869 120.5,35.5C 118.98,33.3379 117.98,31.0046 117.5,28.5 Z"/></g>
<g><path style="opacity:1" fill="#56dff2" d="M 17.5,31.5 C 18.4972,31.4701 19.1639,31.9701 19.5,33C 18.7854,35.6053 17.4521,37.772 15.5,39.5C 14.883,36.6668 15.5497,34.0002 17.5,31.5 Z"/></g>
<g><path style="opacity:1" fill="#5ee1f2" d="M 123.5,39.5 C 124.675,39.281 125.675,39.6143 126.5,40.5C 127.577,42.7294 128.244,45.0628 128.5,47.5C 127.5,47.5 126.5,47.5 125.5,47.5C 124.833,44.8333 124.167,42.1667 123.5,39.5 Z"/></g>
<g><path style="opacity:1" fill="#73e4f3" d="M 11.5,43.5 C 12.5,43.5 13.5,43.5 14.5,43.5C 13.9084,46.1272 13.5751,48.7938 13.5,51.5C 12.0222,51.762 10.6888,51.4287 9.5,50.5C 10.5771,48.2706 11.2437,45.9372 11.5,43.5 Z"/></g>
<g><path style="opacity:1" fill="#60e1f2" d="M 127.5,51.5 C 128.5,51.5 129.5,51.5 130.5,51.5C 130.5,54.1667 130.5,56.8333 130.5,59.5C 129.5,59.5 128.5,59.5 127.5,59.5C 127.5,56.8333 127.5,54.1667 127.5,51.5 Z"/></g>
<g><path style="opacity:1" fill="#63e2f3" d="M 8.5,55.5 C 9.5,55.5 10.5,55.5 11.5,55.5C 11.6641,58.1873 11.4974,60.854 11,63.5C 10.586,63.9574 10.086,64.2907 9.5,64.5C 8.51592,61.5719 8.18259,58.5719 8.5,55.5 Z"/></g>
<g><path style="opacity:1" fill="#5fe1f2" d="M 127.5,63.5 C 128.5,63.5 129.5,63.5 130.5,63.5C 130.5,66.5 130.5,69.5 130.5,72.5C 129.5,72.5 128.5,72.5 127.5,72.5C 127.5,69.5 127.5,66.5 127.5,63.5 Z"/></g>
<g><path style="opacity:1" fill="#7ae5f4" d="M 8.5,67.5 C 9.82207,67.33 10.9887,67.6634 12,68.5C 12.498,71.4816 12.6646,74.4816 12.5,77.5C 11.5,77.5 10.5,77.5 9.5,77.5C 8.9492,74.1933 8.61587,70.8599 8.5,67.5 Z"/></g>
<g><path style="opacity:1" fill="#a450f3" d="M 80.5,47.5 C 78.9519,47.1788 78.2852,46.1788 78.5,44.5C 77.5,44.5 76.5,44.5 75.5,44.5C 70.4926,46.7477 65.1593,48.081 59.5,48.5C 65.1278,49.4954 70.7945,49.8288 76.5,49.5C 77.8333,49.5 79.1667,49.5 80.5,49.5C 84.7535,49.9201 88.7535,49.2535 92.5,47.5C 94.0293,47.5288 95.196,48.1955 96,49.5C 94.9672,56.3105 94.4672,63.3105 94.5,70.5C 94.6667,75.5 94.8333,80.5 95,85.5C 97.7482,91.579 95.9149,93.9123 89.5,92.5C 79.3416,91.3415 69.0083,91.1748 58.5,92C 57.0953,93.2692 55.4286,93.7692 53.5,93.5C 51.8325,91.5214 51.1658,89.188 51.5,86.5C 52.1174,86.3893 52.6174,86.056 53,85.5C 53.4974,82.854 53.6641,80.1873 53.5,77.5C 50.9407,77.1984 48.6074,77.5318 46.5,78.5C 45.6993,80.0418 45.366,81.7085 45.5,83.5C 47.5648,83.4828 49.5648,83.1495 51.5,82.5C 51.5858,83.4959 51.2524,84.3292 50.5,85C 48.8659,85.4935 47.1992,85.6602 45.5,85.5C 44.4183,84.4062 43.7517,83.0729 43.5,81.5C 44.4959,78.2025 44.6626,74.8692 44,71.5C 42.7128,64.0614 41.0461,56.7281 39,49.5C 35.3328,45.6775 35.8328,42.6775 40.5,40.5C 41.8333,40.8333 43.1667,41.1667 44.5,41.5C 55.6399,40.2214 66.3066,37.5547 76.5,33.5C 78.0293,33.5288 79.196,34.1955 80,35.5C 80.4988,39.4862 80.6655,43.4862 80.5,47.5 Z"/></g>
<g><path style="opacity:1" fill="#f6f1f9" d="M 46.5,75.5 C 46.5,73.8333 46.5,72.1667 46.5,70.5C 48.099,70.7678 49.4324,70.4345 50.5,69.5C 51.1499,69.1961 51.8165,68.8627 52.5,68.5C 53.4742,70.7427 53.8076,73.076 53.5,75.5C 51.1667,75.5 48.8333,75.5 46.5,75.5 Z"/></g>
<g><path style="opacity:1" fill="#cda1f7" d="M 50.5,69.5 C 49.4324,70.4345 48.099,70.7678 46.5,70.5C 46.5,72.1667 46.5,73.8333 46.5,75.5C 45.5386,73.7354 45.2053,71.7354 45.5,69.5C 47.1667,69.5 48.8333,69.5 50.5,69.5 Z"/></g>
<g><path style="opacity:1" fill="#f1bacd" d="M 85.5,67.5 C 87.3569,66.2463 89.3569,66.2463 91.5,67.5C 92.8333,70.1667 92.8333,72.8333 91.5,75.5C 90.8165,75.1373 90.1499,74.8039 89.5,74.5C 89.5,72.1667 89.5,69.8333 89.5,67.5C 88.1667,67.5 86.8333,67.5 85.5,67.5 Z"/></g>
<g><path style="opacity:1" fill="#f4effa" d="M 85.5,67.5 C 86.8333,67.5 88.1667,67.5 89.5,67.5C 89.5,69.8333 89.5,72.1667 89.5,74.5C 87.4352,74.5172 85.4352,74.8505 83.5,75.5C 82.8333,75.5 82.1667,75.5 81.5,75.5C 73.206,75.1476 64.8726,74.9809 56.5,75C 55.565,72.6194 55.2317,70.1194 55.5,67.5C 65.4966,67.4989 75.4966,67.4989 85.5,67.5 Z"/></g>
<g><path style="opacity:1" fill="#f8bcc6" d="M 89.5,58.5 C 92.1831,60.0408 93.0164,62.3741 92,65.5C 90.6439,64.6198 89.1439,64.2865 87.5,64.5C 89.0746,62.8863 89.7413,60.8863 89.5,58.5 Z"/></g>
<g><path style="opacity:1" fill="#f2ebfa" d="M 89.5,58.5 C 89.7413,60.8863 89.0746,62.8863 87.5,64.5C 78.0225,64.8921 68.5225,65.2255 59,65.5C 56.2562,65.5879 55.0895,64.2546 55.5,61.5C 55.5088,58.1726 56.8421,57.5059 59.5,59.5C 61.5,58.8333 63.5,58.1667 65.5,57.5C 69.2725,60.1221 73.1058,60.1221 77,57.5C 78.4681,58.6278 80.1348,59.2945 82,59.5C 84.4621,58.8405 86.9621,58.5072 89.5,58.5 Z"/></g>
<g><path style="opacity:1" fill="#f0e6fa" d="M 51.5,57.5 C 52.7647,58.5145 53.4313,60.0145 53.5,62C 53.1667,63.5 52.8333,65 52.5,66.5C 49.9159,67.3928 47.2492,67.7261 44.5,67.5C 44.4249,64.7938 44.0916,62.1272 43.5,59.5C 46.5533,59.8893 49.22,59.2227 51.5,57.5 Z"/></g>
<g><path style="opacity:1" fill="#f0e3f6" d="M 53.5,49.5 C 65.7191,51.4971 78.0524,51.9971 90.5,51C 91.5634,49.8118 92.8967,49.3118 94.5,49.5C 94.683,51.9363 94.0163,54.103 92.5,56C 91.1971,56.2098 89.8638,56.0431 88.5,55.5C 86.5,56.1667 84.5,56.8333 82.5,57.5C 78.5707,54.9406 74.5707,54.9406 70.5,57.5C 68.8333,56.8333 67.1667,56.1667 65.5,55.5C 58.4164,59.2921 54.4164,57.2921 53.5,49.5 Z"/></g>
<g><path style="opacity:1" fill="#f2e9f9" d="M 49.5,49.5 C 50.6935,49.9704 51.3601,50.9704 51.5,52.5C 51.3333,53.5 51.1667,54.5 51,55.5C 48.4355,57.1793 45.6021,57.846 42.5,57.5C 42.1667,55.5 41.8333,53.5 41.5,51.5C 44.5533,51.8893 47.22,51.2227 49.5,49.5 Z"/></g>
<g><path style="opacity:1" fill="#f5b3c4" d="M 75.5,44.5 C 76.5,44.5 77.5,44.5 78.5,44.5C 78.2852,46.1788 78.9519,47.1788 80.5,47.5C 80.5,48.1667 80.5,48.8333 80.5,49.5C 79.1667,49.5 77.8333,49.5 76.5,49.5C 76.634,47.7085 76.3007,46.0418 75.5,44.5 Z"/></g>
<g><path style="opacity:1" fill="#f3e9f7" d="M 75.5,44.5 C 76.3007,46.0418 76.634,47.7085 76.5,49.5C 70.7945,49.8288 65.1278,49.4954 59.5,48.5C 65.1593,48.081 70.4926,46.7477 75.5,44.5 Z"/></g>
<g><path style="opacity:1" fill="#f2e5f5" d="M 75.5,35.5 C 76.5,35.5 77.5,35.5 78.5,35.5C 78.5,37.8333 78.5,40.1667 78.5,42.5C 72.6686,43.7872 66.6686,44.6205 60.5,45C 58.187,47.4955 55.5203,47.9955 52.5,46.5C 49.5891,47.7899 46.5891,48.7899 43.5,49.5C 40.2261,48.7373 38.7261,46.7373 39,43.5C 50.1598,42.7411 61.3265,40.9078 72.5,38C 73.9423,37.6232 74.9423,36.7899 75.5,35.5 Z"/></g>
<g><path style="opacity:1" fill="#e4cef9" d="M 81.5,75.5 C 82.1667,75.5 82.8333,75.5 83.5,75.5C 83.3691,76.3764 83.7025,77.0431 84.5,77.5C 86.6431,76.2463 88.6431,76.2463 90.5,77.5C 89.8333,77.5 89.5,77.8333 89.5,78.5C 78.5,78.5 67.5,78.5 56.5,78.5C 56.366,80.2915 56.6993,81.9582 57.5,83.5C 55.6921,82.0821 55.0254,80.0821 55.5,77.5C 63.8778,76.9593 72.2112,76.9593 80.5,77.5C 81.2975,77.0431 81.6309,76.3764 81.5,75.5 Z"/></g>
<g><path style="opacity:1" fill="#f6f3fa" d="M 89.5,78.5 C 89.5,79.8333 89.5,81.1667 89.5,82.5C 85.3304,83.6676 81.1638,83.6676 77,82.5C 75.072,82.9335 73.2387,83.6002 71.5,84.5C 67.4293,81.9406 63.4293,81.9406 59.5,84.5C 58.5836,84.4573 57.9169,84.1239 57.5,83.5C 56.6993,81.9582 56.366,80.2915 56.5,78.5C 67.5,78.5 78.5,78.5 89.5,78.5 Z"/></g>
<g><path style="opacity:1" fill="#fabec4" d="M 90.5,77.5 C 91.6935,77.9704 92.3601,78.9704 92.5,80.5C 92.4526,83.2386 91.4526,83.9053 89.5,82.5C 89.5,81.1667 89.5,79.8333 89.5,78.5C 89.5,77.8333 89.8333,77.5 90.5,77.5 Z"/></g>
<g><path style="opacity:1" fill="#efe5fa" d="M 46.5,78.5 C 48.5,78.5 50.5,78.5 52.5,78.5C 52.7678,80.099 52.4345,81.4324 51.5,82.5C 49.5648,83.1495 47.5648,83.4828 45.5,83.5C 45.366,81.7085 45.6993,80.0418 46.5,78.5 Z"/></g>
<g><path style="opacity:1" fill="#5ee1f2" d="M 126.5,76.5 C 127.586,76.62 128.253,77.2867 128.5,78.5C 127.844,80.4534 127.511,82.4534 127.5,84.5C 126.325,84.719 125.325,84.3857 124.5,83.5C 125.325,81.1987 125.992,78.8654 126.5,76.5 Z"/></g>
<g><path style="opacity:1" fill="#58e0f2" d="M 11.5,80.5 C 12.5,80.5 13.5,80.5 14.5,80.5C 15.4492,83.2075 15.4492,85.8742 14.5,88.5C 12.3773,86.2546 11.3773,83.5879 11.5,80.5 Z"/></g>
<g><path style="opacity:1" fill="#dfc5f9" d="M 46.5,78.5 C 48.6074,77.5318 50.9407,77.1984 53.5,77.5C 53.6641,80.1873 53.4974,82.854 53,85.5C 52.6174,86.056 52.1174,86.3893 51.5,86.5C 49.2646,86.7947 47.2646,86.4614 45.5,85.5C 47.1992,85.6602 48.8659,85.4935 50.5,85C 51.2524,84.3292 51.5858,83.4959 51.5,82.5C 52.4345,81.4324 52.7678,80.099 52.5,78.5C 50.5,78.5 48.5,78.5 46.5,78.5 Z"/></g>
<g><path style="opacity:1" fill="#d3acf8" d="M 78.5,85.5 C 74.6992,86.7146 71.0326,86.7146 67.5,85.5C 71.3887,85.1943 75.0553,85.1943 78.5,85.5 Z"/></g>
<g><path style="opacity:1" fill="#f0e1f5" d="M 67.5,85.5 C 71.0326,86.7146 74.6992,86.7146 78.5,85.5C 83.5067,85.5435 88.5067,86.0435 93.5,87C 94.3802,88.3561 94.7135,89.8561 94.5,91.5C 92.8967,91.6882 91.5634,91.1882 90.5,90C 79.5,89.3333 68.5,89.3333 57.5,90C 55.6245,92.0676 54.2911,91.7343 53.5,89C 53.7247,87.3791 54.558,86.2125 56,85.5C 59.7999,86.3799 63.6332,86.3799 67.5,85.5 Z"/></g>
<g><path style="opacity:1" fill="#e3cff9" d="M 89.5,92.5 C 79.4944,92.3335 69.4944,92.5002 59.5,93C 57.5167,94.7074 55.5167,94.874 53.5,93.5C 55.4286,93.7692 57.0953,93.2692 58.5,92C 69.0083,91.1748 79.3416,91.3415 89.5,92.5 Z"/></g>
<g><path style="opacity:1" fill="#5fe1f2" d="M 122.5,88.5 C 123.497,88.4701 124.164,88.9701 124.5,90C 123.391,92.0466 122.724,94.2133 122.5,96.5C 121.5,96.5 120.5,96.5 119.5,96.5C 119.94,93.6202 120.94,90.9535 122.5,88.5 Z"/></g>
<g><path style="opacity:1" fill="#5ee1f3" d="M 16.5,91.5 C 19.2055,92.6896 20.8721,94.8563 21.5,98C 21.1667,98.5 20.8333,99 20.5,99.5C 17.8332,97.4999 16.4999,94.8333 16.5,91.5 Z"/></g>
<g><path style="opacity:1" fill="#5be1f2" d="M 116.5,98.5 C 118.225,98.8425 118.725,99.8425 118,101.5C 116.649,103.019 115.149,104.352 113.5,105.5C 112.417,104.635 112.251,103.635 113,102.5C 114.376,101.295 115.542,99.9616 116.5,98.5 Z"/></g>
<g><path style="opacity:1" fill="#4fdff2" d="M 23.5,101.5 C 25.7402,102.568 27.5736,104.234 29,106.5C 29.6877,107.332 29.521,107.998 28.5,108.5C 25.6095,106.957 23.9429,104.624 23.5,101.5 Z"/></g>
<g><path style="opacity:1" fill="#61e2f3" d="M 107.5,107.5 C 109.225,107.843 109.725,108.843 109,110.5C 107.429,112.923 105.263,114.256 102.5,114.5C 103.702,111.944 105.369,109.611 107.5,107.5 Z"/></g>
<g><path style="opacity:1" fill="#5de1f3" d="M 32.5,110.5 C 36.1327,111.142 38.4661,113.142 39.5,116.5C 35.9014,115.897 33.5681,113.897 32.5,110.5 Z"/></g>
<g><path style="opacity:1" fill="#63e2f3" d="M 97.5,114.5 C 99.4646,114.948 99.7979,115.948 98.5,117.5C 96.3379,119.02 94.0046,120.02 91.5,120.5C 91.281,119.325 91.6143,118.325 92.5,117.5C 94.5976,117.043 96.2642,116.043 97.5,114.5 Z"/></g>
<g><path style="opacity:1" fill="#61e2f2" d="M 43.5,116.5 C 53.8138,120.072 53.8138,121.406 43.5,120.5C 43.5,119.167 43.5,117.833 43.5,116.5 Z"/></g>
<g><path style="opacity:1" fill="#6fe4f3" d="M 54.5,121.5 C 57.5,121.5 60.5,121.5 63.5,121.5C 63.5,122.5 63.5,123.5 63.5,124.5C 60.8127,124.664 58.146,124.497 55.5,124C 54.7476,123.329 54.4142,122.496 54.5,121.5 Z"/></g>
<g><path style="opacity:1" fill="#72e4f3" d="M 85.5,119.5 C 86.5,119.5 87.5,119.5 88.5,119.5C 88.67,120.822 88.3366,121.989 87.5,123C 84.8832,123.822 82.2165,124.322 79.5,124.5C 79.5,123.5 79.5,122.5 79.5,121.5C 81.7857,121.405 83.7857,120.738 85.5,119.5 Z"/></g>
<g><path style="opacity:1" fill="#58e0f2" d="M 67.5,122.5 C 70.1667,122.5 72.8333,122.5 75.5,122.5C 75.5,123.5 75.5,124.5 75.5,125.5C 72.8333,125.5 70.1667,125.5 67.5,125.5C 67.5,124.5 67.5,123.5 67.5,122.5 Z"/></g>
</svg>
