<?xml version="1.0" encoding="UTF-8"?>
<!DOCTYPE svg PUBLIC "-//W3C//DTD SVG 1.1//EN" "http://www.w3.org/Graphics/SVG/1.1/DTD/svg11.dtd">
<svg xmlns="http://www.w3.org/2000/svg" version="1.1" width="136px" height="129px" style="shape-rendering:geometricPrecision; text-rendering:geometricPrecision; image-rendering:optimizeQuality; fill-rule:evenodd; clip-rule:evenodd" xmlns:xlink="http://www.w3.org/1999/xlink">
<g><path style="opacity:1" fill="#f5f8fa" d="M -0.5,-0.5 C 44.8333,-0.5 90.1667,-0.5 135.5,-0.5C 135.5,42.5 135.5,85.5 135.5,128.5C 90.1667,128.5 44.8333,128.5 -0.5,128.5C -0.5,85.5 -0.5,42.5 -0.5,-0.5 Z"/></g>
<g><path style="opacity:1" fill="#70e4f4" d="M 61.5,1.5 C 64.5,1.5 67.5,1.5 70.5,1.5C 70.5,2.5 70.5,3.5 70.5,4.5C 67.5,4.5 64.5,4.5 61.5,4.5C 61.5,3.5 61.5,2.5 61.5,1.5 Z"/></g>
<g><path style="opacity:1" fill="#6ae3f3" d="M 74.5,1.5 C 76.5273,1.33788 78.5273,1.50454 80.5,2C 81.9733,2.70956 82.6399,3.87623 82.5,5.5C 79.8728,4.90843 77.2062,4.5751 74.5,4.5C 74.5,3.5 74.5,2.5 74.5,1.5 Z"/></g>
<g><path style="opacity:1" fill="#6de3f3" d="M 52.5,2.5 C 54.5,2.5 56.5,2.5 58.5,2.5C 58.5,3.5 58.5,4.5 58.5,5.5C 55.5176,5.96286 52.5176,6.29619 49.5,6.5C 49.5,5.5 49.5,4.5 49.5,3.5C 50.791,3.73731 51.791,3.40397 52.5,2.5 Z"/></g>
<g><path style="opacity:1" fill="#70e4f3" d="M 86.5,4.5 C 89.4261,5.46078 92.4261,6.12744 95.5,6.5C 95.5,7.5 95.5,8.5 95.5,9.5C 92.6872,9.45193 90.0205,8.78527 87.5,7.5C 86.6143,6.67504 86.281,5.67504 86.5,4.5 Z"/></g>
<g><path style="opacity:1" fill="#6de3f3" d="M 44.5,5.5 C 46.1765,6.18342 46.8432,7.51676 46.5,9.5C 43.9512,9.38742 41.6179,10.0541 39.5,11.5C 39.1667,11.1667 38.8333,10.8333 38.5,10.5C 39.9599,8.02753 41.9599,6.36087 44.5,5.5 Z"/></g>
<g><path style="opacity:1" fill="#3cdbf0" d="M 58.5,8.5 C 90.0903,6.69902 110.924,20.699 121,50.5C 123.218,65.9557 120.218,80.2891 112,93.5C 92.9661,115.91 69.7995,121.41 42.5,110C 14.4581,89.9994 7.95814,64.4994 23,33.5C 32.013,20.9605 43.8463,12.6272 58.5,8.5 Z"/></g>
<g><path style="opacity:1" fill="#5ee1f3" d="M 97.5,9.5 C 100.774,10.1399 103.441,11.8066 105.5,14.5C 105,14.8333 104.5,15.1667 104,15.5C 100.737,14.4897 98.5706,12.4897 97.5,9.5 Z"/></g>
<g><path style="opacity:1" fill="#60e2f3" d="M 32.5,12.5 C 34.3547,12.272 35.1881,12.9387 35,14.5C 32.8231,16.9646 30.3231,17.9646 27.5,17.5C 29.0063,15.5986 30.6729,13.9319 32.5,12.5 Z"/></g>
<g><path style="opacity:1" fill="#f6f7fa" d="M 61.5,14.5 C 81.5229,13.0984 97.3562,20.4318 109,36.5C 119.875,56.3376 118.542,75.3376 105,93.5C 85.6412,112.679 64.1412,115.512 40.5,102C 24.5662,88.873 18.0662,72.0396 21,51.5C 27.1565,30.8324 40.6565,18.499 61.5,14.5 Z"/></g>
<g><path style="opacity:1" fill="#5ee1f3" d="M 107.5,17.5 C 110.263,17.7438 112.429,19.0771 114,21.5C 114.749,22.635 114.583,23.635 113.5,24.5C 110.734,22.7407 108.734,20.4073 107.5,17.5 Z"/></g>
<g><path style="opacity:1" fill="#5ee1f2" d="M 23.5,20.5 C 25.2252,20.8425 25.7252,21.8425 25,23.5C 23.6598,24.8678 22.3264,26.2011 21,27.5C 20.5,27.1667 20,26.8333 19.5,26.5C 20.4671,24.2099 21.8004,22.2099 23.5,20.5 Z"/></g>
<g><path style="opacity:1" fill="#57e0f2" d="M 116.5,26.5 C 118.624,27.0312 120.124,28.3645 121,30.5C 121.781,31.9437 121.614,33.277 120.5,34.5C 118.095,32.3577 116.762,29.691 116.5,26.5 Z"/></g>
<g><path style="opacity:1" fill="#63e2f3" d="M 16.5,30.5 C 17.4972,30.4701 18.1639,30.9701 18.5,32C 17.3655,34.4412 15.8655,36.6079 14,38.5C 13.5,38.1667 13,37.8333 12.5,37.5C 13.5923,34.9763 14.9257,32.643 16.5,30.5 Z"/></g>
<g><path style="opacity:1" fill="#9c44f3" d="M 75.5,43.5 C 74.596,44.209 74.2627,45.209 74.5,46.5C 76.1667,46.5 77.8333,46.5 79.5,46.5C 82.8333,47.8333 85.1667,50.1667 86.5,53.5C 86.3059,57.0048 85.3059,57.3382 83.5,54.5C 83.1412,52.629 82.1412,51.129 80.5,50C 78.0731,49.0977 75.7397,48.2644 73.5,47.5C 73.5,45.1667 73.5,42.8333 73.5,40.5C 69.774,40.1774 66.1073,40.5108 62.5,41.5C 62.6236,42.1067 62.9569,42.44 63.5,42.5C 63.6602,44.1992 63.4935,45.8659 63,47.5C 59.0374,47.7774 55.8707,49.4441 53.5,52.5C 52.7321,53.2625 52.2321,54.2625 52,55.5C 51.3292,56.2524 50.4959,56.5858 49.5,56.5C 50.9562,50.0433 54.9562,46.3767 61.5,45.5C 60.7775,42.3077 59.4442,39.4743 57.5,37C 57.7549,35.6739 58.4216,34.6739 59.5,34C 65.5,33.3333 71.5,33.3333 77.5,34C 78.5762,35.7261 78.7429,37.5594 78,39.5C 76.5187,40.4709 75.6854,41.8042 75.5,43.5 Z"/></g>
<g><path style="opacity:1" fill="#d8b6f8" d="M 59.5,36.5 C 65.2055,36.1712 70.8722,36.5046 76.5,37.5C 73.6667,37.8333 70.8333,38.1667 68,38.5C 64.7485,38.4809 61.9151,37.8142 59.5,36.5 Z"/></g>
<g><path style="opacity:1" fill="#b16bf6" d="M 73.5,47.5 C 72.5386,45.7354 72.2053,43.7354 72.5,41.5C 69.2869,41.19 66.2869,41.5233 63.5,42.5C 62.9569,42.44 62.6236,42.1067 62.5,41.5C 66.1073,40.5108 69.774,40.1774 73.5,40.5C 73.5,42.8333 73.5,45.1667 73.5,47.5 Z"/></g>
<g><path style="opacity:1" fill="#55e0f2" d="M 122.5,37.5 C 126.218,39.0227 127.218,41.6894 125.5,45.5C 123.377,43.2546 122.377,40.5879 122.5,37.5 Z"/></g>
<g><path style="opacity:1" fill="#f6f1f8" d="M 73.5,47.5 C 75.7397,48.2644 78.0731,49.0977 80.5,50C 82.1412,51.129 83.1412,52.629 83.5,54.5C 83.5,55.5 83.5,56.5 83.5,57.5C 78.178,55.9475 73.0114,56.2808 68,58.5C 64.1853,55.9082 60.352,55.9082 56.5,58.5C 55.2054,57.9017 53.8721,57.4017 52.5,57C 53.3802,55.6439 53.7135,54.1439 53.5,52.5C 55.8707,49.4441 59.0374,47.7774 63,47.5C 63.4935,45.8659 63.6602,44.1992 63.5,42.5C 66.2869,41.5233 69.2869,41.19 72.5,41.5C 72.2053,43.7354 72.5386,45.7354 73.5,47.5 Z"/></g>
<g><path style="opacity:1" fill="#67e2f3" d="M 10.5,41.5 C 11.5,41.5 12.5,41.5 13.5,41.5C 12.5392,44.4261 11.8726,47.4261 11.5,50.5C 10.5,50.5 9.5,50.5 8.5,50.5C 9.16667,47.5 9.83333,44.5 10.5,41.5 Z"/></g>
<g><path style="opacity:1" fill="#c595f4" d="M 75.5,43.5 C 76.4475,44.9779 77.7809,45.9779 79.5,46.5C 77.8333,46.5 76.1667,46.5 74.5,46.5C 74.2627,45.209 74.596,44.209 75.5,43.5 Z"/></g>
<g><path style="opacity:1" fill="#6fe3f3" d="M 125.5,49.5 C 126.822,49.33 127.989,49.6634 129,50.5C 129.497,53.146 129.664,55.8127 129.5,58.5C 128.5,58.5 127.5,58.5 126.5,58.5C 126.492,55.4552 126.159,52.4552 125.5,49.5 Z"/></g>
<g><path style="opacity:1" fill="#f8c5cb" d="M 53.5,52.5 C 53.7135,54.1439 53.3802,55.6439 52.5,57C 53.8721,57.4017 55.2054,57.9017 56.5,58.5C 60.352,55.9082 64.1853,55.9082 68,58.5C 73.0114,56.2808 78.178,55.9475 83.5,57.5C 83.5,56.5 83.5,55.5 83.5,54.5C 85.3059,57.3382 86.3059,57.0048 86.5,53.5C 87.8333,56.1667 87.8333,58.8333 86.5,61.5C 86.719,60.325 86.3857,59.325 85.5,58.5C 84.8933,58.6236 84.56,58.9569 84.5,59.5C 81.0057,61.0031 77.6724,60.6698 74.5,58.5C 70.484,61.0392 66.484,61.0392 62.5,58.5C 59.1491,60.1822 55.8158,60.8488 52.5,60.5C 51.7777,59.4489 50.7777,58.7822 49.5,58.5C 49.5,57.8333 49.5,57.1667 49.5,56.5C 50.4959,56.5858 51.3292,56.2524 52,55.5C 52.2321,54.2625 52.7321,53.2625 53.5,52.5 Z"/></g>
<g><path style="opacity:1" fill="#68e2f3" d="M 8.5,53.5 C 10.3878,55.9878 11.0545,58.9878 10.5,62.5C 9.5,62.5 8.5,62.5 7.5,62.5C 7.26414,59.3915 7.59748,56.3915 8.5,53.5 Z"/></g>
<g><path style="opacity:1" fill="#9233f1" d="M 49.5,58.5 C 50.7777,58.7822 51.7777,59.4489 52.5,60.5C 52.5,60.8333 52.5,61.1667 52.5,61.5C 52.6332,64.925 51.9665,65.2583 50.5,62.5C 49.7659,61.2921 49.4326,59.9587 49.5,58.5 Z"/></g>
<g><path style="opacity:1" fill="#f8f1f3" d="M 84.5,59.5 C 83.7659,60.7079 83.4326,62.0413 83.5,63.5C 82.6618,63.8417 82.3284,64.5084 82.5,65.5C 77.5042,64.3127 72.6709,64.6461 68,66.5C 66.2158,65.6909 64.3825,65.0243 62.5,64.5C 59.978,65.762 57.3113,66.4287 54.5,66.5C 54.7373,65.209 54.404,64.209 53.5,63.5C 53.6716,62.5084 53.3382,61.8417 52.5,61.5C 52.5,61.1667 52.5,60.8333 52.5,60.5C 55.8158,60.8488 59.1491,60.1822 62.5,58.5C 66.484,61.0392 70.484,61.0392 74.5,58.5C 77.6724,60.6698 81.0057,61.0031 84.5,59.5 Z"/></g>
<g><path style="opacity:1" fill="#983df1" d="M 86.5,61.5 C 86.5,61.8333 86.5,62.1667 86.5,62.5C 85.8485,63.0906 85.1818,63.7573 84.5,64.5C 83.8933,64.3764 83.56,64.0431 83.5,63.5C 83.4326,62.0413 83.7659,60.7079 84.5,59.5C 84.56,58.9569 84.8933,58.6236 85.5,58.5C 86.3857,59.325 86.719,60.325 86.5,61.5 Z"/></g>
<g><path style="opacity:1" fill="#b56fe5" d="M 52.5,61.5 C 53.3382,61.8417 53.6716,62.5084 53.5,63.5C 53.5,64.8333 52.8333,65.5 51.5,65.5C 50.596,64.791 50.2627,63.791 50.5,62.5C 51.9665,65.2583 52.6332,64.925 52.5,61.5 Z"/></g>
<g><path style="opacity:1" fill="#6ae3f3" d="M 126.5,62.5 C 127.5,62.5 128.5,62.5 129.5,62.5C 129.664,65.1873 129.497,67.854 129,70.5C 128.586,70.9574 128.086,71.2907 127.5,71.5C 126.516,68.5719 126.183,65.5719 126.5,62.5 Z"/></g>
<g><path style="opacity:1" fill="#f6c3ca" d="M 53.5,63.5 C 54.404,64.209 54.7373,65.209 54.5,66.5C 57.3113,66.4287 59.978,65.762 62.5,64.5C 64.3825,65.0243 66.2158,65.6909 68,66.5C 72.6709,64.6461 77.5042,64.3127 82.5,65.5C 82.4431,66.609 82.1098,67.609 81.5,68.5C 78.7097,68.7776 76.2097,68.1109 74,66.5C 70.1498,69.1061 66.3165,69.1061 62.5,66.5C 60.1148,67.6615 57.7814,68.6615 55.5,69.5C 54.8485,68.9094 54.1818,68.2427 53.5,67.5C 52.8933,67.6236 52.56,67.9569 52.5,68.5C 51.596,67.791 51.2627,66.791 51.5,65.5C 52.8333,65.5 53.5,64.8333 53.5,63.5 Z"/></g>
<g><path style="opacity:1" fill="#d499e3" d="M 86.5,62.5 C 86.0719,65.7846 85.0719,68.7846 83.5,71.5C 83.8693,69.0065 83.2027,68.3398 81.5,69.5C 81.5,69.1667 81.5,68.8333 81.5,68.5C 82.1098,67.609 82.4431,66.609 82.5,65.5C 82.3284,64.5084 82.6618,63.8417 83.5,63.5C 83.56,64.0431 83.8933,64.3764 84.5,64.5C 85.1818,63.7573 85.8485,63.0906 86.5,62.5 Z"/></g>
<g><path style="opacity:1" fill="#f5f0f9" d="M 81.5,68.5 C 81.5,68.8333 81.5,69.1667 81.5,69.5C 79.7091,74.0405 78.2091,78.7071 77,83.5C 71.2665,85.513 71.7665,86.513 78.5,86.5C 71.9131,88.4612 64.9131,89.1279 57.5,88.5C 59.0251,86.9642 61.0251,85.9642 63.5,85.5C 62.1667,84.8333 60.8333,84.1667 59.5,83.5C 57.5512,78.9896 56.2179,74.3229 55.5,69.5C 57.7814,68.6615 60.1148,67.6615 62.5,66.5C 66.3165,69.1061 70.1498,69.1061 74,66.5C 76.2097,68.1109 78.7097,68.7776 81.5,68.5 Z"/></g>
<g><path style="opacity:1" fill="#73e4f3" d="M 7.5,66.5 C 9.12377,66.3601 10.2904,67.0267 11,68.5C 11.4966,70.8098 11.6633,73.1432 11.5,75.5C 10.5,75.5 9.5,75.5 8.5,75.5C 7.84128,72.5448 7.50795,69.5448 7.5,66.5 Z"/></g>
<g><path style="opacity:1" fill="#d7b7f6" d="M 83.5,71.5 C 82.8078,75.8911 81.8078,80.2245 80.5,84.5C 79.8761,84.0831 79.5427,83.4164 79.5,82.5C 80.4679,78.5871 81.8012,74.9204 83.5,71.5 Z"/></g>
<g><path style="opacity:1" fill="#6be3f3" d="M 125.5,74.5 C 126.5,74.5 127.5,74.5 128.5,74.5C 128.315,78.072 126.981,81.072 124.5,83.5C 124.167,83 123.833,82.5 123.5,82C 124.249,79.5034 124.916,77.0034 125.5,74.5 Z"/></g>
<g><path style="opacity:1" fill="#5ae0f2" d="M 10.5,79.5 C 11.5,79.5 12.5,79.5 13.5,79.5C 14.4492,82.2075 14.4492,84.8742 13.5,87.5C 11.7134,85.1416 10.7134,82.475 10.5,79.5 Z"/></g>
<g><path style="opacity:1" fill="#973bf3" d="M 55.5,69.5 C 56.2179,74.3229 57.5512,78.9896 59.5,83.5C 60.8333,84.1667 62.1667,84.8333 63.5,85.5C 61.0251,85.9642 59.0251,86.9642 57.5,88.5C 64.6476,89.4916 71.9809,89.825 79.5,89.5C 79.7373,88.209 79.404,87.209 78.5,86.5C 71.7665,86.513 71.2665,85.513 77,83.5C 78.2091,78.7071 79.7091,74.0405 81.5,69.5C 83.2027,68.3398 83.8693,69.0065 83.5,71.5C 81.8012,74.9204 80.4679,78.5871 79.5,82.5C 79.5427,83.4164 79.8761,84.0831 80.5,84.5C 81.768,86.6702 81.768,88.8368 80.5,91C 72.5,91.6667 64.5,91.6667 56.5,91C 54.055,88.4636 54.055,85.797 56.5,83C 55.0589,78.1795 53.7256,73.3461 52.5,68.5C 52.56,67.9569 52.8933,67.6236 53.5,67.5C 54.1818,68.2427 54.8485,68.9094 55.5,69.5 Z"/></g>
<g><path style="opacity:1" fill="#cda4f7" d="M 78.5,86.5 C 79.404,87.209 79.7373,88.209 79.5,89.5C 71.9809,89.825 64.6476,89.4916 57.5,88.5C 64.9131,89.1279 71.9131,88.4612 78.5,86.5 Z"/></g>
<g><path style="opacity:1" fill="#b878f4" d="M 67.5,84.5 C 69.337,84.6395 69.6704,85.3061 68.5,86.5C 67.7025,86.0431 67.3691,85.3764 67.5,84.5 Z"/></g>
<g><path style="opacity:1" fill="#57e0f2" d="M 121.5,86.5 C 122.497,86.4701 123.164,86.9701 123.5,88C 122.785,90.6053 121.452,92.772 119.5,94.5C 119.167,94 118.833,93.5 118.5,93C 119.789,90.9654 120.789,88.7988 121.5,86.5 Z"/></g>
<g><path style="opacity:1" fill="#63e2f3" d="M 15.5,90.5 C 16.4959,90.4142 17.3292,90.7476 18,91.5C 19.8793,93.5268 21.046,95.8602 21.5,98.5C 17.6881,97.3369 15.6881,94.6702 15.5,90.5 Z"/></g>
<g><path style="opacity:1" fill="#55e0f2" d="M 114.5,97.5 C 115.675,97.281 116.675,97.6143 117.5,98.5C 116.299,100.909 114.633,102.909 112.5,104.5C 112.167,104 111.833,103.5 111.5,103C 112.741,101.269 113.741,99.4358 114.5,97.5 Z"/></g>
<g><path style="opacity:1" fill="#54e0f2" d="M 22.5,100.5 C 26.3232,101.609 27.9899,103.943 27.5,107.5C 24.6095,105.957 22.9429,103.624 22.5,100.5 Z"/></g>
<g><path style="opacity:1" fill="#60e2f3" d="M 106.5,106.5 C 108.355,106.272 109.188,106.939 109,108.5C 106.823,110.965 104.323,111.965 101.5,111.5C 103.006,109.599 104.673,107.932 106.5,106.5 Z"/></g>
<g><path style="opacity:1" fill="#69e3f3" d="M 31.5,108.5 C 33.7991,109.778 36.1324,111.111 38.5,112.5C 39.3857,113.325 39.719,114.325 39.5,115.5C 35.1259,114.998 32.4593,112.664 31.5,108.5 Z"/></g>
<g><path style="opacity:1" fill="#67e3f3" d="M 95.5,113.5 C 96.5,113.5 97.5,113.5 98.5,113.5C 97.8224,116.535 95.8224,118.201 92.5,118.5C 91.0683,118.267 90.5683,117.6 91,116.5C 92.6516,115.601 94.1516,114.601 95.5,113.5 Z"/></g>
<g><path style="opacity:1" fill="#70e4f3" d="M 42.5,115.5 C 45.8352,115.653 48.5019,116.986 50.5,119.5C 48.0407,120.643 45.7073,120.31 43.5,118.5C 42.6143,117.675 42.281,116.675 42.5,115.5 Z"/></g>
<g><path style="opacity:1" fill="#6ae3f3" d="M 83.5,118.5 C 84.9778,118.238 86.3112,118.571 87.5,119.5C 85.0498,121.867 82.0498,122.867 78.5,122.5C 78.5,121.5 78.5,120.5 78.5,119.5C 80.4147,119.784 82.0813,119.451 83.5,118.5 Z"/></g>
<g><path style="opacity:1" fill="#6de3f3" d="M 53.5,119.5 C 55.8568,119.337 58.1902,119.503 60.5,120C 61.9733,120.71 62.6399,121.876 62.5,123.5C 59.4824,123.296 56.4824,122.963 53.5,122.5C 53.5,121.5 53.5,120.5 53.5,119.5 Z"/></g>
<g><path style="opacity:1" fill="#6de3f3" d="M 66.5,120.5 C 69.5,120.5 72.5,120.5 75.5,120.5C 75.5,121.5 75.5,122.5 75.5,123.5C 72.5,123.5 69.5,123.5 66.5,123.5C 66.5,122.5 66.5,121.5 66.5,120.5 Z"/></g>
</svg>
